{
<<<<<<< HEAD
.appVersion = "3151";
DisplayStrings = (
"/comma-han"
);
=======
.appVersion = "1342";
copyright = "Copyright 2020 The Kapakana Project Authors (https://github.com/nagamaki008/kapakana)";
>>>>>>> a67631c34287778228898d27a6a085bb4cbd8f83
customParameters = (
{
name = "Use Typo Metrics";
value = 1;
},
{
name = fsType;
value = (
);
},
{
name = license;
value = "This Font Software is licensed under the SIL Open Font License, Version 1.1. This license is available with a FAQ at: https://scripts.sil.org/OFL";
},
{
name = licenseURL;
value = "https://scripts.sil.org/OFL";
},
{
name = vendorID;
value = NGMK;
}
);
date = "2020-05-05 02:21:19 +0000";
designer = "Kyosuke Nagai";
familyName = Kapakana;
fontMaster = (
{
ascender = 680;
capHeight = 535;
customParameters = (
{
name = strikeoutPosition;
value = 458;
},
{
name = strikeoutSize;
value = 57;
},
{
name = typoLineGap;
value = 0;
},
{
name = hheaLineGap;
value = 0;
}
);
descender = -320;
id = "A92E3ADA-722A-4108-B621-F991B1803EEA";
weight = Light;
weightValue = 10;
xHeight = 250;
},
{
ascender = 680;
capHeight = 535;
customParameters = (
{
name = strikeoutPosition;
value = 458;
},
{
name = strikeoutSize;
value = 57;
},
{
name = typoLineGap;
value = 0;
},
{
name = hheaLineGap;
value = 0;
}
);
<<<<<<< HEAD
note = ".notdef";
},
{
glyphname = space;
lastChange = "2020-11-28 12:51:53 +0000";
layers = (
{
layerId = "A6F4F1CF-B738-4D99-83C7-A0DEF7C73335";
width = 300;
},
{
layerId = "A92E3ADA-722A-4108-B621-F991B1803EEA";
width = 300;
=======
descender = -320;
id = "A6F4F1CF-B738-4D99-83C7-A0DEF7C73335";
xHeight = 250;
>>>>>>> a67631c34287778228898d27a6a085bb4cbd8f83
}
);
glyphs = (
{
glyphname = A;
lastChange = "2020-12-18 19:02:38 +0000";
layers = (
{
background = {
paths = (
{
closed = 1;
nodes = (
"421 92 OFFCURVE",
"437 93 QCURVE",
"436 90 OFFCURVE",
"433 86 OFFCURVE",
"431 83 QCURVE",
"357 -8 LINE",
"372 -6 LINE SMOOTH",
"378 -6 OFFCURVE",
"396 -6 OFFCURVE",
"412 -6 QCURVE SMOOTH",
"444 -8 LINE",
"530 105 LINE",
"662 133 OFFCURVE",
"740 207 QCURVE SMOOTH",
"778 243 OFFCURVE",
"794 272 QCURVE SMOOTH",
"804 289 OFFCURVE",
"818 326 OFFCURVE",
"819 354 OFFCURVE",
"813 362 OFFCURVE",
"811 362 QCURVE SMOOTH",
"808 362 OFFCURVE",
"797 332 QCURVE SMOOTH",
"788 309 OFFCURVE",
"763 274 QCURVE SMOOTH",
"686 167 OFFCURVE",
"546 126 QCURVE",
"884 576 LINE",
"934 639 LINE SMOOTH",
"952 662 OFFCURVE",
"973 682 OFFCURVE",
"989 688 OFFCURVE",
"989 692 QCURVE SMOOTH",
"989 695 OFFCURVE",
"980 695 QCURVE SMOOTH",
"897 699 OFFCURVE",
"736 559 QCURVE SMOOTH",
"654 487 LINE SMOOTH",
"604 443 OFFCURVE",
"443 289 QCURVE",
"429 318 OFFCURVE",
"409 344 QCURVE SMOOTH",
"344 427 OFFCURVE",
"245 427 QCURVE SMOOTH",
"175 427 OFFCURVE",
"134 387 QCURVE SMOOTH",
"95 348 OFFCURVE",
"99 293 QCURVE SMOOTH",
"102 238 OFFCURVE",
"142 192 QCURVE SMOOTH",
"185 144 OFFCURVE",
"256 117 QCURVE",
"181 59 LINE",
"103 4 OFFCURVE",
"40 4 QCURVE SMOOTH",
"-51 4 OFFCURVE",
"-51 59 QCURVE SMOOTH",
"-51 62 LINE",
"-44 57 OFFCURVE",
"-15 57 OFFCURVE",
"1 71 OFFCURVE",
"1 82 QCURVE SMOOTH",
"1 104 OFFCURVE",
"-24 104 QCURVE SMOOTH",
"-41 103 OFFCURVE",
"-56 94 QCURVE SMOOTH",
"-62 90 OFFCURVE",
"-71 74 OFFCURVE",
"-71 48 OFFCURVE",
"-64 35 QCURVE SMOOTH",
"-43 -11 OFFCURVE",
"36 -10 QCURVE SMOOTH",
"103 -9 OFFCURVE",
"169 31 QCURVE SMOOTH",
"204 52 OFFCURVE",
"274 111 QCURVE",
"334 92 OFFCURVE",
"405 92 QCURVE",
"405 92 LINE"
);
},
{
closed = 1;
nodes = (
"611 429 LINE",
"716 524 LINE SMOOTH",
"840 635 OFFCURVE",
"909 662 QCURVE SMOOTH",
"943 676 LINE",
"922 656 OFFCURVE",
"830 567 OFFCURVE",
"650 349 QCURVE SMOOTH",
"465 125 LINE",
"471 146 OFFCURVE",
"471 221 OFFCURVE",
"450 273 QCURVE",
"450 273 LINE"
);
},
{
closed = 1;
nodes = (
"233 139 OFFCURVE",
"208 157 QCURVE SMOOTH",
"131 213 OFFCURVE",
"130 295 QCURVE SMOOTH",
"129 342 OFFCURVE",
"164 377 QCURVE SMOOTH",
"180 393 OFFCURVE",
"222 412 OFFCURVE",
"277 412 OFFCURVE",
"306 402 QCURVE SMOOTH",
"391 374 OFFCURVE",
"432 278 QCURVE",
"365 214 OFFCURVE",
"268 127 QCURVE",
"268 127 LINE"
);
},
{
closed = 1;
nodes = (
"325 156 OFFCURVE",
"439 262 QCURVE",
"455 215 OFFCURVE",
"455 164 QCURVE SMOOTH",
"455 137 OFFCURVE",
"443 108 QCURVE",
"426 106 OFFCURVE",
"408 106 QCURVE SMOOTH",
"341 106 OFFCURVE",
"286 121 QCURVE",
"286 121 LINE"
);
}
);
};
layerId = "A6F4F1CF-B738-4D99-83C7-A0DEF7C73335";
paths = (
{
closed = 1;
nodes = (
"9 -19 LINE",
"124 -19 OFFCURVE",
"247 119 OFFCURVE",
"371 237 CURVE SMOOTH",
"504 363 OFFCURVE",
"634 498 OFFCURVE",
"728 513 CURVE SMOOTH",
"748 516 OFFCURVE",
"749 523 OFFCURVE",
"735 523 CURVE SMOOTH",
"648 523 OFFCURVE",
"503 380 OFFCURVE",
"362 246 CURVE SMOOTH",
"231 122 OFFCURVE",
"114 -8 OFFCURVE",
"10 -8 CURVE SMOOTH",
"-23 -8 OFFCURVE",
"-55 1 OFFCURVE",
"-55 37 CURVE",
"-55 37 OFFCURVE",
"-46 33 OFFCURVE",
"-37 33 CURVE SMOOTH",
"-27 33 OFFCURVE",
"-15 38 OFFCURVE",
"-15 51 CURVE SMOOTH",
"-15 66 OFFCURVE",
"-25 69 OFFCURVE",
"-35 69 CURVE SMOOTH",
"-52 69 OFFCURVE",
"-69 57 OFFCURVE",
"-70 40 CURVE SMOOTH",
"-71 26 OFFCURVE",
"-68 -19 OFFCURVE",
"9 -19 CURVE"
);
},
{
closed = 1;
nodes = (
"317 26 LINE",
"324 28 OFFCURVE",
"346 77 OFFCURVE",
"346 124 CURVE SMOOTH",
"346 179 OFFCURVE",
"302 317 OFFCURVE",
"175 317 CURVE SMOOTH",
"99 317 OFFCURVE",
"59 269 OFFCURVE",
"59 223 CURVE SMOOTH",
"59 118 OFFCURVE",
"174 59 OFFCURVE",
"308 59 CURVE SMOOTH",
"480 59 OFFCURVE",
"613 168 OFFCURVE",
"613 258 CURVE SMOOTH",
"613 263 OFFCURVE",
"608 276 OFFCURVE",
"601 256 CURVE SMOOTH",
"567 161 OFFCURVE",
"453 69 OFFCURVE",
"298 69 CURVE SMOOTH",
"155 69 OFFCURVE",
"84 142 OFFCURVE",
"84 221 CURVE SMOOTH",
"84 256 OFFCURVE",
"117 306 OFFCURVE",
"175 306 CURVE SMOOTH",
"293 306 OFFCURVE",
"334 179 OFFCURVE",
"334 113 CURVE SMOOTH",
"334 75 OFFCURVE",
"305 37 OFFCURVE",
"299 28 CURVE SMOOTH",
"295 21 OFFCURVE",
"309 23 OFFCURVE",
"317 26 CURVE"
);
},
{
closed = 1;
nodes = (
"258 -17 LINE",
"262 -17 OFFCURVE",
"281 -14 OFFCURVE",
"293 -14 CURVE SMOOTH",
"305 -14 OFFCURVE",
"320 -16 OFFCURVE",
"325 -17 CURVE SMOOTH",
"329 -17 OFFCURVE",
"711 501 OFFCURVE",
"732 513 CURVE",
"740 519 OFFCURVE",
"732 522 OFFCURVE",
"725 520 CURVE SMOOTH",
"685 513 OFFCURVE",
"264 -11 OFFCURVE",
"258 -17 CURVE"
);
}
);
width = 604;
},
{
layerId = "A92E3ADA-722A-4108-B621-F991B1803EEA";
paths = (
{
closed = 1;
nodes = (
"9 -19 LINE",
"125 -19 OFFCURVE",
"247 119 OFFCURVE",
"371 237 CURVE SMOOTH",
"504 363 OFFCURVE",
"634 498 OFFCURVE",
"728 513 CURVE SMOOTH",
"748 516 OFFCURVE",
"749 523 OFFCURVE",
"735 523 CURVE SMOOTH",
"648 523 OFFCURVE",
"503 380 OFFCURVE",
"362 246 CURVE SMOOTH",
"232 122 OFFCURVE",
"115 -8 OFFCURVE",
"10 -8 CURVE SMOOTH",
"-23 -8 OFFCURVE",
"-55 1 OFFCURVE",
"-55 37 CURVE",
"-55 37 OFFCURVE",
"-46 33 OFFCURVE",
"-37 33 CURVE SMOOTH",
"-27 33 OFFCURVE",
"-15 39 OFFCURVE",
"-15 51 CURVE SMOOTH",
"-15 66 OFFCURVE",
"-25 69 OFFCURVE",
"-35 69 CURVE SMOOTH",
"-52 69 OFFCURVE",
"-69 57 OFFCURVE",
"-70 40 CURVE SMOOTH",
"-71 26 OFFCURVE",
"-68 -19 OFFCURVE",
"9 -19 CURVE"
);
},
{
closed = 1;
nodes = (
"317 26 LINE",
"319 27 OFFCURVE",
"346 68 OFFCURVE",
"346 124 CURVE SMOOTH",
"346 179 OFFCURVE",
"302 317 OFFCURVE",
"175 317 CURVE SMOOTH",
"99 317 OFFCURVE",
"59 269 OFFCURVE",
"59 223 CURVE SMOOTH",
"59 118 OFFCURVE",
"174 59 OFFCURVE",
"308 59 CURVE SMOOTH",
"480 59 OFFCURVE",
"613 168 OFFCURVE",
"613 258 CURVE SMOOTH",
"613 263 OFFCURVE",
"602 276 OFFCURVE",
"601 256 CURVE SMOOTH",
"594 169 OFFCURVE",
"473 69 OFFCURVE",
"298 69 CURVE SMOOTH",
"155 69 OFFCURVE",
"72 141 OFFCURVE",
"72 223 CURVE SMOOTH",
"72 263 OFFCURVE",
"106 308 OFFCURVE",
"175 308 CURVE SMOOTH",
"297 308 OFFCURVE",
"334 174 OFFCURVE",
"334 122 CURVE SMOOTH",
"334 70 OFFCURVE",
"317 44 OFFCURVE",
"302 27 CURVE SMOOTH",
"297 20 OFFCURVE",
"308 23 OFFCURVE",
"317 26 CURVE"
);
},
{
closed = 1;
nodes = (
"265 -17 LINE",
"268 -17 OFFCURVE",
"271 -15 OFFCURVE",
"278 -15 CURVE SMOOTH",
"282 -15 OFFCURVE",
"280 -16 OFFCURVE",
"285 -17 CURVE",
"279 -17 OFFCURVE",
"687 484 OFFCURVE",
"732 513 CURVE SMOOTH",
"740 519 OFFCURVE",
"732 522 OFFCURVE",
"725 520 CURVE SMOOTH",
"694 513 OFFCURVE",
"271 -11 OFFCURVE",
"265 -17 CURVE"
);
}
);
width = 604;
}
);
note = A;
unicode = 0041;
},
{
glyphname = Aacute;
lastChange = "2020-12-18 19:02:38 +0000";
layers = (
{
background = {
paths = (
{
closed = 1;
nodes = (
"1118 831 OFFCURVE",
"1118 854 QCURVE SMOOTH",
"1118 881 OFFCURVE",
"1074 881 OFFCURVE",
"1069 846 QCURVE",
"1065 826 OFFCURVE",
"1060 815 QCURVE SMOOTH",
"1043 777 OFFCURVE",
"996 746 QCURVE SMOOTH",
"987 740 OFFCURVE",
"980 735 OFFCURVE",
"980 732 QCURVE SMOOTH",
"980 727 OFFCURVE",
"992 727 OFFCURVE",
"1056 764 OFFCURVE",
"1086 796 QCURVE",
"1086 796 LINE"
);
}
);
};
layerId = "A6F4F1CF-B738-4D99-83C7-A0DEF7C73335";
paths = (
{
closed = 1;
nodes = (
"743 556 LINE",
"734 550 OFFCURVE",
"738 543 OFFCURVE",
"747 548 CURVE SMOOTH",
"792 571 OFFCURVE",
"844 616 OFFCURVE",
"844 641 CURVE SMOOTH",
"844 658 OFFCURVE",
"837 664 OFFCURVE",
"828 664 CURVE SMOOTH",
"815 664 OFFCURVE",
"809 654 OFFCURVE",
"806 637 CURVE SMOOTH",
"803 612 OFFCURVE",
"784 579 OFFCURVE",
"743 556 CURVE"
);
},
{
closed = 1;
nodes = (
"9 -19 LINE",
"124 -19 OFFCURVE",
"247 119 OFFCURVE",
"371 237 CURVE SMOOTH",
"504 363 OFFCURVE",
"634 498 OFFCURVE",
"728 513 CURVE SMOOTH",
"748 516 OFFCURVE",
"749 523 OFFCURVE",
"735 523 CURVE SMOOTH",
"648 523 OFFCURVE",
"503 380 OFFCURVE",
"362 246 CURVE SMOOTH",
"231 122 OFFCURVE",
"114 -8 OFFCURVE",
"10 -8 CURVE SMOOTH",
"-23 -8 OFFCURVE",
"-55 1 OFFCURVE",
"-55 37 CURVE",
"-55 37 OFFCURVE",
"-46 33 OFFCURVE",
"-37 33 CURVE SMOOTH",
"-27 33 OFFCURVE",
"-15 38 OFFCURVE",
"-15 51 CURVE SMOOTH",
"-15 66 OFFCURVE",
"-25 69 OFFCURVE",
"-35 69 CURVE SMOOTH",
"-52 69 OFFCURVE",
"-69 57 OFFCURVE",
"-70 40 CURVE SMOOTH",
"-71 26 OFFCURVE",
"-68 -19 OFFCURVE",
"9 -19 CURVE"
);
},
{
closed = 1;
nodes = (
"317 26 LINE",
"324 28 OFFCURVE",
"346 77 OFFCURVE",
"346 124 CURVE SMOOTH",
"346 179 OFFCURVE",
"302 317 OFFCURVE",
"175 317 CURVE SMOOTH",
"99 317 OFFCURVE",
"59 269 OFFCURVE",
"59 223 CURVE SMOOTH",
"59 118 OFFCURVE",
"174 59 OFFCURVE",
"308 59 CURVE SMOOTH",
"480 59 OFFCURVE",
"613 168 OFFCURVE",
"613 258 CURVE SMOOTH",
"613 263 OFFCURVE",
"608 276 OFFCURVE",
"601 256 CURVE SMOOTH",
"567 161 OFFCURVE",
"453 69 OFFCURVE",
"298 69 CURVE SMOOTH",
"155 69 OFFCURVE",
"84 142 OFFCURVE",
"84 221 CURVE SMOOTH",
"84 256 OFFCURVE",
"117 306 OFFCURVE",
"175 306 CURVE SMOOTH",
"293 306 OFFCURVE",
"334 179 OFFCURVE",
"334 113 CURVE SMOOTH",
"334 75 OFFCURVE",
"305 37 OFFCURVE",
"299 28 CURVE SMOOTH",
"295 21 OFFCURVE",
"309 23 OFFCURVE",
"317 26 CURVE"
);
},
{
closed = 1;
nodes = (
"258 -17 LINE",
"262 -17 OFFCURVE",
"281 -14 OFFCURVE",
"293 -14 CURVE SMOOTH",
"305 -14 OFFCURVE",
"320 -16 OFFCURVE",
"325 -17 CURVE SMOOTH",
"329 -17 OFFCURVE",
"711 501 OFFCURVE",
"732 513 CURVE",
"740 519 OFFCURVE",
"732 522 OFFCURVE",
"725 520 CURVE SMOOTH",
"685 513 OFFCURVE",
"264 -11 OFFCURVE",
"258 -17 CURVE"
);
}
);
width = 604;
},
{
layerId = "A92E3ADA-722A-4108-B621-F991B1803EEA";
paths = (
{
closed = 1;
nodes = (
"743 556 LINE",
"734 550 OFFCURVE",
"738 543 OFFCURVE",
"747 548 CURVE SMOOTH",
"792 571 OFFCURVE",
"838 620 OFFCURVE",
"838 645 CURVE SMOOTH",
"838 662 OFFCURVE",
"834 664 OFFCURVE",
"828 664 CURVE SMOOTH",
"818 664 OFFCURVE",
"814 649 OFFCURVE",
"811 632 CURVE SMOOTH",
"808 607 OFFCURVE",
"784 579 OFFCURVE",
"743 556 CURVE"
);
},
{
closed = 1;
nodes = (
"9 -19 LINE",
"125 -19 OFFCURVE",
"247 119 OFFCURVE",
"371 237 CURVE SMOOTH",
"504 363 OFFCURVE",
"634 498 OFFCURVE",
"728 513 CURVE SMOOTH",
"748 516 OFFCURVE",
"749 523 OFFCURVE",
"735 523 CURVE SMOOTH",
"648 523 OFFCURVE",
"503 380 OFFCURVE",
"362 246 CURVE SMOOTH",
"232 122 OFFCURVE",
"115 -8 OFFCURVE",
"10 -8 CURVE SMOOTH",
"-23 -8 OFFCURVE",
"-55 1 OFFCURVE",
"-55 37 CURVE",
"-55 37 OFFCURVE",
"-46 33 OFFCURVE",
"-37 33 CURVE SMOOTH",
"-27 33 OFFCURVE",
"-15 39 OFFCURVE",
"-15 51 CURVE SMOOTH",
"-15 66 OFFCURVE",
"-25 69 OFFCURVE",
"-35 69 CURVE SMOOTH",
"-52 69 OFFCURVE",
"-69 57 OFFCURVE",
"-70 40 CURVE SMOOTH",
"-71 26 OFFCURVE",
"-68 -19 OFFCURVE",
"9 -19 CURVE"
);
},
{
closed = 1;
nodes = (
"317 26 LINE",
"319 27 OFFCURVE",
"346 68 OFFCURVE",
"346 124 CURVE SMOOTH",
"346 179 OFFCURVE",
"302 317 OFFCURVE",
"175 317 CURVE SMOOTH",
"99 317 OFFCURVE",
"59 269 OFFCURVE",
"59 223 CURVE SMOOTH",
"59 118 OFFCURVE",
"174 59 OFFCURVE",
"308 59 CURVE SMOOTH",
"480 59 OFFCURVE",
"613 168 OFFCURVE",
"613 258 CURVE SMOOTH",
"613 263 OFFCURVE",
"602 276 OFFCURVE",
"601 256 CURVE SMOOTH",
"594 169 OFFCURVE",
"473 69 OFFCURVE",
"298 69 CURVE SMOOTH",
"155 69 OFFCURVE",
"72 141 OFFCURVE",
"72 223 CURVE SMOOTH",
"72 263 OFFCURVE",
"106 308 OFFCURVE",
"175 308 CURVE SMOOTH",
"297 308 OFFCURVE",
"334 174 OFFCURVE",
"334 122 CURVE SMOOTH",
"334 70 OFFCURVE",
"317 44 OFFCURVE",
"302 27 CURVE SMOOTH",
"297 20 OFFCURVE",
"308 23 OFFCURVE",
"317 26 CURVE"
);
},
{
closed = 1;
nodes = (
"265 -17 LINE",
"268 -17 OFFCURVE",
"271 -15 OFFCURVE",
"278 -15 CURVE SMOOTH",
"282 -15 OFFCURVE",
"280 -16 OFFCURVE",
"285 -17 CURVE",
"279 -17 OFFCURVE",
"687 484 OFFCURVE",
"732 513 CURVE SMOOTH",
"740 519 OFFCURVE",
"732 522 OFFCURVE",
"725 520 CURVE SMOOTH",
"694 513 OFFCURVE",
"271 -11 OFFCURVE",
"265 -17 CURVE"
);
}
);
width = 604;
}
);
note = Aacute;
unicode = 00C1;
},
{
glyphname = Acircumflex;
lastChange = "2020-12-18 19:02:38 +0000";
layers = (
{
background = {
paths = (
{
closed = 1;
nodes = (
"940 780 OFFCURVE",
"973 807 QCURVE",
"977 786 LINE SMOOTH",
"979 772 OFFCURVE",
"990 751 QCURVE SMOOTH",
"1009 715 OFFCURVE",
"1027 715 QCURVE SMOOTH",
"1031 715 OFFCURVE",
"1036 720 OFFCURVE",
"1036 724 OFFCURVE",
"1033 727 QCURVE SMOOTH",
"1013 748 OFFCURVE",
"1012 802 QCURVE SMOOTH",
"1012 833 OFFCURVE",
"1024 863 QCURVE SMOOTH",
"1027 871 OFFCURVE",
"1027 877 QCURVE SMOOTH",
"1027 881 OFFCURVE",
"1023 881 QCURVE SMOOTH",
"1016 881 OFFCURVE",
"993 856 QCURVE",
"959 824 OFFCURVE",
"925 797 QCURVE SMOOTH",
"862 747 LINE SMOOTH",
"832 724 OFFCURVE",
"832 718 QCURVE SMOOTH",
"832 716 OFFCURVE",
"842 716 OFFCURVE",
"861 728 QCURVE SMOOTH",
"910 761 LINE",
"910 761 LINE"
);
}
);
};
layerId = "A6F4F1CF-B738-4D99-83C7-A0DEF7C73335";
paths = (
{
closed = 1;
nodes = (
"651 540 LINE",
"645 534 OFFCURVE",
"644 526 OFFCURVE",
"658 535 CURVE SMOOTH",
"678 546 OFFCURVE",
"748 597 OFFCURVE",
"755 602 CURVE",
"755 587 OFFCURVE",
"771 540 OFFCURVE",
"789 533 CURVE SMOOTH",
"799 529 OFFCURVE",
"807 535 OFFCURVE",
"801 540 CURVE",
"793 549 OFFCURVE",
"785 575 OFFCURVE",
"785 599 CURVE SMOOTH",
"785 621 OFFCURVE",
"792 641 OFFCURVE",
"796 652 CURVE SMOOTH",
"798 658 OFFCURVE",
"794 664 OFFCURVE",
"785 654 CURVE SMOOTH",
"752 615 OFFCURVE",
"669 556 OFFCURVE",
"651 540 CURVE"
);
},
{
closed = 1;
nodes = (
"9 -19 LINE",
"124 -19 OFFCURVE",
"247 119 OFFCURVE",
"370 237 CURVE SMOOTH",
"503 364 OFFCURVE",
"634 500 OFFCURVE",
"727 513 CURVE SMOOTH",
"748 516 OFFCURVE",
"749 523 OFFCURVE",
"735 523 CURVE SMOOTH",
"648 523 OFFCURVE",
"503 380 OFFCURVE",
"362 246 CURVE SMOOTH",
"231 122 OFFCURVE",
"114 -8 OFFCURVE",
"10 -8 CURVE SMOOTH",
"-23 -8 OFFCURVE",
"-55 1 OFFCURVE",
"-55 37 CURVE",
"-55 37 OFFCURVE",
"-46 33 OFFCURVE",
"-37 33 CURVE SMOOTH",
"-27 33 OFFCURVE",
"-15 38 OFFCURVE",
"-15 51 CURVE SMOOTH",
"-15 66 OFFCURVE",
"-25 69 OFFCURVE",
"-35 69 CURVE SMOOTH",
"-52 69 OFFCURVE",
"-69 57 OFFCURVE",
"-70 40 CURVE SMOOTH",
"-71 26 OFFCURVE",
"-68 -19 OFFCURVE",
"9 -19 CURVE"
);
},
{
closed = 1;
nodes = (
"317 26 LINE",
"324 29 OFFCURVE",
"346 77 OFFCURVE",
"346 124 CURVE SMOOTH",
"346 179 OFFCURVE",
"302 317 OFFCURVE",
"175 317 CURVE SMOOTH",
"99 317 OFFCURVE",
"59 269 OFFCURVE",
"59 223 CURVE SMOOTH",
"59 118 OFFCURVE",
"174 59 OFFCURVE",
"307 59 CURVE SMOOTH",
"480 59 OFFCURVE",
"613 168 OFFCURVE",
"613 258 CURVE SMOOTH",
"613 263 OFFCURVE",
"608 276 OFFCURVE",
"600 256 CURVE SMOOTH",
"563 163 OFFCURVE",
"453 69 OFFCURVE",
"297 69 CURVE SMOOTH",
"155 69 OFFCURVE",
"84 142 OFFCURVE",
"84 221 CURVE SMOOTH",
"84 256 OFFCURVE",
"117 306 OFFCURVE",
"175 306 CURVE SMOOTH",
"293 306 OFFCURVE",
"334 179 OFFCURVE",
"334 113 CURVE SMOOTH",
"334 75 OFFCURVE",
"304 37 OFFCURVE",
"299 28 CURVE SMOOTH",
"295 21 OFFCURVE",
"309 23 OFFCURVE",
"317 26 CURVE"
);
},
{
closed = 1;
nodes = (
"257 -17 LINE",
"262 -17 OFFCURVE",
"281 -14 OFFCURVE",
"293 -14 CURVE SMOOTH",
"305 -14 OFFCURVE",
"320 -16 OFFCURVE",
"325 -17 CURVE SMOOTH",
"329 -18 OFFCURVE",
"711 501 OFFCURVE",
"732 513 CURVE SMOOTH",
"741 518 OFFCURVE",
"732 522 OFFCURVE",
"725 520 CURVE SMOOTH",
"686 509 OFFCURVE",
"264 -11 OFFCURVE",
"257 -17 CURVE"
);
}
);
width = 604;
},
{
layerId = "A92E3ADA-722A-4108-B621-F991B1803EEA";
paths = (
{
closed = 1;
nodes = (
"651 540 LINE",
"645 534 OFFCURVE",
"642 525 OFFCURVE",
"658 535 CURVE SMOOTH",
"679 548 OFFCURVE",
"752 603 OFFCURVE",
"780 633 CURVE",
"771 613 OFFCURVE",
"771 549 OFFCURVE",
"792 537 CURVE SMOOTH",
"802 531 OFFCURVE",
"807 535 OFFCURVE",
"801 540 CURVE",
"793 549 OFFCURVE",
"785 575 OFFCURVE",
"785 599 CURVE SMOOTH",
"785 621 OFFCURVE",
"792 641 OFFCURVE",
"796 652 CURVE SMOOTH",
"798 658 OFFCURVE",
"794 664 OFFCURVE",
"785 654 CURVE SMOOTH",
"742 604 OFFCURVE",
"669 556 OFFCURVE",
"651 540 CURVE"
);
},
{
closed = 1;
nodes = (
"9 -19 LINE",
"125 -19 OFFCURVE",
"247 119 OFFCURVE",
"371 237 CURVE SMOOTH",
"504 363 OFFCURVE",
"634 498 OFFCURVE",
"728 513 CURVE SMOOTH",
"748 516 OFFCURVE",
"749 523 OFFCURVE",
"735 523 CURVE SMOOTH",
"648 523 OFFCURVE",
"503 380 OFFCURVE",
"362 246 CURVE SMOOTH",
"232 122 OFFCURVE",
"115 -8 OFFCURVE",
"10 -8 CURVE SMOOTH",
"-23 -8 OFFCURVE",
"-55 1 OFFCURVE",
"-55 37 CURVE",
"-55 37 OFFCURVE",
"-46 33 OFFCURVE",
"-37 33 CURVE SMOOTH",
"-27 33 OFFCURVE",
"-15 39 OFFCURVE",
"-15 51 CURVE SMOOTH",
"-15 66 OFFCURVE",
"-25 69 OFFCURVE",
"-35 69 CURVE SMOOTH",
"-52 69 OFFCURVE",
"-69 57 OFFCURVE",
"-70 40 CURVE SMOOTH",
"-71 26 OFFCURVE",
"-68 -19 OFFCURVE",
"9 -19 CURVE"
);
},
{
closed = 1;
nodes = (
"317 26 LINE",
"319 27 OFFCURVE",
"346 68 OFFCURVE",
"346 124 CURVE SMOOTH",
"346 179 OFFCURVE",
"302 317 OFFCURVE",
"175 317 CURVE SMOOTH",
"99 317 OFFCURVE",
"59 269 OFFCURVE",
"59 223 CURVE SMOOTH",
"59 118 OFFCURVE",
"174 59 OFFCURVE",
"308 59 CURVE SMOOTH",
"480 59 OFFCURVE",
"613 168 OFFCURVE",
"613 258 CURVE SMOOTH",
"613 263 OFFCURVE",
"602 276 OFFCURVE",
"601 256 CURVE SMOOTH",
"594 169 OFFCURVE",
"473 69 OFFCURVE",
"298 69 CURVE SMOOTH",
"155 69 OFFCURVE",
"72 141 OFFCURVE",
"72 223 CURVE SMOOTH",
"72 263 OFFCURVE",
"106 308 OFFCURVE",
"175 308 CURVE SMOOTH",
"297 308 OFFCURVE",
"334 174 OFFCURVE",
"334 122 CURVE SMOOTH",
"334 70 OFFCURVE",
"317 44 OFFCURVE",
"302 27 CURVE SMOOTH",
"297 20 OFFCURVE",
"308 23 OFFCURVE",
"317 26 CURVE"
);
},
{
closed = 1;
nodes = (
"265 -17 LINE",
"268 -17 OFFCURVE",
"271 -15 OFFCURVE",
"278 -15 CURVE SMOOTH",
"282 -15 OFFCURVE",
"280 -16 OFFCURVE",
"285 -17 CURVE",
"279 -17 OFFCURVE",
"687 484 OFFCURVE",
"732 513 CURVE SMOOTH",
"740 519 OFFCURVE",
"732 522 OFFCURVE",
"725 520 CURVE SMOOTH",
"694 513 OFFCURVE",
"271 -11 OFFCURVE",
"265 -17 CURVE"
);
}
);
width = 604;
}
);
note = Acircumflex;
unicode = 00C2;
},
{
glyphname = Adieresis;
lastChange = "2020-12-18 19:02:38 +0000";
layers = (
{
components = (
{
name = A;
}
);
layerId = "A6F4F1CF-B738-4D99-83C7-A0DEF7C73335";
paths = (
{
closed = 1;
nodes = (
"709 563 LINE",
"709 563 LINE",
"719.744 573.744 OFFCURVE",
"726.75 591.808 OFFCURVE",
"714.5 605 CURVE SMOOTH",
"710.167 609.667 OFFCURVE",
"703.667 612 OFFCURVE",
"695 612 CURVE SMOOTH",
"686.333 612 OFFCURVE",
"678.333 608 OFFCURVE",
"671 600 CURVE",
"659.915 591.132 OFFCURVE",
"653.55 571.87 OFFCURVE",
"665.5 559 CURVE SMOOTH",
"669.833 554.333 OFFCURVE",
"676.167 552 OFFCURVE",
"684.5 552 CURVE SMOOTH",
"692.833 552 OFFCURVE",
"701 555.667 OFFCURVE",
"709 563 CURVE"
);
},
{
closed = 1;
nodes = (
"825 563 LINE",
"825 563 LINE",
"835.744 573.744 OFFCURVE",
"842.75 591.808 OFFCURVE",
"830.5 605 CURVE SMOOTH",
"821.833 614.333 OFFCURVE",
"802.333 614.667 OFFCURVE",
"785 600 CURVE SMOOTH",
"774.585 591.668 OFFCURVE",
"768.962 571.425 OFFCURVE",
"780.5 559 CURVE SMOOTH",
"784.833 554.333 OFFCURVE",
"791.167 552 OFFCURVE",
"799.5 552 CURVE SMOOTH",
"807.833 552 OFFCURVE",
"816.333 555.667 OFFCURVE",
"825 563 CURVE"
);
}
);
width = 604;
},
{
components = (
{
name = A;
}
);
layerId = "A92E3ADA-722A-4108-B621-F991B1803EEA";
paths = (
{
closed = 1;
nodes = (
"709 563 LINE",
"709 563 LINE",
"719.744 573.744 OFFCURVE",
"726.75 591.808 OFFCURVE",
"714.5 605 CURVE SMOOTH",
"710.167 609.667 OFFCURVE",
"703.667 612 OFFCURVE",
"695 612 CURVE SMOOTH",
"686.333 612 OFFCURVE",
"678.333 608 OFFCURVE",
"671 600 CURVE",
"659.915 591.132 OFFCURVE",
"653.55 571.87 OFFCURVE",
"665.5 559 CURVE SMOOTH",
"669.833 554.333 OFFCURVE",
"676.167 552 OFFCURVE",
"684.5 552 CURVE SMOOTH",
"692.833 552 OFFCURVE",
"701 555.667 OFFCURVE",
"709 563 CURVE"
);
},
{
closed = 1;
nodes = (
"825 563 LINE",
"825 563 LINE",
"835.744 573.744 OFFCURVE",
"842.75 591.808 OFFCURVE",
"830.5 605 CURVE SMOOTH",
"821.833 614.333 OFFCURVE",
"802.333 614.667 OFFCURVE",
"785 600 CURVE SMOOTH",
"774.585 591.668 OFFCURVE",
"768.962 571.425 OFFCURVE",
"780.5 559 CURVE SMOOTH",
"784.833 554.333 OFFCURVE",
"791.167 552 OFFCURVE",
"799.5 552 CURVE SMOOTH",
"807.833 552 OFFCURVE",
"816.333 555.667 OFFCURVE",
"825 563 CURVE"
);
}
);
width = 604;
}
);
note = Adieresis;
unicode = 00C4;
},
{
glyphname = Agrave;
lastChange = "2020-12-18 19:02:38 +0000";
layers = (
{
background = {
paths = (
{
closed = 1;
nodes = (
"753 564 OFFCURVE",
"750 566 QCURVE SMOOTH",
"743 571 LINE SMOOTH",
"715 587 OFFCURVE",
"698 611 QCURVE SMOOTH",
"689 624 OFFCURVE",
"685 650 QCURVE SMOOTH",
"679 677 OFFCURVE",
"646 677 OFFCURVE",
"645 637 OFFCURVE",
"671 611 QCURVE SMOOTH",
"682 600 OFFCURVE",
"712 576 OFFCURVE",
"744 558 OFFCURVE",
"749 558 QCURVE SMOOTH",
"753 558 OFFCURVE",
"753 562 QCURVE SMOOTH"
);
}
);
};
layerId = "A6F4F1CF-B738-4D99-83C7-A0DEF7C73335";
paths = (
{
closed = 1;
nodes = (
"645 648 LINE",
"645 611 OFFCURVE",
"720 558 OFFCURVE",
"745 549 CURVE SMOOTH",
"753 546 OFFCURVE",
"758 553 OFFCURVE",
"747 559 CURVE SMOOTH",
"715 578 OFFCURVE",
"693 597 OFFCURVE",
"684 642 CURVE SMOOTH",
"681 657 OFFCURVE",
"677 668 OFFCURVE",
"660 668 CURVE SMOOTH",
"650 668 OFFCURVE",
"645 655 OFFCURVE",
"645 648 CURVE"
);
},
{
closed = 1;
nodes = (
"9 -19 LINE",
"124 -19 OFFCURVE",
"247 119 OFFCURVE",
"371 237 CURVE SMOOTH",
"504 363 OFFCURVE",
"634 498 OFFCURVE",
"728 513 CURVE SMOOTH",
"748 516 OFFCURVE",
"749 523 OFFCURVE",
"735 523 CURVE SMOOTH",
"648 523 OFFCURVE",
"503 380 OFFCURVE",
"362 246 CURVE SMOOTH",
"231 122 OFFCURVE",
"114 -8 OFFCURVE",
"10 -8 CURVE SMOOTH",
"-23 -8 OFFCURVE",
"-55 1 OFFCURVE",
"-55 37 CURVE",
"-55 37 OFFCURVE",
"-46 33 OFFCURVE",
"-37 33 CURVE SMOOTH",
"-27 33 OFFCURVE",
"-15 38 OFFCURVE",
"-15 51 CURVE SMOOTH",
"-15 66 OFFCURVE",
"-25 69 OFFCURVE",
"-35 69 CURVE SMOOTH",
"-52 69 OFFCURVE",
"-69 57 OFFCURVE",
"-70 40 CURVE SMOOTH",
"-71 26 OFFCURVE",
"-68 -19 OFFCURVE",
"9 -19 CURVE"
);
},
{
closed = 1;
nodes = (
"317 26 LINE",
"324 28 OFFCURVE",
"346 77 OFFCURVE",
"346 124 CURVE SMOOTH",
"346 179 OFFCURVE",
"302 317 OFFCURVE",
"175 317 CURVE SMOOTH",
"99 317 OFFCURVE",
"59 269 OFFCURVE",
"59 223 CURVE SMOOTH",
"59 118 OFFCURVE",
"174 59 OFFCURVE",
"308 59 CURVE SMOOTH",
"480 59 OFFCURVE",
"613 168 OFFCURVE",
"613 258 CURVE SMOOTH",
"613 263 OFFCURVE",
"608 276 OFFCURVE",
"601 256 CURVE SMOOTH",
"567 161 OFFCURVE",
"453 69 OFFCURVE",
"298 69 CURVE SMOOTH",
"155 69 OFFCURVE",
"84 142 OFFCURVE",
"84 221 CURVE SMOOTH",
"84 256 OFFCURVE",
"117 306 OFFCURVE",
"175 306 CURVE SMOOTH",
"293 306 OFFCURVE",
"334 179 OFFCURVE",
"334 113 CURVE SMOOTH",
"334 75 OFFCURVE",
"305 37 OFFCURVE",
"299 28 CURVE SMOOTH",
"295 21 OFFCURVE",
"309 23 OFFCURVE",
"317 26 CURVE"
);
},
{
closed = 1;
nodes = (
"258 -17 LINE",
"262 -17 OFFCURVE",
"281 -14 OFFCURVE",
"293 -14 CURVE SMOOTH",
"305 -14 OFFCURVE",
"320 -16 OFFCURVE",
"325 -17 CURVE SMOOTH",
"329 -17 OFFCURVE",
"711 501 OFFCURVE",
"732 513 CURVE",
"740 519 OFFCURVE",
"732 522 OFFCURVE",
"725 520 CURVE SMOOTH",
"685 513 OFFCURVE",
"264 -11 OFFCURVE",
"258 -17 CURVE"
);
}
);
width = 604;
},
{
layerId = "A92E3ADA-722A-4108-B621-F991B1803EEA";
paths = (
{
closed = 1;
nodes = (
"651 650 LINE",
"651 613 OFFCURVE",
"720 558 OFFCURVE",
"745 549 CURVE SMOOTH",
"753 546 OFFCURVE",
"758 553 OFFCURVE",
"747 559 CURVE SMOOTH",
"715 578 OFFCURVE",
"683 597 OFFCURVE",
"677 642 CURVE SMOOTH",
"675 657 OFFCURVE",
"670 668 OFFCURVE",
"660 668 CURVE SMOOTH",
"653 668 OFFCURVE",
"651 657 OFFCURVE",
"651 650 CURVE"
);
},
{
closed = 1;
nodes = (
"9 -19 LINE",
"125 -19 OFFCURVE",
"247 119 OFFCURVE",
"371 237 CURVE SMOOTH",
"504 363 OFFCURVE",
"634 498 OFFCURVE",
"728 513 CURVE SMOOTH",
"748 516 OFFCURVE",
"749 523 OFFCURVE",
"735 523 CURVE SMOOTH",
"648 523 OFFCURVE",
"503 380 OFFCURVE",
"362 246 CURVE SMOOTH",
"232 122 OFFCURVE",
"115 -8 OFFCURVE",
"10 -8 CURVE SMOOTH",
"-23 -8 OFFCURVE",
"-55 1 OFFCURVE",
"-55 37 CURVE",
"-55 37 OFFCURVE",
"-46 33 OFFCURVE",
"-37 33 CURVE SMOOTH",
"-27 33 OFFCURVE",
"-15 39 OFFCURVE",
"-15 51 CURVE SMOOTH",
"-15 66 OFFCURVE",
"-25 69 OFFCURVE",
"-35 69 CURVE SMOOTH",
"-52 69 OFFCURVE",
"-69 57 OFFCURVE",
"-70 40 CURVE SMOOTH",
"-71 26 OFFCURVE",
"-68 -19 OFFCURVE",
"9 -19 CURVE"
);
},
{
closed = 1;
nodes = (
"317 26 LINE",
"319 27 OFFCURVE",
"346 68 OFFCURVE",
"346 124 CURVE SMOOTH",
"346 179 OFFCURVE",
"302 317 OFFCURVE",
"175 317 CURVE SMOOTH",
"99 317 OFFCURVE",
"59 269 OFFCURVE",
"59 223 CURVE SMOOTH",
"59 118 OFFCURVE",
"174 59 OFFCURVE",
"308 59 CURVE SMOOTH",
"480 59 OFFCURVE",
"613 168 OFFCURVE",
"613 258 CURVE SMOOTH",
"613 263 OFFCURVE",
"602 276 OFFCURVE",
"601 256 CURVE SMOOTH",
"594 169 OFFCURVE",
"473 69 OFFCURVE",
"298 69 CURVE SMOOTH",
"155 69 OFFCURVE",
"72 141 OFFCURVE",
"72 223 CURVE SMOOTH",
"72 263 OFFCURVE",
"106 308 OFFCURVE",
"175 308 CURVE SMOOTH",
"297 308 OFFCURVE",
"334 174 OFFCURVE",
"334 122 CURVE SMOOTH",
"334 70 OFFCURVE",
"317 44 OFFCURVE",
"302 27 CURVE SMOOTH",
"297 20 OFFCURVE",
"308 23 OFFCURVE",
"317 26 CURVE"
);
},
{
closed = 1;
nodes = (
"265 -17 LINE",
"268 -17 OFFCURVE",
"271 -15 OFFCURVE",
"278 -15 CURVE SMOOTH",
"282 -15 OFFCURVE",
"280 -16 OFFCURVE",
"285 -17 CURVE",
"279 -17 OFFCURVE",
"687 484 OFFCURVE",
"732 513 CURVE SMOOTH",
"740 519 OFFCURVE",
"732 522 OFFCURVE",
"725 520 CURVE SMOOTH",
"694 513 OFFCURVE",
"271 -11 OFFCURVE",
"265 -17 CURVE"
);
}
);
width = 604;
}
);
note = Agrave;
unicode = 00C0;
},
{
glyphname = Aring;
lastChange = "2020-12-18 19:02:38 +0000";
layers = (
{
background = {
paths = (
{
closed = 1;
nodes = (
"753 662 OFFCURVE",
"689 614 OFFCURVE",
"689 558 OFFCURVE",
"752 558 OFFCURVE",
"782 582 QCURVE SMOOTH",
"795 593 OFFCURVE",
"813 620 OFFCURVE",
"813 646 OFFCURVE",
"797 662 OFFCURVE",
"782 662 QCURVE SMOOTH"
);
},
{
closed = 1;
nodes = (
"791 652 OFFCURVE",
"791 610 OFFCURVE",
"770 588 QCURVE SMOOTH",
"750 568 OFFCURVE",
"728 568 QCURVE SMOOTH",
"711 568 OFFCURVE",
"711 610 OFFCURVE",
"732 630 QCURVE SMOOTH",
"753 652 OFFCURVE",
"775 652 QCURVE SMOOTH"
);
}
);
};
layerId = "A6F4F1CF-B738-4D99-83C7-A0DEF7C73335";
paths = (
{
closed = 1;
nodes = (
"9 -19 LINE",
"124 -19 OFFCURVE",
"247 119 OFFCURVE",
"371 237 CURVE SMOOTH",
"504 363 OFFCURVE",
"634 498 OFFCURVE",
"728 513 CURVE SMOOTH",
"748 516 OFFCURVE",
"749 523 OFFCURVE",
"735 523 CURVE SMOOTH",
"648 523 OFFCURVE",
"503 380 OFFCURVE",
"362 246 CURVE SMOOTH",
"231 122 OFFCURVE",
"114 -8 OFFCURVE",
"10 -8 CURVE SMOOTH",
"-23 -8 OFFCURVE",
"-55 1 OFFCURVE",
"-55 37 CURVE",
"-55 37 OFFCURVE",
"-46 33 OFFCURVE",
"-37 33 CURVE SMOOTH",
"-27 33 OFFCURVE",
"-15 38 OFFCURVE",
"-15 51 CURVE SMOOTH",
"-15 66 OFFCURVE",
"-25 69 OFFCURVE",
"-35 69 CURVE SMOOTH",
"-52 69 OFFCURVE",
"-69 57 OFFCURVE",
"-70 40 CURVE SMOOTH",
"-71 26 OFFCURVE",
"-68 -19 OFFCURVE",
"9 -19 CURVE"
);
},
{
closed = 1;
nodes = (
"317 26 LINE",
"324 28 OFFCURVE",
"346 77 OFFCURVE",
"346 124 CURVE SMOOTH",
"346 179 OFFCURVE",
"302 317 OFFCURVE",
"175 317 CURVE SMOOTH",
"99 317 OFFCURVE",
"59 269 OFFCURVE",
"59 223 CURVE SMOOTH",
"59 118 OFFCURVE",
"174 59 OFFCURVE",
"308 59 CURVE SMOOTH",
"480 59 OFFCURVE",
"613 168 OFFCURVE",
"613 258 CURVE SMOOTH",
"613 263 OFFCURVE",
"608 276 OFFCURVE",
"601 256 CURVE SMOOTH",
"567 161 OFFCURVE",
"453 69 OFFCURVE",
"298 69 CURVE SMOOTH",
"155 69 OFFCURVE",
"84 142 OFFCURVE",
"84 221 CURVE SMOOTH",
"84 256 OFFCURVE",
"117 306 OFFCURVE",
"175 306 CURVE SMOOTH",
"293 306 OFFCURVE",
"334 179 OFFCURVE",
"334 113 CURVE SMOOTH",
"334 75 OFFCURVE",
"305 37 OFFCURVE",
"299 28 CURVE SMOOTH",
"295 21 OFFCURVE",
"309 23 OFFCURVE",
"317 26 CURVE"
);
},
{
closed = 1;
nodes = (
"258 -17 LINE",
"262 -17 OFFCURVE",
"281 -14 OFFCURVE",
"293 -14 CURVE SMOOTH",
"305 -14 OFFCURVE",
"320 -16 OFFCURVE",
"325 -17 CURVE SMOOTH",
"329 -17 OFFCURVE",
"711 501 OFFCURVE",
"732 513 CURVE",
"740 519 OFFCURVE",
"732 522 OFFCURVE",
"725 520 CURVE SMOOTH",
"685 513 OFFCURVE",
"264 -11 OFFCURVE",
"258 -17 CURVE"
);
},
{
closed = 1;
nodes = (
"719 549 LINE",
"767 549 OFFCURVE",
"813 592 OFFCURVE",
"813 625 CURVE SMOOTH",
"813 640 OFFCURVE",
"802 653 OFFCURVE",
"783 653 CURVE SMOOTH",
"740 653 OFFCURVE",
"689 612 OFFCURVE",
"689 579 CURVE SMOOTH",
"689 553 OFFCURVE",
"706 549 OFFCURVE",
"719 549 CURVE"
);
},
{
closed = 1;
nodes = (
"728 559 LINE",
"714 559 OFFCURVE",
"711 570 OFFCURVE",
"711 581 CURVE SMOOTH",
"711 602 OFFCURVE",
"742 643 OFFCURVE",
"775 643 CURVE SMOOTH",
"788 643 OFFCURVE",
"791 632 OFFCURVE",
"791 623 CURVE SMOOTH",
"791 597 OFFCURVE",
"762 559 OFFCURVE",
"728 559 CURVE"
);
}
);
width = 604;
},
{
layerId = "A92E3ADA-722A-4108-B621-F991B1803EEA";
paths = (
{
closed = 1;
nodes = (
"9 -19 LINE",
"125 -19 OFFCURVE",
"247 119 OFFCURVE",
"371 237 CURVE SMOOTH",
"504 363 OFFCURVE",
"634 498 OFFCURVE",
"728 513 CURVE SMOOTH",
"748 516 OFFCURVE",
"749 523 OFFCURVE",
"735 523 CURVE SMOOTH",
"648 523 OFFCURVE",
"503 380 OFFCURVE",
"362 246 CURVE SMOOTH",
"232 122 OFFCURVE",
"115 -8 OFFCURVE",
"10 -8 CURVE SMOOTH",
"-23 -8 OFFCURVE",
"-55 1 OFFCURVE",
"-55 37 CURVE",
"-55 37 OFFCURVE",
"-46 33 OFFCURVE",
"-37 33 CURVE SMOOTH",
"-27 33 OFFCURVE",
"-15 39 OFFCURVE",
"-15 51 CURVE SMOOTH",
"-15 66 OFFCURVE",
"-25 69 OFFCURVE",
"-35 69 CURVE SMOOTH",
"-52 69 OFFCURVE",
"-69 57 OFFCURVE",
"-70 40 CURVE SMOOTH",
"-71 26 OFFCURVE",
"-68 -19 OFFCURVE",
"9 -19 CURVE"
);
},
{
closed = 1;
nodes = (
"317 26 LINE",
"319 27 OFFCURVE",
"346 68 OFFCURVE",
"346 124 CURVE SMOOTH",
"346 179 OFFCURVE",
"302 317 OFFCURVE",
"175 317 CURVE SMOOTH",
"99 317 OFFCURVE",
"59 269 OFFCURVE",
"59 223 CURVE SMOOTH",
"59 118 OFFCURVE",
"174 59 OFFCURVE",
"308 59 CURVE SMOOTH",
"480 59 OFFCURVE",
"613 168 OFFCURVE",
"613 258 CURVE SMOOTH",
"613 263 OFFCURVE",
"602 276 OFFCURVE",
"601 256 CURVE SMOOTH",
"594 169 OFFCURVE",
"473 69 OFFCURVE",
"298 69 CURVE SMOOTH",
"155 69 OFFCURVE",
"72 141 OFFCURVE",
"72 223 CURVE SMOOTH",
"72 263 OFFCURVE",
"106 308 OFFCURVE",
"175 308 CURVE SMOOTH",
"297 308 OFFCURVE",
"334 174 OFFCURVE",
"334 122 CURVE SMOOTH",
"334 70 OFFCURVE",
"317 44 OFFCURVE",
"302 27 CURVE SMOOTH",
"297 20 OFFCURVE",
"308 23 OFFCURVE",
"317 26 CURVE"
);
},
{
closed = 1;
nodes = (
"265 -17 LINE",
"268 -17 OFFCURVE",
"271 -15 OFFCURVE",
"278 -15 CURVE SMOOTH",
"282 -15 OFFCURVE",
"280 -16 OFFCURVE",
"285 -17 CURVE",
"279 -17 OFFCURVE",
"687 484 OFFCURVE",
"732 513 CURVE SMOOTH",
"740 519 OFFCURVE",
"732 522 OFFCURVE",
"725 520 CURVE SMOOTH",
"694 513 OFFCURVE",
"271 -11 OFFCURVE",
"265 -17 CURVE"
);
},
{
closed = 1;
nodes = (
"719 549 LINE",
"767 549 OFFCURVE",
"813 592 OFFCURVE",
"813 625 CURVE SMOOTH",
"813 640 OFFCURVE",
"802 653 OFFCURVE",
"783 653 CURVE SMOOTH",
"740 653 OFFCURVE",
"689 612 OFFCURVE",
"689 579 CURVE SMOOTH",
"689 553 OFFCURVE",
"706 549 OFFCURVE",
"719 549 CURVE"
);
},
{
closed = 1;
nodes = (
"719 559 LINE",
"710 559 OFFCURVE",
"701 563 OFFCURVE",
"701 579 CURVE SMOOTH",
"701 607 OFFCURVE",
"745 643 OFFCURVE",
"783 643 CURVE SMOOTH",
"796 643 OFFCURVE",
"801 634 OFFCURVE",
"801 625 CURVE SMOOTH",
"801 599 OFFCURVE",
"763 559 OFFCURVE",
"719 559 CURVE"
);
}
);
width = 604;
}
);
note = Aring;
unicode = 00C5;
},
{
glyphname = Atilde;
lastChange = "2020-12-18 19:02:38 +0000";
layers = (
{
background = {
paths = (
{
closed = 1;
nodes = (
"680 571 OFFCURVE",
"683 577 QCURVE",
"695 607 OFFCURVE",
"719 607 QCURVE SMOOTH",
"727 607 OFFCURVE",
"742 601 OFFCURVE",
"782 574 OFFCURVE",
"798 574 QCURVE SMOOTH",
"820 574 OFFCURVE",
"846 603 QCURVE SMOOTH",
"862 620 OFFCURVE",
"862 633 QCURVE SMOOTH",
"862 639 OFFCURVE",
"856 639 QCURVE SMOOTH",
"854 639 OFFCURVE",
"850 633 QCURVE",
"838 603 OFFCURVE",
"815 603 QCURVE SMOOTH",
"798 603 OFFCURVE",
"770 623 QCURVE SMOOTH",
"752 636 OFFCURVE",
"735 636 QCURVE SMOOTH",
"715 636 OFFCURVE",
"687 607 QCURVE SMOOTH",
"672 592 OFFCURVE",
"672 576 QCURVE SMOOTH",
"672 571 OFFCURVE",
"676 571 QCURVE",
"676 571 LINE"
);
}
);
};
layerId = "A6F4F1CF-B738-4D99-83C7-A0DEF7C73335";
paths = (
{
closed = 1;
nodes = (
"672 575 LINE",
"669 561 OFFCURVE",
"680 557 OFFCURVE",
"684 570 CURVE SMOOTH",
"689 585 OFFCURVE",
"701 598 OFFCURVE",
"720 598 CURVE SMOOTH",
"744 598 OFFCURVE",
"767 565 OFFCURVE",
"800 565 CURVE SMOOTH",
"826 565 OFFCURVE",
"859 605 OFFCURVE",
"862 621 CURVE SMOOTH",
"864 630 OFFCURVE",
"855 634 OFFCURVE",
"851 625 CURVE SMOOTH",
"847 616 OFFCURVE",
"835 594 OFFCURVE",
"815 594 CURVE SMOOTH",
"790 594 OFFCURVE",
"763 627 OFFCURVE",
"737 627 CURVE SMOOTH",
"707 627 OFFCURVE",
"675 589 OFFCURVE",
"672 575 CURVE"
);
},
{
closed = 1;
nodes = (
"9 -19 LINE",
"124 -19 OFFCURVE",
"247 119 OFFCURVE",
"371 237 CURVE SMOOTH",
"504 363 OFFCURVE",
"634 498 OFFCURVE",
"728 513 CURVE SMOOTH",
"748 516 OFFCURVE",
"749 523 OFFCURVE",
"735 523 CURVE SMOOTH",
"648 523 OFFCURVE",
"503 380 OFFCURVE",
"362 246 CURVE SMOOTH",
"231 122 OFFCURVE",
"114 -8 OFFCURVE",
"10 -8 CURVE SMOOTH",
"-23 -8 OFFCURVE",
"-55 1 OFFCURVE",
"-55 37 CURVE",
"-55 37 OFFCURVE",
"-46 33 OFFCURVE",
"-37 33 CURVE SMOOTH",
"-27 33 OFFCURVE",
"-15 38 OFFCURVE",
"-15 51 CURVE SMOOTH",
"-15 66 OFFCURVE",
"-25 69 OFFCURVE",
"-35 69 CURVE SMOOTH",
"-52 69 OFFCURVE",
"-69 57 OFFCURVE",
"-70 40 CURVE SMOOTH",
"-71 26 OFFCURVE",
"-68 -19 OFFCURVE",
"9 -19 CURVE"
);
},
{
closed = 1;
nodes = (
"317 26 LINE",
"324 28 OFFCURVE",
"346 77 OFFCURVE",
"346 124 CURVE SMOOTH",
"346 179 OFFCURVE",
"302 317 OFFCURVE",
"175 317 CURVE SMOOTH",
"99 317 OFFCURVE",
"59 269 OFFCURVE",
"59 223 CURVE SMOOTH",
"59 118 OFFCURVE",
"174 59 OFFCURVE",
"308 59 CURVE SMOOTH",
"480 59 OFFCURVE",
"613 168 OFFCURVE",
"613 258 CURVE SMOOTH",
"613 263 OFFCURVE",
"608 276 OFFCURVE",
"601 256 CURVE SMOOTH",
"567 161 OFFCURVE",
"453 69 OFFCURVE",
"298 69 CURVE SMOOTH",
"155 69 OFFCURVE",
"84 142 OFFCURVE",
"84 221 CURVE SMOOTH",
"84 256 OFFCURVE",
"117 306 OFFCURVE",
"175 306 CURVE SMOOTH",
"293 306 OFFCURVE",
"334 179 OFFCURVE",
"334 113 CURVE SMOOTH",
"334 75 OFFCURVE",
"305 37 OFFCURVE",
"299 28 CURVE SMOOTH",
"295 21 OFFCURVE",
"309 23 OFFCURVE",
"317 26 CURVE"
);
},
{
closed = 1;
nodes = (
"258 -17 LINE",
"262 -17 OFFCURVE",
"281 -14 OFFCURVE",
"293 -14 CURVE SMOOTH",
"305 -14 OFFCURVE",
"320 -16 OFFCURVE",
"325 -17 CURVE SMOOTH",
"329 -17 OFFCURVE",
"711 501 OFFCURVE",
"732 513 CURVE",
"740 519 OFFCURVE",
"732 522 OFFCURVE",
"725 520 CURVE SMOOTH",
"685 513 OFFCURVE",
"264 -11 OFFCURVE",
"258 -17 CURVE"
);
}
);
width = 604;
},
{
layerId = "A92E3ADA-722A-4108-B621-F991B1803EEA";
paths = (
{
closed = 1;
nodes = (
"672 575 LINE",
"669 561 OFFCURVE",
"680 557 OFFCURVE",
"684 570 CURVE SMOOTH",
"689 585 OFFCURVE",
"708 605 OFFCURVE",
"732 605 CURVE SMOOTH",
"756 605 OFFCURVE",
"772 570 OFFCURVE",
"805 570 CURVE SMOOTH",
"831 570 OFFCURVE",
"859 605 OFFCURVE",
"862 621 CURVE SMOOTH",
"864 630 OFFCURVE",
"854 635 OFFCURVE",
"851 625 CURVE SMOOTH",
"847 609 OFFCURVE",
"825 581 OFFCURVE",
"805 581 CURVE SMOOTH",
"780 581 OFFCURVE",
"762 616 OFFCURVE",
"732 616 CURVE SMOOTH",
"702 616 OFFCURVE",
"675 589 OFFCURVE",
"672 575 CURVE"
);
},
{
closed = 1;
nodes = (
"9 -19 LINE",
"125 -19 OFFCURVE",
"247 119 OFFCURVE",
"371 237 CURVE SMOOTH",
"504 363 OFFCURVE",
"634 498 OFFCURVE",
"728 513 CURVE SMOOTH",
"748 516 OFFCURVE",
"749 523 OFFCURVE",
"735 523 CURVE SMOOTH",
"648 523 OFFCURVE",
"503 380 OFFCURVE",
"362 246 CURVE SMOOTH",
"232 122 OFFCURVE",
"115 -8 OFFCURVE",
"10 -8 CURVE SMOOTH",
"-23 -8 OFFCURVE",
"-55 1 OFFCURVE",
"-55 37 CURVE",
"-55 37 OFFCURVE",
"-46 33 OFFCURVE",
"-37 33 CURVE SMOOTH",
"-27 33 OFFCURVE",
"-15 39 OFFCURVE",
"-15 51 CURVE SMOOTH",
"-15 66 OFFCURVE",
"-25 69 OFFCURVE",
"-35 69 CURVE SMOOTH",
"-52 69 OFFCURVE",
"-69 57 OFFCURVE",
"-70 40 CURVE SMOOTH",
"-71 26 OFFCURVE",
"-68 -19 OFFCURVE",
"9 -19 CURVE"
);
},
{
closed = 1;
nodes = (
"317 26 LINE",
"319 27 OFFCURVE",
"346 68 OFFCURVE",
"346 124 CURVE SMOOTH",
"346 179 OFFCURVE",
"302 317 OFFCURVE",
"175 317 CURVE SMOOTH",
"99 317 OFFCURVE",
"59 269 OFFCURVE",
"59 223 CURVE SMOOTH",
"59 118 OFFCURVE",
"174 59 OFFCURVE",
"308 59 CURVE SMOOTH",
"480 59 OFFCURVE",
"613 168 OFFCURVE",
"613 258 CURVE SMOOTH",
"613 263 OFFCURVE",
"602 276 OFFCURVE",
"601 256 CURVE SMOOTH",
"594 169 OFFCURVE",
"473 69 OFFCURVE",
"298 69 CURVE SMOOTH",
"155 69 OFFCURVE",
"72 141 OFFCURVE",
"72 223 CURVE SMOOTH",
"72 263 OFFCURVE",
"106 308 OFFCURVE",
"175 308 CURVE SMOOTH",
"297 308 OFFCURVE",
"334 174 OFFCURVE",
"334 122 CURVE SMOOTH",
"334 70 OFFCURVE",
"317 44 OFFCURVE",
"302 27 CURVE SMOOTH",
"297 20 OFFCURVE",
"308 23 OFFCURVE",
"317 26 CURVE"
);
},
{
closed = 1;
nodes = (
"265 -17 LINE",
"268 -17 OFFCURVE",
"271 -15 OFFCURVE",
"278 -15 CURVE SMOOTH",
"282 -15 OFFCURVE",
"280 -16 OFFCURVE",
"285 -17 CURVE",
"279 -17 OFFCURVE",
"687 484 OFFCURVE",
"732 513 CURVE SMOOTH",
"740 519 OFFCURVE",
"732 522 OFFCURVE",
"725 520 CURVE SMOOTH",
"694 513 OFFCURVE",
"271 -11 OFFCURVE",
"265 -17 CURVE"
);
}
);
width = 604;
}
);
note = Atilde;
unicode = 00C3;
},
{
glyphname = AE;
lastChange = "2020-12-18 19:02:38 +0000";
layers = (
{
background = {
paths = (
{
closed = 1;
nodes = (
"255 1 LINE",
"265 3 LINE SMOOTH",
"270 4 OFFCURVE",
"282 4 OFFCURVE",
"317 1 QCURVE",
"406 119 LINE",
"405 109 OFFCURVE",
"405 99 QCURVE SMOOTH",
"405 64 OFFCURVE",
"432 36 QCURVE SMOOTH",
"459 8 OFFCURVE",
"504 1 QCURVE",
"502 -8 OFFCURVE",
"502 -51 OFFCURVE",
"519 -91 OFFCURVE",
"538 -109 OFFCURVE",
"542 -109 QCURVE SMOOTH",
"547 -109 OFFCURVE",
"547 -105 QCURVE SMOOTH",
"547 -103 OFFCURVE",
"529 -89 OFFCURVE",
"513 -48 OFFCURVE",
"513 -9 OFFCURVE",
"514 -1 QCURVE",
"522 -1 OFFCURVE",
"532 -1 QCURVE SMOOTH",
"608 -1 OFFCURVE",
"670 46 QCURVE SMOOTH",
"698 67 OFFCURVE",
"730 121 OFFCURVE",
"730 170 OFFCURVE",
"705 196 OFFCURVE",
"678 196 QCURVE SMOOTH",
"605 196 OFFCURVE",
"552 123 QCURVE SMOOTH",
"515 72 OFFCURVE",
"505 12 QCURVE",
"471 18 OFFCURVE",
"434 57 OFFCURVE",
"434 121 OFFCURVE",
"471 166 QCURVE SMOOTH",
"508 211 OFFCURVE",
"556 243 QCURVE SMOOTH",
"608 277 OFFCURVE",
"654 277 QCURVE SMOOTH",
"656 277 LINE",
"675 238 OFFCURVE",
"715 238 QCURVE SMOOTH",
"734 238 OFFCURVE",
"734 262 OFFCURVE",
"705 282 OFFCURVE",
"675 287 QCURVE",
"675 295 LINE SMOOTH",
"675 316 OFFCURVE",
"685 342 QCURVE SMOOTH",
"706 398 OFFCURVE",
"759 449 QCURVE SMOOTH",
"834 522 OFFCURVE",
"900 522 QCURVE SMOOTH",
"928 522 OFFCURVE",
"956 496 OFFCURVE",
"956 458 OFFCURVE",
"947 439 QCURVE SMOOTH",
"928 400 OFFCURVE",
"889 367 QCURVE SMOOTH",
"825 313 OFFCURVE",
"771 313 QCURVE SMOOTH",
"738 313 OFFCURVE",
"739 360 OFFCURVE",
"763 391 QCURVE SMOOTH",
"774 405 OFFCURVE",
"805 432 OFFCURVE",
"841 451 OFFCURVE",
"881 463 OFFCURVE",
"913 463 OFFCURVE",
"913 473 OFFCURVE",
"904 473 QCURVE SMOOTH",
"860 474 OFFCURVE",
"815 448 QCURVE SMOOTH",
"796 437 OFFCURVE",
"763 410 OFFCURVE",
"739 380 OFFCURVE",
"725 350 OFFCURVE",
"725 323 OFFCURVE",
"748 302 OFFCURVE",
"770 302 QCURVE SMOOTH",
"822 302 OFFCURVE",
"870 330 QCURVE SMOOTH",
"892 343 OFFCURVE",
"930 378 OFFCURVE",
"958 416 OFFCURVE",
"972 457 OFFCURVE",
"972 486 OFFCURVE",
"968 496 QCURVE SMOOTH",
"954 532 OFFCURVE",
"892 533 QCURVE SMOOTH",
"837 534 OFFCURVE",
"778 499 QCURVE SMOOTH",
"753 484 OFFCURVE",
"703 443 OFFCURVE",
"668 397 OFFCURVE",
"647 347 OFFCURVE",
"647 305 OFFCURVE",
"651 289 QCURVE",
"642 291 OFFCURVE",
"629 291 QCURVE SMOOTH",
"571 291 OFFCURVE",
"517 263 QCURVE",
"591 359 LINE",
"647 430 LINE",
"688 479 LINE SMOOTH",
"704 499 OFFCURVE",
"727 523 OFFCURVE",
"740 533 OFFCURVE",
"752 538 OFFCURVE",
"752 540 QCURVE SMOOTH",
"752 543 OFFCURVE",
"745 543 QCURVE SMOOTH",
"685 543 OFFCURVE",
"557 438 QCURVE",
"495 384 LINE SMOOTH",
"456 350 OFFCURVE",
"303 203 QCURVE",
"292 226 OFFCURVE",
"276 245 QCURVE SMOOTH",
"221 311 OFFCURVE",
"146 309 QCURVE SMOOTH",
"100 308 OFFCURVE",
"71 279 QCURVE SMOOTH",
"58 266 OFFCURVE",
"45 235 OFFCURVE",
"45 196 OFFCURVE",
"53 176 QCURVE SMOOTH",
"79 112 OFFCURVE",
"162 77 QCURVE",
"154 71 OFFCURVE",
"146 65 QCURVE SMOOTH",
"131 53 LINE SMOOTH",
"74 8 OFFCURVE",
"28 13 QCURVE SMOOTH",
"8 15 OFFCURVE",
"-6 16 QCURVE SMOOTH",
"-46 19 OFFCURVE",
"-52 59 QCURVE",
"-48 57 OFFCURVE",
"-38 57 QCURVE SMOOTH",
"-33 57 OFFCURVE",
"-22 67 OFFCURVE",
"-22 74 QCURVE SMOOTH",
"-22 83 OFFCURVE",
"-35 96 OFFCURVE",
"-55 96 OFFCURVE",
"-70 79 OFFCURVE",
"-70 69 QCURVE SMOOTH",
"-70 43 OFFCURVE",
"-47 23 QCURVE SMOOTH",
"-21 1 OFFCURVE",
"18 0 QCURVE SMOOTH",
"71 0 OFFCURVE",
"118 30 QCURVE SMOOTH",
"143 46 OFFCURVE",
"175 72 QCURVE",
"232 53 OFFCURVE",
"297 53 QCURVE",
"297 53 LINE"
);
},
{
closed = 1;
nodes = (
"462 338 LINE",
"542 411 LINE SMOOTH",
"578 443 OFFCURVE",
"635 486 OFFCURVE",
"677 511 OFFCURVE",
"688 515 QCURVE SMOOTH",
"713 524 LINE",
"658 469 LINE SMOOTH",
"617 430 OFFCURVE",
"475 263 QCURVE SMOOTH",
"326 87 LINE",
"328 98 OFFCURVE",
"328 108 QCURVE SMOOTH",
"328 149 OFFCURVE",
"309 192 QCURVE",
"309 192 LINE"
);
},
{
closed = 1;
nodes = (
"127 107 OFFCURVE",
"100 140 QCURVE SMOOTH",
"87 156 OFFCURVE",
"72 193 OFFCURVE",
"72 232 OFFCURVE",
"77 246 QCURVE SMOOTH",
"95 295 OFFCURVE",
"151 296 QCURVE SMOOTH",
"192 297 OFFCURVE",
"232 268 QCURVE SMOOTH",
"273 239 OFFCURVE",
"295 195 QCURVE",
"249 152 OFFCURVE",
"176 88 QCURVE",
"176 88 LINE"
);
},
{
closed = 1;
nodes = (
"696 273 OFFCURVE",
"718 259 OFFCURVE",
"718 249 OFFCURVE",
"713 249 QCURVE SMOOTH",
"685 249 OFFCURVE",
"678 276 QCURVE",
"678 276 LINE"
);
},
{
closed = 1;
nodes = (
"522 39 OFFCURVE",
"538 71 QCURVE SMOOTH",
"562 119 OFFCURVE",
"608 154 QCURVE SMOOTH",
"628 169 OFFCURVE",
"666 186 OFFCURVE",
"700 186 OFFCURVE",
"717 172 OFFCURVE",
"718 136 OFFCURVE",
"685 101 QCURVE SMOOTH",
"670 85 OFFCURVE",
"634 51 OFFCURVE",
"593 26 OFFCURVE",
"551 9 OFFCURVE",
"528 9 OFFCURVE",
"520 9 OFFCURVE",
"516 10 QCURVE",
"516 10 LINE"
);
},
{
closed = 1;
nodes = (
"241 65 OFFCURVE",
"189 83 QCURVE",
"218 107 OFFCURVE",
"300 183 QCURVE",
"315 148 OFFCURVE",
"315 107 QCURVE SMOOTH",
"315 86 OFFCURVE",
"308 65 OFFCURVE",
"307 65 QCURVE",
"307 65 LINE"
);
}
);
};
layerId = "A6F4F1CF-B738-4D99-83C7-A0DEF7C73335";
paths = (
{
closed = 1;
nodes = (
"9 -10 LINE",
"124 -10 OFFCURVE",
"247 128 OFFCURVE",
"371 246 CURVE SMOOTH",
"504 372 OFFCURVE",
"634 508 OFFCURVE",
"728 522 CURVE SMOOTH",
"748 525 OFFCURVE",
"749 532 OFFCURVE",
"735 532 CURVE SMOOTH",
"648 532 OFFCURVE",
"503 389 OFFCURVE",
"362 255 CURVE SMOOTH",
"231 131 OFFCURVE",
"114 1 OFFCURVE",
"10 1 CURVE SMOOTH",
"-23 1 OFFCURVE",
"-55 10 OFFCURVE",
"-55 46 CURVE",
"-55 46 OFFCURVE",
"-46 42 OFFCURVE",
"-37 42 CURVE SMOOTH",
"-27 42 OFFCURVE",
"-15 47 OFFCURVE",
"-15 60 CURVE SMOOTH",
"-15 75 OFFCURVE",
"-25 78 OFFCURVE",
"-35 78 CURVE SMOOTH",
"-52 78 OFFCURVE",
"-69 66 OFFCURVE",
"-70 49 CURVE SMOOTH",
"-71 35 OFFCURVE",
"-68 -10 OFFCURVE",
"9 -10 CURVE"
);
},
{
closed = 1;
nodes = (
"317 35 LINE",
"324 38 OFFCURVE",
"328 52 OFFCURVE",
"328 99 CURVE SMOOTH",
"328 189 OFFCURVE",
"258 300 OFFCURVE",
"151 300 CURVE SMOOTH",
"85 300 OFFCURVE",
"46 260 OFFCURVE",
"46 214 CURVE SMOOTH",
"46 123 OFFCURVE",
"139 44 OFFCURVE",
"294 44 CURVE SMOOTH",
"329 44 OFFCURVE",
"351 49 OFFCURVE",
"351 54 CURVE SMOOTH",
"351 60 OFFCURVE",
"348 56 OFFCURVE",
"304 56 CURVE SMOOTH",
"146 56 OFFCURVE",
"72 133 OFFCURVE",
"72 212 CURVE SMOOTH",
"72 247 OFFCURVE",
"100 287 OFFCURVE",
"151 287 CURVE SMOOTH",
"248 287 OFFCURVE",
"316 183 OFFCURVE",
"316 88 CURVE SMOOTH",
"316 50 OFFCURVE",
"304 46 OFFCURVE",
"299 37 CURVE SMOOTH",
"295 30 OFFCURVE",
"309 32 OFFCURVE",
"317 35 CURVE"
);
},
{
closed = 1;
nodes = (
"258 -8 LINE",
"262 -8 OFFCURVE",
"281 -5 OFFCURVE",
"293 -5 CURVE SMOOTH",
"305 -5 OFFCURVE",
"320 -7 OFFCURVE",
"325 -8 CURVE SMOOTH",
"329 -9 OFFCURVE",
"711 510 OFFCURVE",
"732 522 CURVE SMOOTH",
"741 527 OFFCURVE",
"732 531 OFFCURVE",
"725 529 CURVE SMOOTH",
"686 518 OFFCURVE",
"264 -2 OFFCURVE",
"258 -8 CURVE"
);
},
{
closed = 1;
nodes = (
"535 -114 LINE",
"543 -120 OFFCURVE",
"544 -113 OFFCURVE",
"541 -109 CURVE SMOOTH",
"527 -90 OFFCURVE",
"514 -80 OFFCURVE",
"514 -19 CURVE SMOOTH",
"514 65 OFFCURVE",
"610 177 OFFCURVE",
"685 177 CURVE SMOOTH",
"707 177 OFFCURVE",
"717 165 OFFCURVE",
"717 146 CURVE SMOOTH",
"717 105 OFFCURVE",
"606 1 OFFCURVE",
"541 1 CURVE SMOOTH",
"466 1 OFFCURVE",
"434 33 OFFCURVE",
"434 77 CURVE SMOOTH",
"434 132 OFFCURVE",
"543 268 OFFCURVE",
"662 268 CURVE SMOOTH",
"694 268 OFFCURVE",
"718 253 OFFCURVE",
"718 245 CURVE SMOOTH",
"718 240 OFFCURVE",
"713 240 OFFCURVE",
"709 240 CURVE SMOOTH",
"688 240 OFFCURVE",
"676 256 OFFCURVE",
"676 291 CURVE SMOOTH",
"676 366 OFFCURVE",
"797 513 OFFCURVE",
"900 513 CURVE SMOOTH",
"938 513 OFFCURVE",
"956 494 OFFCURVE",
"956 463 CURVE SMOOTH",
"956 398 OFFCURVE",
"843 304 OFFCURVE",
"771 304 CURVE SMOOTH",
"748 304 OFFCURVE",
"739 313 OFFCURVE",
"739 330 CURVE SMOOTH",
"739 374 OFFCURVE",
"816 454 OFFCURVE",
"905 454 CURVE SMOOTH",
"918 454 OFFCURVE",
"916 464 OFFCURVE",
"904 464 CURVE SMOOTH",
"808 464 OFFCURVE",
"725 376 OFFCURVE",
"725 331 CURVE SMOOTH",
"725 311 OFFCURVE",
"734 293 OFFCURVE",
"778 293 CURVE SMOOTH",
"855 293 OFFCURVE",
"972 377 OFFCURVE",
"972 460 CURVE SMOOTH",
"972 509 OFFCURVE",
"940 524 OFFCURVE",
"890 524 CURVE SMOOTH",
"771 524 OFFCURVE",
"647 398 OFFCURVE",
"647 318 CURVE SMOOTH",
"647 262 OFFCURVE",
"673 229 OFFCURVE",
"715 229 CURVE SMOOTH",
"724 229 OFFCURVE",
"734 231 OFFCURVE",
"734 240 CURVE SMOOTH",
"734 272 OFFCURVE",
"671 282 OFFCURVE",
"631 282 CURVE SMOOTH",
"516 282 OFFCURVE",
"404 193 OFFCURVE",
"404 105 CURVE SMOOTH",
"404 27 OFFCURVE",
"458 -10 OFFCURVE",
"532 -10 CURVE SMOOTH",
"641 -10 OFFCURVE",
"730 69 OFFCURVE",
"730 137 CURVE SMOOTH",
"730 170 OFFCURVE",
"713 187 OFFCURVE",
"680 187 CURVE SMOOTH",
"584 187 OFFCURVE",
"502 68 OFFCURVE",
"502 -17 CURVE SMOOTH",
"502 -85 OFFCURVE",
"523 -105 OFFCURVE",
"535 -114 CURVE"
);
}
);
width = 835;
},
{
layerId = "A92E3ADA-722A-4108-B621-F991B1803EEA";
paths = (
{
closed = 1;
nodes = (
"9 -10 LINE",
"124 -10 OFFCURVE",
"247 128 OFFCURVE",
"371 246 CURVE SMOOTH",
"504 372 OFFCURVE",
"634 508 OFFCURVE",
"728 522 CURVE SMOOTH",
"748 525 OFFCURVE",
"749 532 OFFCURVE",
"735 532 CURVE SMOOTH",
"648 532 OFFCURVE",
"503 389 OFFCURVE",
"362 255 CURVE SMOOTH",
"231 131 OFFCURVE",
"114 1 OFFCURVE",
"10 1 CURVE SMOOTH",
"-23 1 OFFCURVE",
"-55 10 OFFCURVE",
"-55 46 CURVE",
"-55 46 OFFCURVE",
"-46 42 OFFCURVE",
"-37 42 CURVE SMOOTH",
"-27 42 OFFCURVE",
"-15 47 OFFCURVE",
"-15 60 CURVE SMOOTH",
"-15 75 OFFCURVE",
"-25 78 OFFCURVE",
"-35 78 CURVE SMOOTH",
"-52 78 OFFCURVE",
"-69 66 OFFCURVE",
"-70 49 CURVE SMOOTH",
"-71 35 OFFCURVE",
"-68 -10 OFFCURVE",
"9 -10 CURVE"
);
},
{
closed = 1;
nodes = (
"317 35 LINE",
"324 38 OFFCURVE",
"328 52 OFFCURVE",
"328 99 CURVE SMOOTH",
"328 189 OFFCURVE",
"258 300 OFFCURVE",
"151 300 CURVE SMOOTH",
"85 300 OFFCURVE",
"46 260 OFFCURVE",
"46 214 CURVE SMOOTH",
"46 123 OFFCURVE",
"139 44 OFFCURVE",
"294 44 CURVE SMOOTH",
"329 44 OFFCURVE",
"328 47 OFFCURVE",
"328 52 CURVE SMOOTH",
"328 58 OFFCURVE",
"321 53 OFFCURVE",
"304 53 CURVE SMOOTH",
"146 53 OFFCURVE",
"59 129 OFFCURVE",
"59 214 CURVE SMOOTH",
"59 257 OFFCURVE",
"95 291 OFFCURVE",
"151 291 CURVE SMOOTH",
"248 291 OFFCURVE",
"316 184 OFFCURVE",
"316 98 CURVE SMOOTH",
"316 60 OFFCURVE",
"309 46 OFFCURVE",
"304 37 CURVE SMOOTH",
"300 30 OFFCURVE",
"309 32 OFFCURVE",
"317 35 CURVE"
);
},
{
closed = 1;
nodes = (
"266 -8 LINE",
"270 -8 OFFCURVE",
"272 -4 OFFCURVE",
"278 -4 CURVE SMOOTH",
"285 -4 OFFCURVE",
"285 -8 OFFCURVE",
"290 -9 CURVE",
"282 -7 OFFCURVE",
"693 503 OFFCURVE",
"732 522 CURVE SMOOTH",
"741 526 OFFCURVE",
"732 531 OFFCURVE",
"725 529 CURVE SMOOTH",
"686 518 OFFCURVE",
"272 -2 OFFCURVE",
"266 -8 CURVE"
);
},
{
closed = 1;
nodes = (
"535 -114 LINE",
"543 -120 OFFCURVE",
"544 -113 OFFCURVE",
"541 -109 CURVE SMOOTH",
"527 -90 OFFCURVE",
"514 -80 OFFCURVE",
"514 -19 CURVE SMOOTH",
"514 65 OFFCURVE",
"596 178 OFFCURVE",
"680 178 CURVE SMOOTH",
"708 178 OFFCURVE",
"717 156 OFFCURVE",
"717 137 CURVE SMOOTH",
"717 76 OFFCURVE",
"627 0 OFFCURVE",
"532 0 CURVE SMOOTH",
"464 0 OFFCURVE",
"418 38 OFFCURVE",
"418 105 CURVE SMOOTH",
"418 175 OFFCURVE",
"512 272 OFFCURVE",
"631 272 CURVE SMOOTH",
"663 272 OFFCURVE",
"721 266 OFFCURVE",
"721 244 CURVE SMOOTH",
"721 239 OFFCURVE",
"713 240 OFFCURVE",
"709 240 CURVE SMOOTH",
"680 240 OFFCURVE",
"661 269 OFFCURVE",
"661 318 CURVE SMOOTH",
"661 393 OFFCURVE",
"778 513 OFFCURVE",
"890 513 CURVE SMOOTH",
"936 513 OFFCURVE",
"960 499 OFFCURVE",
"960 460 CURVE SMOOTH",
"960 389 OFFCURVE",
"850 304 OFFCURVE",
"778 304 CURVE SMOOTH",
"755 304 OFFCURVE",
"739 313 OFFCURVE",
"739 330 CURVE SMOOTH",
"739 374 OFFCURVE",
"816 454 OFFCURVE",
"905 454 CURVE SMOOTH",
"918 454 OFFCURVE",
"916 464 OFFCURVE",
"904 464 CURVE SMOOTH",
"808 464 OFFCURVE",
"725 376 OFFCURVE",
"725 331 CURVE SMOOTH",
"725 311 OFFCURVE",
"734 293 OFFCURVE",
"778 293 CURVE SMOOTH",
"855 293 OFFCURVE",
"972 377 OFFCURVE",
"972 460 CURVE SMOOTH",
"972 506 OFFCURVE",
"940 524 OFFCURVE",
"890 524 CURVE SMOOTH",
"771 524 OFFCURVE",
"647 398 OFFCURVE",
"647 318 CURVE SMOOTH",
"647 262 OFFCURVE",
"673 229 OFFCURVE",
"715 229 CURVE SMOOTH",
"724 229 OFFCURVE",
"734 231 OFFCURVE",
"734 240 CURVE SMOOTH",
"734 272 OFFCURVE",
"671 282 OFFCURVE",
"631 282 CURVE SMOOTH",
"516 282 OFFCURVE",
"404 193 OFFCURVE",
"404 105 CURVE SMOOTH",
"404 27 OFFCURVE",
"458 -10 OFFCURVE",
"532 -10 CURVE SMOOTH",
"641 -10 OFFCURVE",
"730 69 OFFCURVE",
"730 137 CURVE SMOOTH",
"730 170 OFFCURVE",
"713 187 OFFCURVE",
"680 187 CURVE SMOOTH",
"584 187 OFFCURVE",
"502 68 OFFCURVE",
"502 -17 CURVE SMOOTH",
"502 -85 OFFCURVE",
"523 -105 OFFCURVE",
"535 -114 CURVE"
);
}
);
width = 835;
}
);
note = AE;
unicode = 00C6;
},
{
glyphname = B;
lastChange = "2020-12-18 19:02:38 +0000";
layers = (
{
background = {
paths = (
{
closed = 1;
nodes = (
"503 230 OFFCURVE",
"503 186 OFFCURVE",
"495 160 QCURVE SMOOTH",
"472 81 OFFCURVE",
"406 37 QCURVE SMOOTH",
"364 11 OFFCURVE",
"328 10 QCURVE SMOOTH",
"275 9 OFFCURVE",
"275 41 QCURVE SMOOTH",
"276 67 OFFCURVE",
"305 98 QCURVE SMOOTH",
"319 113 OFFCURVE",
"354 138 OFFCURVE",
"395 158 OFFCURVE",
"438 170 OFFCURVE",
"470 170 OFFCURVE",
"470 180 OFFCURVE",
"461 180 QCURVE SMOOTH",
"417 180 OFFCURVE",
"368 156 QCURVE SMOOTH",
"345 145 OFFCURVE",
"307 117 OFFCURVE",
"279 86 OFFCURVE",
"263 54 OFFCURVE",
"263 24 OFFCURVE",
"277 14 QCURVE SMOOTH",
"284 8 OFFCURVE",
"308 -1 OFFCURVE",
"354 -1 OFFCURVE",
"381 5 QCURVE SMOOTH",
"465 25 OFFCURVE",
"512 86 QCURVE SMOOTH",
"544 127 OFFCURVE",
"544 169 QCURVE SMOOTH",
"545 218 OFFCURVE",
"514 246 QCURVE",
"577 271 OFFCURVE",
"619 317 QCURVE SMOOTH",
"665 367 OFFCURVE",
"665 417 QCURVE SMOOTH",
"665 467 OFFCURVE",
"629 501 QCURVE",
"664 518 OFFCURVE",
"701 527 QCURVE SMOOTH",
"714 531 OFFCURVE",
"728 532 OFFCURVE",
"728 534 QCURVE SMOOTH",
"728 538 OFFCURVE",
"716 538 QCURVE SMOOTH",
"678 538 OFFCURVE",
"619 511 QCURVE",
"563 553 OFFCURVE",
"368 553 OFFCURVE",
"277 511 QCURVE SMOOTH",
"235 493 OFFCURVE",
"162 440 OFFCURVE",
"110 380 OFFCURVE",
"80 315 OFFCURVE",
"80 271 OFFCURVE",
"85 261 QCURVE SMOOTH",
"102 231 OFFCURVE",
"141 231 QCURVE SMOOTH",
"201 228 OFFCURVE",
"261 264 QCURVE SMOOTH",
"322 301 OFFCURVE",
"361 355 QCURVE SMOOTH",
"401 416 OFFCURVE",
"401 488 QCURVE SMOOTH",
"401 497 OFFCURVE",
"394 497 OFFCURVE",
"391 484 QCURVE SMOOTH",
"378 421 OFFCURVE",
"338 361 QCURVE SMOOTH",
"319 333 OFFCURVE",
"269 289 OFFCURVE",
"218 257 OFFCURVE",
"166 239 OFFCURVE",
"133 239 OFFCURVE",
"124 242 QCURVE SMOOTH",
"91 251 OFFCURVE",
"91 284 QCURVE SMOOTH",
"91 319 OFFCURVE",
"128 367 QCURVE SMOOTH",
"165 415 OFFCURVE",
"221 458 QCURVE SMOOTH",
"335 547 OFFCURVE",
"454 545 QCURVE SMOOTH",
"557 543 OFFCURVE",
"601 501 QCURVE",
"483 434 OFFCURVE",
"345 284 QCURVE SMOOTH",
"250 180 LINE",
"179 105 LINE SMOOTH",
"149 74 OFFCURVE",
"103 37 OFFCURVE",
"68 16 OFFCURVE",
"37 9 OFFCURVE",
"-12 9 OFFCURVE",
"-49 33 OFFCURVE",
"-49 52 QCURVE SMOOTH",
"-49 54 LINE",
"-44 51 OFFCURVE",
"-22 51 OFFCURVE",
"-9 61 OFFCURVE",
"-9 78 OFFCURVE",
"-22 87 OFFCURVE",
"-34 87 OFFCURVE",
"-40 85 QCURVE SMOOTH",
"-65 81 OFFCURVE",
"-64 54 QCURVE SMOOTH",
"-63 31 OFFCURVE",
"-40 16 QCURVE SMOOTH",
"-16 -1 OFFCURVE",
"18 -1 QCURVE SMOOTH",
"68 -1 OFFCURVE",
"102 12 QCURVE SMOOTH",
"164 37 OFFCURVE",
"299 154 OFFCURVE",
"431 330 OFFCURVE",
"489 392 QCURVE SMOOTH",
"522 431 OFFCURVE",
"573 467 QCURVE SMOOTH",
"591 479 LINE SMOOTH",
"601 486 OFFCURVE",
"609 491 QCURVE",
"625 470 OFFCURVE",
"625 411 OFFCURVE",
"614 381 QCURVE SMOOTH",
"582 301 OFFCURVE",
"495 257 QCURVE",
"474 268 OFFCURVE",
"436 268 OFFCURVE",
"413 264 OFFCURVE",
"395 257 OFFCURVE",
"385 248 OFFCURVE",
"385 237 OFFCURVE",
"403 226 OFFCURVE",
"458 226 OFFCURVE",
"497 239 QCURVE",
"497 239 LINE"
);
},
{
closed = 1;
nodes = (
"449 238 OFFCURVE",
"404 238 OFFCURVE",
"404 247 QCURVE SMOOTH",
"404 251 OFFCURVE",
"417 255 QCURVE SMOOTH",
"424 257 OFFCURVE",
"439 260 OFFCURVE",
"471 260 OFFCURVE",
"483 253 QCURVE",
"483 253 LINE"
);
}
);
};
layerId = "A6F4F1CF-B738-4D99-83C7-A0DEF7C73335";
paths = (
{
closed = 1;
nodes = (
"19 -10 LINE",
"146 -10 OFFCURVE",
"259 97 OFFCURVE",
"326 184 CURVE SMOOTH",
"477 381 OFFCURVE",
"575 496 OFFCURVE",
"721 523 CURVE SMOOTH",
"732 525 OFFCURVE",
"728 533 OFFCURVE",
"710 530 CURVE SMOOTH",
"555 505 OFFCURVE",
"429 358 OFFCURVE",
"320 249 CURVE SMOOTH",
"242 171 OFFCURVE",
"125 0 OFFCURVE",
"15 0 CURVE SMOOTH",
"-24 0 OFFCURVE",
"-49 21 OFFCURVE",
"-49 45 CURVE",
"-46 44 OFFCURVE",
"-42 42 OFFCURVE",
"-33 42 CURVE SMOOTH",
"-22 42 OFFCURVE",
"-9 47 OFFCURVE",
"-9 60 CURVE SMOOTH",
"-9 69 OFFCURVE",
"-15 78 OFFCURVE",
"-32 78 CURVE SMOOTH",
"-49 78 OFFCURVE",
"-64 68 OFFCURVE",
"-64 48 CURVE SMOOTH",
"-64 21 OFFCURVE",
"-38 -10 OFFCURVE",
"19 -10 CURVE"
);
},
{
closed = 1;
nodes = (
"339 -10 LINE",
"434 -10 OFFCURVE",
"544 73 OFFCURVE",
"544 154 CURVE SMOOTH",
"544 236 OFFCURVE",
"496 259 OFFCURVE",
"454 259 CURVE SMOOTH",
"416 259 OFFCURVE",
"385 248 OFFCURVE",
"385 235 CURVE SMOOTH",
"385 224 OFFCURVE",
"398 217 OFFCURVE",
"437 217 CURVE SMOOTH",
"510 217 OFFCURVE",
"665 301 OFFCURVE",
"665 407 CURVE SMOOTH",
"665 480 OFFCURVE",
"609 544 OFFCURVE",
"456 544 CURVE SMOOTH",
"254 544 OFFCURVE",
"80 386 OFFCURVE",
"80 284 CURVE SMOOTH",
"80 239 OFFCURVE",
"102 222 OFFCURVE",
"153 222 CURVE SMOOTH",
"271 222 OFFCURVE",
"409 354 OFFCURVE",
"401 478 CURVE SMOOTH",
"400 490 OFFCURVE",
"392 493 OFFCURVE",
"390 477 CURVE SMOOTH",
"376 349 OFFCURVE",
"237 230 OFFCURVE",
"149 230 CURVE SMOOTH",
"103 230 OFFCURVE",
"91 255 OFFCURVE",
"91 278 CURVE SMOOTH",
"91 351 OFFCURVE",
"262 536 OFFCURVE",
"454 536 CURVE SMOOTH",
"593 536 OFFCURVE",
"626 474 OFFCURVE",
"626 425 CURVE SMOOTH",
"626 324 OFFCURVE",
"506 229 OFFCURVE",
"430 229 CURVE SMOOTH",
"410 229 OFFCURVE",
"404 231 OFFCURVE",
"404 238 CURVE SMOOTH",
"404 244 OFFCURVE",
"424 251 OFFCURVE",
"455 251 CURVE SMOOTH",
"486 251 OFFCURVE",
"503 231 OFFCURVE",
"503 200 CURVE SMOOTH",
"503 95 OFFCURVE",
"405 1 OFFCURVE",
"326 1 CURVE SMOOTH",
"298 1 OFFCURVE",
"275 9 OFFCURVE",
"275 32 CURVE SMOOTH",
"275 94 OFFCURVE",
"392 162 OFFCURVE",
"462 162 CURVE SMOOTH",
"475 162 OFFCURVE",
"470 171 OFFCURVE",
"462 171 CURVE SMOOTH",
"387 173 OFFCURVE",
"263 98 OFFCURVE",
"263 32 CURVE SMOOTH",
"263 5 OFFCURVE",
"290 -10 OFFCURVE",
"339 -10 CURVE"
);
}
);
width = 632;
},
{
layerId = "A92E3ADA-722A-4108-B621-F991B1803EEA";
paths = (
{
closed = 1;
nodes = (
"19 -10 LINE",
"146 -10 OFFCURVE",
"268 139 OFFCURVE",
"334 226 CURVE SMOOTH",
"426 346 OFFCURVE",
"565 495 OFFCURVE",
"721 523 CURVE SMOOTH",
"732 525 OFFCURVE",
"728 533 OFFCURVE",
"710 530 CURVE SMOOTH",
"555 505 OFFCURVE",
"419 357 OFFCURVE",
"326 236 CURVE SMOOTH",
"254 142 OFFCURVE",
"136 0 OFFCURVE",
"15 0 CURVE SMOOTH",
"-24 0 OFFCURVE",
"-49 21 OFFCURVE",
"-49 45 CURVE",
"-46 44 OFFCURVE",
"-42 42 OFFCURVE",
"-33 42 CURVE SMOOTH",
"-22 42 OFFCURVE",
"-9 47 OFFCURVE",
"-9 60 CURVE SMOOTH",
"-9 69 OFFCURVE",
"-15 78 OFFCURVE",
"-32 78 CURVE SMOOTH",
"-49 78 OFFCURVE",
"-64 68 OFFCURVE",
"-64 48 CURVE SMOOTH",
"-64 21 OFFCURVE",
"-38 -10 OFFCURVE",
"19 -10 CURVE"
);
},
{
closed = 1;
nodes = (
"339 -10 LINE",
"434 -10 OFFCURVE",
"538 89 OFFCURVE",
"538 177 CURVE SMOOTH",
"538 230 OFFCURVE",
"496 259 OFFCURVE",
"454 259 CURVE SMOOTH",
"416 259 OFFCURVE",
"385 248 OFFCURVE",
"385 235 CURVE SMOOTH",
"385 224 OFFCURVE",
"398 217 OFFCURVE",
"437 217 CURVE SMOOTH",
"510 217 OFFCURVE",
"653 309 OFFCURVE",
"653 415 CURVE SMOOTH",
"653 473 OFFCURVE",
"609 544 OFFCURVE",
"456 544 CURVE SMOOTH",
"254 544 OFFCURVE",
"80 386 OFFCURVE",
"80 284 CURVE SMOOTH",
"80 239 OFFCURVE",
"102 222 OFFCURVE",
"153 222 CURVE SMOOTH",
"271 222 OFFCURVE",
"389 342 OFFCURVE",
"401 478 CURVE SMOOTH",
"402 490 OFFCURVE",
"392 493 OFFCURVE",
"390 477 CURVE SMOOTH",
"376 349 OFFCURVE",
"260 231 OFFCURVE",
"153 231 CURVE SMOOTH",
"107 231 OFFCURVE",
"92 248 OFFCURVE",
"92 284 CURVE SMOOTH",
"92 381 OFFCURVE",
"264 534 OFFCURVE",
"456 534 CURVE SMOOTH",
"602 534 OFFCURVE",
"639 464 OFFCURVE",
"639 415 CURVE SMOOTH",
"639 314 OFFCURVE",
"499 228 OFFCURVE",
"437 228 CURVE SMOOTH",
"417 228 OFFCURVE",
"399 229 OFFCURVE",
"399 236 CURVE SMOOTH",
"399 242 OFFCURVE",
"424 251 OFFCURVE",
"455 251 CURVE SMOOTH",
"486 251 OFFCURVE",
"524 226 OFFCURVE",
"524 177 CURVE SMOOTH",
"524 91 OFFCURVE",
"424 1 OFFCURVE",
"339 1 CURVE SMOOTH",
"303 1 OFFCURVE",
"275 14 OFFCURVE",
"275 32 CURVE SMOOTH",
"275 94 OFFCURVE",
"392 162 OFFCURVE",
"462 162 CURVE SMOOTH",
"475 162 OFFCURVE",
"470 171 OFFCURVE",
"462 171 CURVE SMOOTH",
"387 173 OFFCURVE",
"263 98 OFFCURVE",
"263 32 CURVE SMOOTH",
"263 5 OFFCURVE",
"290 -10 OFFCURVE",
"339 -10 CURVE"
);
}
);
width = 632;
}
);
note = B;
unicode = 0042;
},
{
glyphname = C;
lastChange = "2020-12-18 19:02:38 +0000";
layers = (
{
background = {
paths = (
{
closed = 1;
nodes = (
"461 539 OFFCURVE",
"341 469 QCURVE SMOOTH",
"226 402 OFFCURVE",
"145 302 QCURVE",
"109 311 OFFCURVE",
"87 333 QCURVE SMOOTH",
"78 342 OFFCURVE",
"67 366 OFFCURVE",
"67 401 OFFCURVE",
"79 424 QCURVE SMOOTH",
"101 466 OFFCURVE",
"153 503 QCURVE SMOOTH",
"232 559 OFFCURVE",
"315 557 QCURVE",
"343 556 LINE SMOOTH",
"348 556 OFFCURVE",
"348 559 QCURVE SMOOTH",
"348 565 OFFCURVE",
"317 565 QCURVE SMOOTH",
"250 566 OFFCURVE",
"186 538 QCURVE SMOOTH",
"156 525 OFFCURVE",
"106 491 OFFCURVE",
"70 453 OFFCURVE",
"51 413 OFFCURVE",
"51 376 OFFCURVE",
"56 359 QCURVE SMOOTH",
"71 307 OFFCURVE",
"138 293 QCURVE",
"56 188 OFFCURVE",
"56 99 QCURVE SMOOTH",
"56 76 OFFCURVE",
"63 59 QCURVE SMOOTH",
"83 10 OFFCURVE",
"138 2 QCURVE",
"139 -20 OFFCURVE",
"143 -39 QCURVE SMOOTH",
"156 -99 OFFCURVE",
"169 -99 QCURVE SMOOTH",
"173 -99 OFFCURVE",
"173 -97 QCURVE SMOOTH",
"173 -95 LINE SMOOTH",
"173 -95 OFFCURVE",
"173 -92 QCURVE SMOOTH",
"173 -59 OFFCURVE",
"149 1 QCURVE",
"151 0 OFFCURVE",
"153 0 QCURVE SMOOTH",
"156 0 LINE SMOOTH",
"229 0 OFFCURVE",
"296 41 QCURVE SMOOTH",
"327 60 OFFCURVE",
"378 106 OFFCURVE",
"413 157 OFFCURVE",
"433 208 OFFCURVE",
"433 254 OFFCURVE",
"399 283 OFFCURVE",
"338 283 OFFCURVE",
"310 273 QCURVE SMOOTH",
"254 253 OFFCURVE",
"209 200 QCURVE SMOOTH",
"138 117 OFFCURVE",
"138 13 QCURVE",
"82 24 OFFCURVE",
"82 83 QCURVE SMOOTH",
"82 158 OFFCURVE",
"201 289 QCURVE",
"282 293 OFFCURVE",
"376 330 QCURVE SMOOTH",
"467 366 OFFCURVE",
"530 417 QCURVE SMOOTH",
"595 470 OFFCURVE",
"596 511 QCURVE SMOOTH",
"597 539 OFFCURVE",
"559 539 QCURVE",
"559 539 LINE"
);
},
{
closed = 1;
nodes = (
"586 495 OFFCURVE",
"568 475 QCURVE SMOOTH",
"529 432 OFFCURVE",
"451 386 QCURVE SMOOTH",
"319 308 OFFCURVE",
"211 299 QCURVE",
"296 392 OFFCURVE",
"397 460 QCURVE SMOOTH",
"503 532 OFFCURVE",
"556 530 QCURVE SMOOTH",
"586 529 OFFCURVE",
"586 510 QCURVE",
"586 510 LINE"
);
},
{
closed = 1;
nodes = (
"149 11 LINE SMOOTH",
"150 81 OFFCURVE",
"185 143 QCURVE SMOOTH",
"202 173 OFFCURVE",
"244 220 OFFCURVE",
"292 255 OFFCURVE",
"340 273 OFFCURVE",
"380 273 OFFCURVE",
"397 259 OFFCURVE",
"397 243 QCURVE SMOOTH",
"397 207 OFFCURVE",
"359 150 QCURVE SMOOTH",
"321 93 OFFCURVE",
"268 55 QCURVE SMOOTH",
"206 10 OFFCURVE",
"160 10 QCURVE SMOOTH",
"155 10 LINE SMOOTH",
"153 10 OFFCURVE",
"149 11 QCURVE",
"149 11 LINE"
);
}
);
};
layerId = "A6F4F1CF-B738-4D99-83C7-A0DEF7C73335";
paths = (
{
closed = 1;
nodes = (
"335 556 LINE",
"201 566 OFFCURVE",
"51 471 OFFCURVE",
"51 388 CURVE SMOOTH",
"51 309 OFFCURVE",
"104 280 OFFCURVE",
"191 280 CURVE SMOOTH",
"357 280 OFFCURVE",
"596 414 OFFCURVE",
"596 506 CURVE SMOOTH",
"596 525 OFFCURVE",
"574 530 OFFCURVE",
"558 530 CURVE SMOOTH",
"350 530 OFFCURVE",
"56 277 OFFCURVE",
"56 86 CURVE SMOOTH",
"56 39 OFFCURVE",
"87 -8 OFFCURVE",
"157 -8 CURVE SMOOTH",
"315 -8 OFFCURVE",
"433 138 OFFCURVE",
"433 221 CURVE SMOOTH",
"433 256 OFFCURVE",
"403 274 OFFCURVE",
"370 274 CURVE SMOOTH",
"243 274 OFFCURVE",
"137 134 OFFCURVE",
"137 2 CURVE SMOOTH",
"137 -54 OFFCURVE",
"153 -94 OFFCURVE",
"161 -102 CURVE SMOOTH",
"169 -111 OFFCURVE",
"173 -103 OFFCURVE",
"172 -94 CURVE SMOOTH",
"171 -87 OFFCURVE",
"148 -31 OFFCURVE",
"148 4 CURVE SMOOTH",
"148 123 OFFCURVE",
"258 264 OFFCURVE",
"362 264 CURVE SMOOTH",
"380 264 OFFCURVE",
"397 258 OFFCURVE",
"397 233 CURVE SMOOTH",
"397 160 OFFCURVE",
"263 1 OFFCURVE",
"161 1 CURVE SMOOTH",
"118 1 OFFCURVE",
"82 22 OFFCURVE",
"82 73 CURVE SMOOTH",
"82 210 OFFCURVE",
"424 521 OFFCURVE",
"555 521 CURVE SMOOTH",
"571 521 OFFCURVE",
"586 518 OFFCURVE",
"586 502 CURVE SMOOTH",
"586 449 OFFCURVE",
"353 289 OFFCURVE",
"192 289 CURVE SMOOTH",
"119 289 OFFCURVE",
"67 318 OFFCURVE",
"67 378 CURVE SMOOTH",
"67 440 OFFCURVE",
"192 560 OFFCURVE",
"337 547 CURVE SMOOTH",
"351 546 OFFCURVE",
"349 555 OFFCURVE",
"335 556 CURVE"
);
}
);
width = 523;
},
{
layerId = "A92E3ADA-722A-4108-B621-F991B1803EEA";
paths = (
{
closed = 1;
nodes = (
"335 556 LINE",
"201 566 OFFCURVE",
"51 471 OFFCURVE",
"51 388 CURVE SMOOTH",
"51 309 OFFCURVE",
"104 280 OFFCURVE",
"191 280 CURVE SMOOTH",
"357 280 OFFCURVE",
"596 414 OFFCURVE",
"596 506 CURVE SMOOTH",
"596 519 OFFCURVE",
"583 530 OFFCURVE",
"558 530 CURVE SMOOTH",
"380 530 OFFCURVE",
"56 258 OFFCURVE",
"56 86 CURVE SMOOTH",
"56 32 OFFCURVE",
"88 -8 OFFCURVE",
"157 -8 CURVE SMOOTH",
"284 -8 OFFCURVE",
"423 138 OFFCURVE",
"423 221 CURVE SMOOTH",
"423 256 OFFCURVE",
"403 274 OFFCURVE",
"370 274 CURVE SMOOTH",
"243 274 OFFCURVE",
"137 134 OFFCURVE",
"137 2 CURVE SMOOTH",
"137 -54 OFFCURVE",
"153 -94 OFFCURVE",
"161 -102 CURVE SMOOTH",
"169 -111 OFFCURVE",
"173 -103 OFFCURVE",
"172 -94 CURVE SMOOTH",
"171 -87 OFFCURVE",
"148 -54 OFFCURVE",
"148 1 CURVE SMOOTH",
"148 121 OFFCURVE",
"250 264 OFFCURVE",
"362 264 CURVE SMOOTH",
"393 264 OFFCURVE",
"411 252 OFFCURVE",
"411 221 CURVE SMOOTH",
"411 144 OFFCURVE",
"269 1 OFFCURVE",
"157 1 CURVE SMOOTH",
"105 1 OFFCURVE",
"69 32 OFFCURVE",
"69 86 CURVE SMOOTH",
"69 256 OFFCURVE",
"396 521 OFFCURVE",
"558 521 CURVE SMOOTH",
"575 521 OFFCURVE",
"584 515 OFFCURVE",
"584 506 CURVE SMOOTH",
"584 428 OFFCURVE",
"363 289 OFFCURVE",
"192 289 CURVE SMOOTH",
"119 289 OFFCURVE",
"62 313 OFFCURVE",
"62 388 CURVE SMOOTH",
"62 454 OFFCURVE",
"192 556 OFFCURVE",
"337 547 CURVE SMOOTH",
"351 546 OFFCURVE",
"349 555 OFFCURVE",
"335 556 CURVE"
);
}
);
width = 523;
}
);
note = C;
unicode = 0043;
},
{
glyphname = Ccedilla;
lastChange = "2020-12-18 19:02:38 +0000";
layers = (
{
layerId = "A6F4F1CF-B738-4D99-83C7-A0DEF7C73335";
paths = (
{
closed = 1;
nodes = (
"335 555 LINE",
"201 565 OFFCURVE",
"51 470 OFFCURVE",
"51 387 CURVE SMOOTH",
"51 308 OFFCURVE",
"104 279 OFFCURVE",
"191 279 CURVE SMOOTH",
"357 279 OFFCURVE",
"596 413 OFFCURVE",
"596 505 CURVE SMOOTH",
"596 524 OFFCURVE",
"574 529 OFFCURVE",
"558 529 CURVE SMOOTH",
"350 529 OFFCURVE",
"56 276 OFFCURVE",
"56 85 CURVE SMOOTH",
"56 38 OFFCURVE",
"87 -9 OFFCURVE",
"157 -9 CURVE SMOOTH",
"315 -9 OFFCURVE",
"433 137 OFFCURVE",
"433 220 CURVE SMOOTH",
"433 255 OFFCURVE",
"403 273 OFFCURVE",
"370 273 CURVE SMOOTH",
"243 273 OFFCURVE",
"137 133 OFFCURVE",
"137 1 CURVE",
"137 1 OFFCURVE",
"137 -3 OFFCURVE",
"139 -5 CURVE SMOOTH",
"142 -8 OFFCURVE",
"148 -6 OFFCURVE",
"148 -3 CURVE SMOOTH",
"148 -1 OFFCURVE",
"148 3 OFFCURVE",
"148 3 CURVE",
"148 122 OFFCURVE",
"258 263 OFFCURVE",
"362 263 CURVE SMOOTH",
"380 263 OFFCURVE",
"397 257 OFFCURVE",
"397 232 CURVE SMOOTH",
"397 159 OFFCURVE",
"263 0 OFFCURVE",
"161 0 CURVE SMOOTH",
"118 0 OFFCURVE",
"82 21 OFFCURVE",
"82 72 CURVE SMOOTH",
"82 209 OFFCURVE",
"424 520 OFFCURVE",
"555 520 CURVE SMOOTH",
"571 520 OFFCURVE",
"586 517 OFFCURVE",
"586 501 CURVE SMOOTH",
"586 448 OFFCURVE",
"353 288 OFFCURVE",
"192 288 CURVE SMOOTH",
"119 288 OFFCURVE",
"67 317 OFFCURVE",
"67 377 CURVE SMOOTH",
"67 439 OFFCURVE",
"192 556 OFFCURVE",
"337 546 CURVE SMOOTH",
"351 545 OFFCURVE",
"349 554 OFFCURVE",
"335 555 CURVE"
);
},
{
closed = 1;
nodes = (
"135 -60 LINE",
"135 -60 OFFCURVE",
"145 -57 OFFCURVE",
"155 -57 CURVE SMOOTH",
"165 -57 OFFCURVE",
"178 -60 OFFCURVE",
"178 -73 CURVE SMOOTH",
"178 -118 OFFCURVE",
"119 -130 OFFCURVE",
"110 -135 CURVE SMOOTH",
"98 -141 OFFCURVE",
"100 -149 OFFCURVE",
"114 -146 CURVE SMOOTH",
"157 -136 OFFCURVE",
"213 -100 OFFCURVE",
"213 -62 CURVE SMOOTH",
"213 -45 OFFCURVE",
"197 -32 OFFCURVE",
"185 -32 CURVE SMOOTH",
"174 -32 OFFCURVE",
"165 -34 OFFCURVE",
"165 -34 CURVE",
"184 -3 LINE",
"171 -3 LINE",
"171 -3 LINE"
);
}
);
width = 523;
},
{
background = {
paths = (
{
closed = 1;
nodes = (
"178 -86 OFFCURVE",
"143 -116 OFFCURVE",
"109 -126 QCURVE",
"102 -130 OFFCURVE",
"102 -133 QCURVE SMOOTH",
"102 -138 OFFCURVE",
"116 -138 OFFCURVE",
"135 -130 QCURVE SMOOTH",
"183 -111 OFFCURVE",
"202 -83 QCURVE SMOOTH",
"206 -77 OFFCURVE",
"213 -62 OFFCURVE",
"213 -41 OFFCURVE",
"194 -23 OFFCURVE",
"171 -23 OFFCURVE",
"164 -25 QCURVE",
"181 0 LINE",
"249 8 OFFCURVE",
"310 47 QCURVE SMOOTH",
"338 65 OFFCURVE",
"383 110 OFFCURVE",
"416 160 OFFCURVE",
"433 207 OFFCURVE",
"433 253 OFFCURVE",
"399 282 OFFCURVE",
"367 282 QCURVE SMOOTH",
"304 282 OFFCURVE",
"246 233 QCURVE SMOOTH",
"186 186 OFFCURVE",
"161 110 QCURVE SMOOTH",
"160 104 OFFCURVE",
"162 100 QCURVE SMOOTH",
"163 98 OFFCURVE",
"166 98 OFFCURVE",
"167 100 QCURVE SMOOTH",
"203 172 OFFCURVE",
"253 224 QCURVE SMOOTH",
"278 250 OFFCURVE",
"337 272 OFFCURVE",
"381 272 OFFCURVE",
"398 258 OFFCURVE",
"398 242 QCURVE SMOOTH",
"398 205 OFFCURVE",
"359 150 QCURVE SMOOTH",
"341 125 OFFCURVE",
"295 73 OFFCURVE",
"243 34 OFFCURVE",
"187 9 OFFCURVE",
"126 9 OFFCURVE",
"83 45 OFFCURVE",
"83 82 QCURVE SMOOTH",
"83 157 OFFCURVE",
"202 288 QCURVE",
"282 292 OFFCURVE",
"377 330 QCURVE SMOOTH",
"468 366 OFFCURVE",
"530 416 QCURVE SMOOTH",
"595 469 OFFCURVE",
"596 510 QCURVE SMOOTH",
"597 539 OFFCURVE",
"557 539 QCURVE SMOOTH",
"462 539 OFFCURVE",
"342 469 QCURVE SMOOTH",
"226 401 OFFCURVE",
"146 301 QCURVE",
"109 310 OFFCURVE",
"88 331 QCURVE SMOOTH",
"78 341 OFFCURVE",
"68 364 OFFCURVE",
"68 400 OFFCURVE",
"79 423 QCURVE SMOOTH",
"100 467 OFFCURVE",
"153 502 QCURVE SMOOTH",
"234 556 OFFCURVE",
"316 557 QCURVE",
"344 555 LINE SMOOTH",
"349 555 OFFCURVE",
"349 558 QCURVE SMOOTH",
"349 564 OFFCURVE",
"318 564 QCURVE SMOOTH",
"251 565 OFFCURVE",
"186 537 QCURVE SMOOTH",
"156 524 OFFCURVE",
"107 490 OFFCURVE",
"71 452 OFFCURVE",
"51 412 OFFCURVE",
"51 375 OFFCURVE",
"56 359 QCURVE SMOOTH",
"73 306 OFFCURVE",
"139 292 QCURVE",
"57 187 OFFCURVE",
"57 97 QCURVE SMOOTH",
"57 72 OFFCURVE",
"65 54 QCURVE SMOOTH",
"89 -1 OFFCURVE",
"157 -1 QCURVE SMOOTH",
"163 -1 LINE SMOOTH",
"165 -1 OFFCURVE",
"168 0 QCURVE",
"135 -51 LINE",
"143 -48 OFFCURVE",
"152 -48 QCURVE SMOOTH",
"178 -48 OFFCURVE",
"178 -65 QCURVE",
"178 -65 LINE"
);
},
{
closed = 1;
nodes = (
"586 494 OFFCURVE",
"569 473 QCURVE SMOOTH",
"534 429 OFFCURVE",
"452 386 QCURVE SMOOTH",
"315 314 OFFCURVE",
"211 298 QCURVE",
"297 390 OFFCURVE",
"398 459 QCURVE SMOOTH",
"500 528 OFFCURVE",
"556 530 QCURVE SMOOTH",
"586 531 OFFCURVE",
"586 510 QCURVE",
"586 510 LINE"
);
}
);
};
layerId = "A92E3ADA-722A-4108-B621-F991B1803EEA";
paths = (
{
closed = 1;
nodes = (
"335 556 LINE",
"201 566 OFFCURVE",
"51 471 OFFCURVE",
"51 388 CURVE SMOOTH",
"51 309 OFFCURVE",
"104 280 OFFCURVE",
"191 280 CURVE SMOOTH",
"357 280 OFFCURVE",
"596 414 OFFCURVE",
"596 506 CURVE SMOOTH",
"596 519 OFFCURVE",
"583 530 OFFCURVE",
"558 530 CURVE SMOOTH",
"380 530 OFFCURVE",
"56 258 OFFCURVE",
"56 86 CURVE SMOOTH",
"56 32 OFFCURVE",
"88 -8 OFFCURVE",
"157 -8 CURVE SMOOTH",
"284 -8 OFFCURVE",
"423 138 OFFCURVE",
"423 221 CURVE SMOOTH",
"423 256 OFFCURVE",
"403 274 OFFCURVE",
"370 274 CURVE SMOOTH",
"243 274 OFFCURVE",
"137 135 OFFCURVE",
"137 2 CURVE SMOOTH",
"137 -3 OFFCURVE",
"136 -2 OFFCURVE",
"139 -5 CURVE SMOOTH",
"140 -6 OFFCURVE",
"152 -7 OFFCURVE",
"152 -5 CURVE SMOOTH",
"152 -3 OFFCURVE",
"148 -3 OFFCURVE",
"148 1 CURVE SMOOTH",
"148 122 OFFCURVE",
"250 264 OFFCURVE",
"362 264 CURVE SMOOTH",
"393 264 OFFCURVE",
"411 252 OFFCURVE",
"411 221 CURVE SMOOTH",
"411 144 OFFCURVE",
"269 1 OFFCURVE",
"157 1 CURVE SMOOTH",
"105 1 OFFCURVE",
"69 32 OFFCURVE",
"69 86 CURVE SMOOTH",
"69 261 OFFCURVE",
"399 522 OFFCURVE",
"558 522 CURVE SMOOTH",
"575 522 OFFCURVE",
"586 515 OFFCURVE",
"586 506 CURVE SMOOTH",
"586 428 OFFCURVE",
"363 289 OFFCURVE",
"192 289 CURVE SMOOTH",
"119 289 OFFCURVE",
"62 313 OFFCURVE",
"62 388 CURVE SMOOTH",
"62 454 OFFCURVE",
"192 556 OFFCURVE",
"337 547 CURVE SMOOTH",
"351 546 OFFCURVE",
"349 555 OFFCURVE",
"335 556 CURVE"
);
},
{
closed = 1;
nodes = (
"140 -52 LINE",
"140 -52 OFFCURVE",
"160 -41 OFFCURVE",
"184 -41 CURVE SMOOTH",
"197 -41 OFFCURVE",
"202 -50 OFFCURVE",
"202 -62 CURVE SMOOTH",
"202 -96 OFFCURVE",
"143 -129 OFFCURVE",
"112 -136 CURVE SMOOTH",
"100 -139 OFFCURVE",
"100 -149 OFFCURVE",
"114 -146 CURVE SMOOTH",
"157 -136 OFFCURVE",
"213 -100 OFFCURVE",
"213 -62 CURVE SMOOTH",
"213 -47 OFFCURVE",
"202 -32 OFFCURVE",
"185 -32 CURVE SMOOTH",
"174 -32 OFFCURVE",
"165 -34 OFFCURVE",
"165 -34 CURVE",
"184 -3 LINE",
"171 -3 LINE",
"171 -3 LINE"
);
}
);
width = 523;
}
);
note = Ccedilla;
unicode = 00C7;
},
{
glyphname = D;
lastChange = "2020-12-18 19:02:38 +0000";
layers = (
{
background = {
paths = (
{
closed = 1;
nodes = (
"262 2 OFFCURVE",
"314 2 QCURVE SMOOTH",
"398 2 OFFCURVE",
"475 44 QCURVE SMOOTH",
"512 64 OFFCURVE",
"574 122 OFFCURVE",
"618 194 OFFCURVE",
"644 278 OFFCURVE",
"644 389 OFFCURVE",
"615 436 QCURVE",
"685 498 OFFCURVE",
"753 505 QCURVE SMOOTH",
"761 505 OFFCURVE",
"765 508 OFFCURVE",
"765 514 OFFCURVE",
"760 514 QCURVE SMOOTH",
"690 514 OFFCURVE",
"602 455 QCURVE",
"539 535 OFFCURVE",
"405 535 QCURVE SMOOTH",
"321 535 OFFCURVE",
"247 500 QCURVE SMOOTH",
"212 484 OFFCURVE",
"155 439 OFFCURVE",
"114 388 OFFCURVE",
"92 331 OFFCURVE",
"92 268 OFFCURVE",
"121 244 QCURVE SMOOTH",
"134 233 OFFCURVE",
"168 222 OFFCURVE",
"219 222 OFFCURVE",
"251 231 QCURVE SMOOTH",
"349 259 OFFCURVE",
"405 345 QCURVE SMOOTH",
"443 401 OFFCURVE",
"443 455 QCURVE SMOOTH",
"443 462 OFFCURVE",
"438 462 QCURVE SMOOTH",
"435 462 OFFCURVE",
"434 454 QCURVE SMOOTH",
"425 405 OFFCURVE",
"384 350 QCURVE SMOOTH",
"365 324 OFFCURVE",
"311 282 OFFCURVE",
"258 251 OFFCURVE",
"207 232 OFFCURVE",
"152 232 OFFCURVE",
"114 266 OFFCURVE",
"114 294 QCURVE SMOOTH",
"115 339 OFFCURVE",
"156 394 QCURVE SMOOTH",
"198 450 OFFCURVE",
"264 485 QCURVE SMOOTH",
"336 525 OFFCURVE",
"407 525 QCURVE SMOOTH",
"537 527 OFFCURVE",
"588 446 QCURVE",
"557 425 OFFCURVE",
"510 382 OFFCURVE",
"492 362 QCURVE SMOOTH",
"457 324 LINE",
"393 246 LINE",
"326 168 LINE SMOOTH",
"296 134 OFFCURVE",
"219 60 OFFCURVE",
"180 39 QCURVE",
"178 40 OFFCURVE",
"176 40 OFFCURVE",
"133 53 OFFCURVE",
"111 57 QCURVE SMOOTH",
"99 59 OFFCURVE",
"78 62 OFFCURVE",
"32 62 OFFCURVE",
"10 51 QCURVE SMOOTH",
"-1 46 OFFCURVE",
"-11 35 OFFCURVE",
"-11 23 OFFCURVE",
"-7 18 QCURVE SMOOTH",
"7 1 OFFCURVE",
"58 0 QCURVE SMOOTH",
"134 -1 OFFCURVE",
"196 22 QCURVE",
"196 22 LINE"
);
},
{
closed = 1;
nodes = (
"338 75 OFFCURVE",
"449 230 QCURVE SMOOTH",
"520 329 LINE SMOOTH",
"558 383 OFFCURVE",
"601 423 QCURVE",
"619 382 OFFCURVE",
"619 324 QCURVE SMOOTH",
"619 237 OFFCURVE",
"574 163 QCURVE SMOOTH",
"554 129 OFFCURVE",
"495 73 OFFCURVE",
"428 35 OFFCURVE",
"354 13 OFFCURVE",
"263 13 OFFCURVE",
"214 28 QCURVE",
"214 28 LINE"
);
},
{
closed = 1;
nodes = (
"122 12 OFFCURVE",
"65 12 QCURVE SMOOTH",
"0 12 OFFCURVE",
"0 28 QCURVE SMOOTH",
"0 35 OFFCURVE",
"33 45 OFFCURVE",
"106 45 OFFCURVE",
"163 31 QCURVE",
"163 31 LINE"
);
}
);
};
layerId = "A6F4F1CF-B738-4D99-83C7-A0DEF7C73335";
paths = (
{
closed = 1;
nodes = (
"65 -9 LINE",
"258 -9 OFFCURVE",
"389 124 OFFCURVE",
"456 230 CURVE SMOOTH",
"535 358 OFFCURVE",
"663 496 OFFCURVE",
"753 496 CURVE SMOOTH",
"764 496 OFFCURVE",
"771 505 OFFCURVE",
"754 505 CURVE SMOOTH",
"643 505 OFFCURVE",
"490 373 OFFCURVE",
"378 222 CURVE SMOOTH",
"291 105 OFFCURVE",
"188 2 OFFCURVE",
"66 2 CURVE SMOOTH",
"45 2 OFFCURVE",
"0 4 OFFCURVE",
"0 19 CURVE SMOOTH",
"0 34 OFFCURVE",
"49 36 OFFCURVE",
"68 36 CURVE SMOOTH",
"153 36 OFFCURVE",
"222 -7 OFFCURVE",
"317 -7 CURVE SMOOTH",
"488 -7 OFFCURVE",
"644 133 OFFCURVE",
"644 319 CURVE SMOOTH",
"644 432 OFFCURVE",
"569 526 OFFCURVE",
"405 526 CURVE SMOOTH",
"226 526 OFFCURVE",
"91 399 OFFCURVE",
"91 297 CURVE SMOOTH",
"91 258 OFFCURVE",
"118 213 OFFCURVE",
"196 213 CURVE SMOOTH",
"312 213 OFFCURVE",
"443 330 OFFCURVE",
"443 445 CURVE SMOOTH",
"443 460 OFFCURVE",
"436 462 OFFCURVE",
"433 445 CURVE SMOOTH",
"416 333 OFFCURVE",
"274 224 OFFCURVE",
"181 224 CURVE SMOOTH",
"132 224 OFFCURVE",
"114 257 OFFCURVE",
"114 283 CURVE SMOOTH",
"114 380 OFFCURVE",
"261 517 OFFCURVE",
"410 517 CURVE SMOOTH",
"558 517 OFFCURVE",
"620 433 OFFCURVE",
"620 308 CURVE SMOOTH",
"620 150 OFFCURVE",
"476 4 OFFCURVE",
"315 4 CURVE SMOOTH",
"216 4 OFFCURVE",
"144 54 OFFCURVE",
"58 54 CURVE SMOOTH",
"31 54 OFFCURVE",
"-11 39 OFFCURVE",
"-11 19 CURVE SMOOTH",
"-11 -1 OFFCURVE",
"27 -9 OFFCURVE",
"65 -9 CURVE"
);
}
);
width = 685;
},
{
background = {
paths = (
{
closed = 1;
nodes = (
"663 505 OFFCURVE",
"535 367 OFFCURVE",
"456 239 CURVE SMOOTH",
"389 133 OFFCURVE",
"258 0 OFFCURVE",
"65 0 CURVE SMOOTH",
"27 0 OFFCURVE",
"-11 8 OFFCURVE",
"-11 28 CURVE SMOOTH",
"-11 48 OFFCURVE",
"31 63 OFFCURVE",
"58 63 CURVE SMOOTH",
"144 63 OFFCURVE",
"218 12 OFFCURVE",
"317 12 CURVE SMOOTH",
"478 12 OFFCURVE",
"620 159 OFFCURVE",
"620 317 CURVE SMOOTH",
"620 442 OFFCURVE",
"553 525 OFFCURVE",
"405 525 CURVE SMOOTH",
"238 525 OFFCURVE",
"106 404 OFFCURVE",
"106 306 CURVE SMOOTH",
"106 273 OFFCURVE",
"129 232 OFFCURVE",
"195 232 CURVE SMOOTH",
"303 232 OFFCURVE",
"416 342 OFFCURVE",
"433 454 CURVE SMOOTH",
"436 471 OFFCURVE",
"443 469 OFFCURVE",
"443 454 CURVE SMOOTH",
"443 339 OFFCURVE",
"312 222 OFFCURVE",
"196 222 CURVE SMOOTH",
"118 222 OFFCURVE",
"91 267 OFFCURVE",
"91 306 CURVE SMOOTH",
"91 408 OFFCURVE",
"226 535 OFFCURVE",
"405 535 CURVE SMOOTH",
"586 535 OFFCURVE",
"634 428 OFFCURVE",
"634 317 CURVE SMOOTH",
"634 157 OFFCURVE",
"497 2 OFFCURVE",
"317 2 CURVE SMOOTH",
"222 2 OFFCURVE",
"131 52 OFFCURVE",
"58 52 CURVE SMOOTH",
"39 52 OFFCURVE",
"0 43 OFFCURVE",
"0 28 CURVE SMOOTH",
"0 13 OFFCURVE",
"44 10 OFFCURVE",
"65 10 CURVE SMOOTH",
"187 10 OFFCURVE",
"291 114 OFFCURVE",
"378 231 CURVE SMOOTH",
"490 382 OFFCURVE",
"643 514 OFFCURVE",
"754 514 CURVE SMOOTH",
"771 514 OFFCURVE",
"764 505 OFFCURVE",
"753 505 CURVE SMOOTH"
);
}
);
};
layerId = "A92E3ADA-722A-4108-B621-F991B1803EEA";
paths = (
{
closed = 1;
nodes = (
"65 -9 LINE",
"232 -9 OFFCURVE",
"344 114 OFFCURVE",
"418 221 CURVE SMOOTH",
"506 349 OFFCURVE",
"650 496 OFFCURVE",
"753 496 CURVE SMOOTH",
"764 496 OFFCURVE",
"771 505 OFFCURVE",
"754 505 CURVE SMOOTH",
"643 505 OFFCURVE",
"515 374 OFFCURVE",
"403 223 CURVE SMOOTH",
"332 128 OFFCURVE",
"232 1 OFFCURVE",
"65 1 CURVE SMOOTH",
"44 1 OFFCURVE",
"0 4 OFFCURVE",
"0 19 CURVE SMOOTH",
"0 34 OFFCURVE",
"39 43 OFFCURVE",
"58 43 CURVE SMOOTH",
"131 43 OFFCURVE",
"222 -7 OFFCURVE",
"317 -7 CURVE SMOOTH",
"497 -7 OFFCURVE",
"634 148 OFFCURVE",
"634 308 CURVE SMOOTH",
"634 419 OFFCURVE",
"586 526 OFFCURVE",
"405 526 CURVE SMOOTH",
"226 526 OFFCURVE",
"91 399 OFFCURVE",
"91 297 CURVE SMOOTH",
"91 258 OFFCURVE",
"118 213 OFFCURVE",
"196 213 CURVE SMOOTH",
"312 213 OFFCURVE",
"443 330 OFFCURVE",
"443 445 CURVE SMOOTH",
"443 460 OFFCURVE",
"434 462 OFFCURVE",
"433 445 CURVE SMOOTH",
"425 333 OFFCURVE",
"303 223 OFFCURVE",
"195 223 CURVE SMOOTH",
"129 223 OFFCURVE",
"106 264 OFFCURVE",
"106 297 CURVE SMOOTH",
"106 395 OFFCURVE",
"238 516 OFFCURVE",
"405 516 CURVE SMOOTH",
"566 516 OFFCURVE",
"621 433 OFFCURVE",
"621 308 CURVE SMOOTH",
"621 150 OFFCURVE",
"478 3 OFFCURVE",
"317 3 CURVE SMOOTH",
"218 3 OFFCURVE",
"144 54 OFFCURVE",
"58 54 CURVE SMOOTH",
"31 54 OFFCURVE",
"-11 39 OFFCURVE",
"-11 19 CURVE SMOOTH",
"-11 -1 OFFCURVE",
"27 -9 OFFCURVE",
"65 -9 CURVE"
);
}
);
width = 685;
}
);
note = D;
unicode = 0044;
},
{
glyphname = Eth;
lastChange = "2020-12-18 19:02:38 +0000";
layers = (
{
background = {
paths = (
{
closed = 1;
nodes = (
"255 -4 OFFCURVE",
"308 -4 QCURVE SMOOTH",
"392 -4 OFFCURVE",
"469 38 QCURVE SMOOTH",
"506 58 OFFCURVE",
"568 116 OFFCURVE",
"612 188 OFFCURVE",
"638 272 OFFCURVE",
"638 383 OFFCURVE",
"609 430 QCURVE",
"679 490 OFFCURVE",
"747 499 QCURVE SMOOTH",
"755 500 OFFCURVE",
"759 502 OFFCURVE",
"759 508 OFFCURVE",
"754 508 QCURVE SMOOTH",
"684 505 OFFCURVE",
"596 449 QCURVE",
"533 529 OFFCURVE",
"399 529 QCURVE SMOOTH",
"315 529 OFFCURVE",
"241 494 QCURVE SMOOTH",
"206 478 OFFCURVE",
"149 433 OFFCURVE",
"108 382 OFFCURVE",
"86 325 OFFCURVE",
"86 262 OFFCURVE",
"115 238 QCURVE SMOOTH",
"128 227 OFFCURVE",
"162 216 OFFCURVE",
"213 216 OFFCURVE",
"245 225 QCURVE SMOOTH",
"342 255 OFFCURVE",
"399 339 QCURVE SMOOTH",
"437 393 OFFCURVE",
"437 449 QCURVE SMOOTH",
"437 456 OFFCURVE",
"432 456 QCURVE SMOOTH",
"429 456 OFFCURVE",
"428 448 QCURVE SMOOTH",
"425 399 OFFCURVE",
"378 344 QCURVE SMOOTH",
"358 319 OFFCURVE",
"305 276 OFFCURVE",
"252 245 OFFCURVE",
"201 226 OFFCURVE",
"146 226 OFFCURVE",
"108 260 OFFCURVE",
"108 288 QCURVE SMOOTH",
"108 333 OFFCURVE",
"150 388 QCURVE SMOOTH",
"193 443 OFFCURVE",
"258 479 QCURVE SMOOTH",
"330 519 OFFCURVE",
"401 519 QCURVE SMOOTH",
"531 519 OFFCURVE",
"582 440 QCURVE",
"551 419 OFFCURVE",
"504 376 OFFCURVE",
"486 356 QCURVE SMOOTH",
"451 318 LINE",
"343 189 OFFCURVE",
"343 189 QCURVE",
"297 189 LINE",
"295 182 OFFCURVE",
"286 176 QCURVE",
"331 176 LINE",
"285 124 LINE",
"221 59 OFFCURVE",
"174 33 QCURVE",
"172 34 OFFCURVE",
"170 34 OFFCURVE",
"127 46 OFFCURVE",
"105 51 QCURVE SMOOTH",
"93 53 OFFCURVE",
"72 56 OFFCURVE",
"26 56 OFFCURVE",
"4 45 QCURVE SMOOTH",
"-7 40 OFFCURVE",
"-17 29 OFFCURVE",
"-17 17 OFFCURVE",
"-13 12 QCURVE SMOOTH",
"1 -6 OFFCURVE",
"52 -6 QCURVE SMOOTH",
"125 -6 OFFCURVE",
"190 16 QCURVE",
"190 16 LINE"
);
},
{
closed = 1;
nodes = (
"415 189 LINE",
"440 219 OFFCURVE",
"463 251 QCURVE SMOOTH",
"518 330 LINE SMOOTH",
"551 377 OFFCURVE",
"595 417 QCURVE",
"613 376 OFFCURVE",
"613 318 QCURVE SMOOTH",
"613 231 OFFCURVE",
"568 157 QCURVE SMOOTH",
"547 123 OFFCURVE",
"489 67 OFFCURVE",
"422 29 OFFCURVE",
"348 7 OFFCURVE",
"257 7 OFFCURVE",
"208 22 QCURVE",
"264 44 OFFCURVE",
"325 93 QCURVE SMOOTH",
"359 121 OFFCURVE",
"405 176 QCURVE",
"507 176 LINE",
"510 186 OFFCURVE",
"513 189 QCURVE",
"513 189 LINE"
);
},
{
closed = 1;
nodes = (
"116 6 OFFCURVE",
"59 6 QCURVE SMOOTH",
"-6 6 OFFCURVE",
"-6 22 QCURVE SMOOTH",
"-6 29 OFFCURVE",
"27 39 OFFCURVE",
"100 39 OFFCURVE",
"157 25 QCURVE",
"157 25 LINE"
);
}
);
};
layerId = "A6F4F1CF-B738-4D99-83C7-A0DEF7C73335";
paths = (
{
closed = 1;
nodes = (
"65 -9 LINE",
"258 -9 OFFCURVE",
"390 123 OFFCURVE",
"456 230 CURVE SMOOTH",
"535 358 OFFCURVE",
"663 496 OFFCURVE",
"753 496 CURVE SMOOTH",
"764 496 OFFCURVE",
"771 505 OFFCURVE",
"754 505 CURVE SMOOTH",
"643 505 OFFCURVE",
"490 373 OFFCURVE",
"378 222 CURVE SMOOTH",
"291 105 OFFCURVE",
"188 2 OFFCURVE",
"66 2 CURVE SMOOTH",
"45 2 OFFCURVE",
"0 4 OFFCURVE",
"0 19 CURVE SMOOTH",
"0 34 OFFCURVE",
"49 36 OFFCURVE",
"68 36 CURVE SMOOTH",
"153 36 OFFCURVE",
"222 -7 OFFCURVE",
"317 -7 CURVE SMOOTH",
"488 -7 OFFCURVE",
"644 133 OFFCURVE",
"644 319 CURVE SMOOTH",
"644 432 OFFCURVE",
"569 526 OFFCURVE",
"405 526 CURVE SMOOTH",
"226 526 OFFCURVE",
"91 399 OFFCURVE",
"91 297 CURVE SMOOTH",
"91 258 OFFCURVE",
"118 213 OFFCURVE",
"196 213 CURVE SMOOTH",
"312 213 OFFCURVE",
"443 330 OFFCURVE",
"443 445 CURVE SMOOTH",
"443 460 OFFCURVE",
"436 462 OFFCURVE",
"433 445 CURVE SMOOTH",
"413 333 OFFCURVE",
"274 224 OFFCURVE",
"181 224 CURVE SMOOTH",
"132 224 OFFCURVE",
"114 257 OFFCURVE",
"114 283 CURVE SMOOTH",
"114 380 OFFCURVE",
"261 517 OFFCURVE",
"410 517 CURVE SMOOTH",
"558 517 OFFCURVE",
"620 433 OFFCURVE",
"620 308 CURVE SMOOTH",
"620 150 OFFCURVE",
"476 4 OFFCURVE",
"315 4 CURVE SMOOTH",
"216 4 OFFCURVE",
"144 54 OFFCURVE",
"58 54 CURVE SMOOTH",
"31 54 OFFCURVE",
"-11 39 OFFCURVE",
"-11 19 CURVE SMOOTH",
"-11 -1 OFFCURVE",
"27 -9 OFFCURVE",
"65 -9 CURVE"
);
},
{
closed = 1;
nodes = (
"286 167 LINE",
"286 167 OFFCURVE",
"507 167 OFFCURVE",
"507 167 CURVE",
"508 169 OFFCURVE",
"509 176 OFFCURVE",
"513 180 CURVE",
"513 180 OFFCURVE",
"297 180 OFFCURVE",
"297 180 CURVE",
"297 175 OFFCURVE",
"290 170 OFFCURVE",
"286 167 CURVE"
);
}
);
width = 680;
},
{
layerId = "A92E3ADA-722A-4108-B621-F991B1803EEA";
paths = (
{
closed = 1;
nodes = (
"65 -9 LINE",
"232 -9 OFFCURVE",
"344 114 OFFCURVE",
"418 221 CURVE SMOOTH",
"506 349 OFFCURVE",
"650 496 OFFCURVE",
"753 496 CURVE SMOOTH",
"764 496 OFFCURVE",
"771 505 OFFCURVE",
"754 505 CURVE SMOOTH",
"643 505 OFFCURVE",
"515 374 OFFCURVE",
"403 223 CURVE SMOOTH",
"332 128 OFFCURVE",
"232 1 OFFCURVE",
"65 1 CURVE SMOOTH",
"44 1 OFFCURVE",
"0 4 OFFCURVE",
"0 19 CURVE SMOOTH",
"0 34 OFFCURVE",
"39 43 OFFCURVE",
"58 43 CURVE SMOOTH",
"131 43 OFFCURVE",
"222 -7 OFFCURVE",
"317 -7 CURVE SMOOTH",
"497 -7 OFFCURVE",
"634 148 OFFCURVE",
"634 308 CURVE SMOOTH",
"634 419 OFFCURVE",
"586 526 OFFCURVE",
"405 526 CURVE SMOOTH",
"226 526 OFFCURVE",
"91 399 OFFCURVE",
"91 297 CURVE SMOOTH",
"91 258 OFFCURVE",
"118 213 OFFCURVE",
"196 213 CURVE SMOOTH",
"312 213 OFFCURVE",
"443 330 OFFCURVE",
"443 445 CURVE SMOOTH",
"443 460 OFFCURVE",
"434 462 OFFCURVE",
"433 445 CURVE SMOOTH",
"425 333 OFFCURVE",
"303 223 OFFCURVE",
"195 223 CURVE SMOOTH",
"129 223 OFFCURVE",
"106 264 OFFCURVE",
"106 297 CURVE SMOOTH",
"106 395 OFFCURVE",
"238 516 OFFCURVE",
"405 516 CURVE SMOOTH",
"566 516 OFFCURVE",
"621 433 OFFCURVE",
"621 308 CURVE SMOOTH",
"621 150 OFFCURVE",
"478 3 OFFCURVE",
"317 3 CURVE SMOOTH",
"218 3 OFFCURVE",
"144 54 OFFCURVE",
"58 54 CURVE SMOOTH",
"31 54 OFFCURVE",
"-11 39 OFFCURVE",
"-11 19 CURVE SMOOTH",
"-11 -1 OFFCURVE",
"27 -9 OFFCURVE",
"65 -9 CURVE"
);
},
{
closed = 1;
nodes = (
"286 167 LINE",
"286 167 OFFCURVE",
"507 167 OFFCURVE",
"507 167 CURVE",
"508 169 OFFCURVE",
"509 176 OFFCURVE",
"513 180 CURVE",
"513 180 OFFCURVE",
"297 180 OFFCURVE",
"297 180 CURVE",
"297 175 OFFCURVE",
"290 170 OFFCURVE",
"286 167 CURVE"
);
}
);
width = 685;
}
);
note = Eth;
unicode = 00D0;
},
{
glyphname = E;
lastChange = "2020-12-18 19:02:38 +0000";
layers = (
{
background = {
paths = (
{
closed = 1;
nodes = (
"108 -50 OFFCURVE",
"108 -10 QCURVE SMOOTH",
"108 -5 LINE SMOOTH",
"108 -2 OFFCURVE",
"109 1 QCURVE",
"123 0 LINE SMOOTH",
"207 -6 OFFCURVE",
"268 41 QCURVE SMOOTH",
"295 62 OFFCURVE",
"327 113 OFFCURVE",
"327 164 OFFCURVE",
"291 196 OFFCURVE",
"267 196 QCURVE SMOOTH",
"205 196 OFFCURVE",
"154 139 QCURVE SMOOTH",
"104 83 OFFCURVE",
"98 12 QCURVE",
"61 17 OFFCURVE",
"23 59 OFFCURVE",
"22 110 OFFCURVE",
"30 131 QCURVE SMOOTH",
"46 172 OFFCURVE",
"87 210 QCURVE SMOOTH",
"151 269 OFFCURVE",
"227 277 QCURVE",
"263 239 OFFCURVE",
"304 239 QCURVE SMOOTH",
"323 239 OFFCURVE",
"323 251 QCURVE SMOOTH",
"323 264 OFFCURVE",
"284 285 OFFCURVE",
"246 290 QCURVE",
"237 304 OFFCURVE",
"233 318 QCURVE",
"262 314 OFFCURVE",
"296 314 QCURVE SMOOTH",
"405 313 OFFCURVE",
"484 356 QCURVE SMOOTH",
"521 376 OFFCURVE",
"564 427 OFFCURVE",
"564 457 QCURVE SMOOTH",
"564 497 OFFCURVE",
"495 540 OFFCURVE",
"433 540 QCURVE SMOOTH",
"406 540 OFFCURVE",
"378 534 QCURVE SMOOTH",
"286 514 OFFCURVE",
"234 447 QCURVE SMOOTH",
"198 400 OFFCURVE",
"198 343 QCURVE SMOOTH",
"198 340 OFFCURVE",
"198 336 OFFCURVE",
"199 334 QCURVE",
"92 357 OFFCURVE",
"57 435 QCURVE SMOOTH",
"53 444 OFFCURVE",
"46 444 OFFCURVE",
"46 434 OFFCURVE",
"48 430 QCURVE",
"64 393 OFFCURVE",
"140 337 OFFCURVE",
"200 324 QCURVE",
"205 305 OFFCURVE",
"216 291 QCURVE",
"214 291 LINE SMOOTH",
"180 291 OFFCURVE",
"150 284 QCURVE SMOOTH",
"58 263 OFFCURVE",
"12 196 QCURVE SMOOTH",
"-19 151 OFFCURVE",
"-18 102 QCURVE SMOOTH",
"-17 62 OFFCURVE",
"14 35 QCURVE SMOOTH",
"46 7 OFFCURVE",
"97 2 QCURVE",
"97 -10 LINE SMOOTH",
"97 -36 OFFCURVE",
"104 -61 QCURVE SMOOTH",
"117 -108 OFFCURVE",
"130 -108 QCURVE SMOOTH",
"134 -108 OFFCURVE",
"134 -103 OFFCURVE",
"126 -95 OFFCURVE",
"121 -83 QCURVE",
"121 -83 LINE"
);
},
{
closed = 1;
nodes = (
"231 334 LINE SMOOTH",
"231 374 OFFCURVE",
"264 420 QCURVE SMOOTH",
"280 442 OFFCURVE",
"320 482 OFFCURVE",
"367 513 OFFCURVE",
"420 531 OFFCURVE",
"494 531 OFFCURVE",
"522 513 QCURVE SMOOTH",
"549 495 OFFCURVE",
"550 468 QCURVE SMOOTH",
"552 426 OFFCURVE",
"507 392 QCURVE SMOOTH",
"487 377 OFFCURVE",
"437 351 OFFCURVE",
"379 334 OFFCURVE",
"318 326 OFFCURVE",
"253 326 OFFCURVE",
"231 329 QCURVE",
"231 329 LINE"
);
},
{
closed = 1;
nodes = (
"278 276 OFFCURVE",
"297 267 QCURVE SMOOTH",
"305 263 OFFCURVE",
"314 256 OFFCURVE",
"314 248 OFFCURVE",
"308 248 QCURVE SMOOTH",
"280 248 OFFCURVE",
"254 278 QCURVE",
"254 278 LINE"
);
},
{
closed = 1;
nodes = (
"116 86 OFFCURVE",
"168 138 QCURVE SMOOTH",
"191 161 OFFCURVE",
"244 187 OFFCURVE",
"286 187 OFFCURVE",
"310 170 OFFCURVE",
"310 154 QCURVE SMOOTH",
"310 127 OFFCURVE",
"280 92 QCURVE SMOOTH",
"266 76 OFFCURVE",
"230 47 OFFCURVE",
"188 24 OFFCURVE",
"145 10 OFFCURVE",
"117 10 OFFCURVE",
"109 10 QCURVE",
"109 10 LINE"
);
}
);
};
layerId = "A6F4F1CF-B738-4D99-83C7-A0DEF7C73335";
paths = (
{
closed = 1;
nodes = (
"127 -115 LINE",
"135 -121 OFFCURVE",
"136 -114 OFFCURVE",
"133 -110 CURVE SMOOTH",
"117 -93 OFFCURVE",
"108 -59 OFFCURVE",
"107 -17 CURVE SMOOTH",
"105 73 OFFCURVE",
"181 178 OFFCURVE",
"268 178 CURVE SMOOTH",
"295 178 OFFCURVE",
"310 164 OFFCURVE",
"310 144 CURVE SMOOTH",
"310 92 OFFCURVE",
"210 1 OFFCURVE",
"123 1 CURVE SMOOTH",
"57 1 OFFCURVE",
"23 34 OFFCURVE",
"23 82 CURVE SMOOTH",
"23 168 OFFCURVE",
"139 269 OFFCURVE",
"245 269 CURVE SMOOTH",
"284 269 OFFCURVE",
"314 252 OFFCURVE",
"314 244 CURVE SMOOTH",
"314 239 OFFCURVE",
"311 239 OFFCURVE",
"307 239 CURVE SMOOTH",
"271 239 OFFCURVE",
"231 284 OFFCURVE",
"231 329 CURVE SMOOTH",
"231 388 OFFCURVE",
"328 521 OFFCURVE",
"447 521 CURVE SMOOTH",
"517 521 OFFCURVE",
"550 491 OFFCURVE",
"550 451 CURVE SMOOTH",
"550 374 OFFCURVE",
"405 317 OFFCURVE",
"292 317 CURVE SMOOTH",
"89 317 OFFCURVE",
"63 418 OFFCURVE",
"55 431 CURVE",
"48 437 OFFCURVE",
"43 435 OFFCURVE",
"47 425 CURVE SMOOTH",
"55 403 OFFCURVE",
"96 305 OFFCURVE",
"308 305 CURVE SMOOTH",
"454 305 OFFCURVE",
"564 378 OFFCURVE",
"564 447 CURVE SMOOTH",
"564 499 OFFCURVE",
"521 531 OFFCURVE",
"436 531 CURVE SMOOTH",
"310 531 OFFCURVE",
"197 445 OFFCURVE",
"197 335 CURVE SMOOTH",
"197 279 OFFCURVE",
"254 230 OFFCURVE",
"306 230 CURVE SMOOTH",
"315 230 OFFCURVE",
"323 233 OFFCURVE",
"323 242 CURVE SMOOTH",
"323 274 OFFCURVE",
"244 283 OFFCURVE",
"210 283 CURVE SMOOTH",
"92 283 OFFCURVE",
"-19 199 OFFCURVE",
"-19 98 CURVE SMOOTH",
"-19 20 OFFCURVE",
"57 -10 OFFCURVE",
"131 -10 CURVE SMOOTH",
"260 -10 OFFCURVE",
"327 74 OFFCURVE",
"327 127 CURVE SMOOTH",
"327 158 OFFCURVE",
"307 187 OFFCURVE",
"267 187 CURVE SMOOTH",
"170 187 OFFCURVE",
"97 77 OFFCURVE",
"97 -10 CURVE SMOOTH",
"97 -78 OFFCURVE",
"115 -107 OFFCURVE",
"127 -115 CURVE"
);
}
);
width = 447;
},
{
layerId = "A92E3ADA-722A-4108-B621-F991B1803EEA";
paths = (
{
closed = 1;
nodes = (
"127 -115 LINE",
"135 -121 OFFCURVE",
"136 -114 OFFCURVE",
"133 -110 CURVE SMOOTH",
"117 -93 OFFCURVE",
"108 -59 OFFCURVE",
"107 -17 CURVE SMOOTH",
"105 73 OFFCURVE",
"181 178 OFFCURVE",
"268 178 CURVE SMOOTH",
"301 178 OFFCURVE",
"315 154 OFFCURVE",
"315 127 CURVE SMOOTH",
"315 79 OFFCURVE",
"254 0 OFFCURVE",
"131 0 CURVE SMOOTH",
"61 0 OFFCURVE",
"-6 28 OFFCURVE",
"-6 98 CURVE SMOOTH",
"-6 192 OFFCURVE",
"98 274 OFFCURVE",
"210 274 CURVE SMOOTH",
"253 274 OFFCURVE",
"314 257 OFFCURVE",
"314 244 CURVE SMOOTH",
"314 239 OFFCURVE",
"310 239 OFFCURVE",
"306 239 CURVE SMOOTH",
"260 239 OFFCURVE",
"209 287 OFFCURVE",
"209 335 CURVE SMOOTH",
"209 439 OFFCURVE",
"317 521 OFFCURVE",
"436 521 CURVE SMOOTH",
"514 521 OFFCURVE",
"553 493 OFFCURVE",
"553 447 CURVE SMOOTH",
"553 382 OFFCURVE",
"438 314 OFFCURVE",
"308 314 CURVE SMOOTH",
"105 314 OFFCURVE",
"64 411 OFFCURVE",
"55 431 CURVE SMOOTH",
"51 439 OFFCURVE",
"43 435 OFFCURVE",
"47 425 CURVE SMOOTH",
"55 403 OFFCURVE",
"96 305 OFFCURVE",
"308 305 CURVE SMOOTH",
"454 305 OFFCURVE",
"564 378 OFFCURVE",
"564 447 CURVE SMOOTH",
"564 499 OFFCURVE",
"521 531 OFFCURVE",
"436 531 CURVE SMOOTH",
"310 531 OFFCURVE",
"197 445 OFFCURVE",
"197 335 CURVE SMOOTH",
"197 279 OFFCURVE",
"254 230 OFFCURVE",
"306 230 CURVE SMOOTH",
"315 230 OFFCURVE",
"323 233 OFFCURVE",
"323 242 CURVE SMOOTH",
"323 265 OFFCURVE",
"260 283 OFFCURVE",
"210 283 CURVE SMOOTH",
"92 283 OFFCURVE",
"-19 199 OFFCURVE",
"-19 98 CURVE SMOOTH",
"-19 20 OFFCURVE",
"57 -10 OFFCURVE",
"131 -10 CURVE SMOOTH",
"260 -10 OFFCURVE",
"327 74 OFFCURVE",
"327 127 CURVE SMOOTH",
"327 158 OFFCURVE",
"307 187 OFFCURVE",
"267 187 CURVE SMOOTH",
"170 187 OFFCURVE",
"97 77 OFFCURVE",
"97 -10 CURVE SMOOTH",
"97 -78 OFFCURVE",
"115 -107 OFFCURVE",
"127 -115 CURVE"
);
}
);
width = 447;
}
);
note = E;
unicode = 0045;
},
{
glyphname = Eacute;
lastChange = "2020-12-18 19:02:38 +0000";
layers = (
{
layerId = "A6F4F1CF-B738-4D99-83C7-A0DEF7C73335";
paths = (
{
closed = 1;
nodes = (
"127 -115 LINE",
"135 -121 OFFCURVE",
"136 -114 OFFCURVE",
"133 -110 CURVE SMOOTH",
"117 -93 OFFCURVE",
"108 -59 OFFCURVE",
"107 -17 CURVE SMOOTH",
"105 73 OFFCURVE",
"181 178 OFFCURVE",
"268 178 CURVE SMOOTH",
"295 178 OFFCURVE",
"310 164 OFFCURVE",
"310 144 CURVE SMOOTH",
"310 92 OFFCURVE",
"210 1 OFFCURVE",
"123 1 CURVE SMOOTH",
"57 1 OFFCURVE",
"23 34 OFFCURVE",
"23 82 CURVE SMOOTH",
"23 168 OFFCURVE",
"139 269 OFFCURVE",
"245 269 CURVE SMOOTH",
"284 269 OFFCURVE",
"314 252 OFFCURVE",
"314 244 CURVE SMOOTH",
"314 239 OFFCURVE",
"311 239 OFFCURVE",
"307 239 CURVE SMOOTH",
"271 239 OFFCURVE",
"231 284 OFFCURVE",
"231 329 CURVE SMOOTH",
"231 388 OFFCURVE",
"328 521 OFFCURVE",
"447 521 CURVE SMOOTH",
"517 521 OFFCURVE",
"550 491 OFFCURVE",
"550 451 CURVE SMOOTH",
"550 374 OFFCURVE",
"405 317 OFFCURVE",
"292 317 CURVE SMOOTH",
"89 317 OFFCURVE",
"63 418 OFFCURVE",
"55 431 CURVE",
"48 437 OFFCURVE",
"43 435 OFFCURVE",
"47 425 CURVE SMOOTH",
"55 403 OFFCURVE",
"96 305 OFFCURVE",
"308 305 CURVE SMOOTH",
"454 305 OFFCURVE",
"564 378 OFFCURVE",
"564 447 CURVE SMOOTH",
"564 499 OFFCURVE",
"521 531 OFFCURVE",
"436 531 CURVE SMOOTH",
"310 531 OFFCURVE",
"197 445 OFFCURVE",
"197 335 CURVE SMOOTH",
"197 279 OFFCURVE",
"254 230 OFFCURVE",
"306 230 CURVE SMOOTH",
"315 230 OFFCURVE",
"323 233 OFFCURVE",
"323 242 CURVE SMOOTH",
"323 274 OFFCURVE",
"244 283 OFFCURVE",
"210 283 CURVE SMOOTH",
"92 283 OFFCURVE",
"-19 199 OFFCURVE",
"-19 98 CURVE SMOOTH",
"-19 20 OFFCURVE",
"57 -10 OFFCURVE",
"131 -10 CURVE SMOOTH",
"260 -10 OFFCURVE",
"327 74 OFFCURVE",
"327 127 CURVE SMOOTH",
"327 158 OFFCURVE",
"307 187 OFFCURVE",
"267 187 CURVE SMOOTH",
"170 187 OFFCURVE",
"97 77 OFFCURVE",
"97 -10 CURVE SMOOTH",
"97 -78 OFFCURVE",
"115 -107 OFFCURVE",
"127 -115 CURVE"
);
},
{
closed = 1;
nodes = (
"557 557 LINE",
"601 582 OFFCURVE",
"654 625 OFFCURVE",
"654 650 CURVE SMOOTH",
"654 667 OFFCURVE",
"647 673 OFFCURVE",
"638 673 CURVE SMOOTH",
"625 673 OFFCURVE",
"619 663 OFFCURVE",
"616 646 CURVE SMOOTH",
"612 621 OFFCURVE",
"594 588 OFFCURVE",
"553 565 CURVE SMOOTH",
"544 560 OFFCURVE",
"548 552 OFFCURVE",
"557 557 CURVE"
);
}
);
width = 447;
},
{
background = {
paths = (
{
closed = 1;
nodes = (
"544 569 OFFCURVE",
"548 561 OFFCURVE",
"557 566 CURVE SMOOTH",
"601 591 OFFCURVE",
"654 634 OFFCURVE",
"654 659 CURVE SMOOTH",
"654 676 OFFCURVE",
"647 682 OFFCURVE",
"638 682 CURVE SMOOTH",
"625 682 OFFCURVE",
"619 672 OFFCURVE",
"616 655 CURVE SMOOTH",
"612 630 OFFCURVE",
"594 597 OFFCURVE",
"553 574 CURVE SMOOTH"
);
}
);
};
layerId = "A92E3ADA-722A-4108-B621-F991B1803EEA";
paths = (
{
closed = 1;
nodes = (
"127 -115 LINE",
"135 -121 OFFCURVE",
"136 -114 OFFCURVE",
"133 -110 CURVE SMOOTH",
"117 -93 OFFCURVE",
"108 -59 OFFCURVE",
"107 -17 CURVE SMOOTH",
"105 73 OFFCURVE",
"181 178 OFFCURVE",
"268 178 CURVE SMOOTH",
"301 178 OFFCURVE",
"315 154 OFFCURVE",
"315 127 CURVE SMOOTH",
"315 79 OFFCURVE",
"254 0 OFFCURVE",
"131 0 CURVE SMOOTH",
"61 0 OFFCURVE",
"-6 28 OFFCURVE",
"-6 98 CURVE SMOOTH",
"-6 192 OFFCURVE",
"98 274 OFFCURVE",
"210 274 CURVE SMOOTH",
"253 274 OFFCURVE",
"314 257 OFFCURVE",
"314 244 CURVE SMOOTH",
"314 239 OFFCURVE",
"310 239 OFFCURVE",
"306 239 CURVE SMOOTH",
"260 239 OFFCURVE",
"209 287 OFFCURVE",
"209 335 CURVE SMOOTH",
"209 439 OFFCURVE",
"317 521 OFFCURVE",
"436 521 CURVE SMOOTH",
"514 521 OFFCURVE",
"553 493 OFFCURVE",
"553 447 CURVE SMOOTH",
"553 382 OFFCURVE",
"438 314 OFFCURVE",
"308 314 CURVE SMOOTH",
"105 314 OFFCURVE",
"64 411 OFFCURVE",
"55 431 CURVE SMOOTH",
"51 439 OFFCURVE",
"43 435 OFFCURVE",
"47 425 CURVE SMOOTH",
"55 403 OFFCURVE",
"96 305 OFFCURVE",
"308 305 CURVE SMOOTH",
"454 305 OFFCURVE",
"564 378 OFFCURVE",
"564 447 CURVE SMOOTH",
"564 499 OFFCURVE",
"521 531 OFFCURVE",
"436 531 CURVE SMOOTH",
"310 531 OFFCURVE",
"197 445 OFFCURVE",
"197 335 CURVE SMOOTH",
"197 279 OFFCURVE",
"254 230 OFFCURVE",
"306 230 CURVE SMOOTH",
"315 230 OFFCURVE",
"323 233 OFFCURVE",
"323 242 CURVE SMOOTH",
"323 265 OFFCURVE",
"260 283 OFFCURVE",
"210 283 CURVE SMOOTH",
"92 283 OFFCURVE",
"-19 199 OFFCURVE",
"-19 98 CURVE SMOOTH",
"-19 20 OFFCURVE",
"57 -10 OFFCURVE",
"131 -10 CURVE SMOOTH",
"260 -10 OFFCURVE",
"327 74 OFFCURVE",
"327 127 CURVE SMOOTH",
"327 158 OFFCURVE",
"307 187 OFFCURVE",
"267 187 CURVE SMOOTH",
"170 187 OFFCURVE",
"97 77 OFFCURVE",
"97 -10 CURVE SMOOTH",
"97 -78 OFFCURVE",
"115 -107 OFFCURVE",
"127 -115 CURVE"
);
},
{
closed = 1;
nodes = (
"557 557 LINE",
"601 582 OFFCURVE",
"648 629 OFFCURVE",
"648 654 CURVE SMOOTH",
"648 671 OFFCURVE",
"644 673 OFFCURVE",
"638 673 CURVE SMOOTH",
"628 673 OFFCURVE",
"624 658 OFFCURVE",
"621 641 CURVE SMOOTH",
"617 616 OFFCURVE",
"594 588 OFFCURVE",
"553 565 CURVE SMOOTH",
"544 560 OFFCURVE",
"548 552 OFFCURVE",
"557 557 CURVE"
);
}
);
width = 447;
}
);
note = Eacute;
unicode = 00C9;
},
{
glyphname = Ecircumflex;
lastChange = "2020-12-18 19:02:38 +0000";
layers = (
{
background = {
paths = (
{
closed = 1;
nodes = (
"508 604 OFFCURVE",
"533 624 QCURVE",
"536 608 LINE SMOOTH",
"538 597 OFFCURVE",
"546 581 QCURVE SMOOTH",
"560 554 OFFCURVE",
"575 554 QCURVE SMOOTH",
"578 554 OFFCURVE",
"581 558 OFFCURVE",
"581 561 OFFCURVE",
"579 563 QCURVE SMOOTH",
"563 579 OFFCURVE",
"563 620 QCURVE SMOOTH",
"563 646 OFFCURVE",
"572 667 QCURVE SMOOTH",
"575 674 OFFCURVE",
"575 679 QCURVE SMOOTH",
"575 681 OFFCURVE",
"572 681 QCURVE SMOOTH",
"566 681 OFFCURVE",
"549 663 QCURVE",
"522 638 OFFCURVE",
"496 617 QCURVE SMOOTH",
"448 578 LINE SMOOTH",
"425 559 OFFCURVE",
"424 556 QCURVE SMOOTH",
"423 554 OFFCURVE",
"432 554 OFFCURVE",
"447 564 QCURVE SMOOTH",
"485 589 LINE",
"485 589 LINE"
);
}
);
};
layerId = "A6F4F1CF-B738-4D99-83C7-A0DEF7C73335";
paths = (
{
closed = 1;
nodes = (
"127 -115 LINE",
"135 -121 OFFCURVE",
"136 -114 OFFCURVE",
"133 -110 CURVE SMOOTH",
"117 -93 OFFCURVE",
"108 -59 OFFCURVE",
"107 -17 CURVE SMOOTH",
"105 73 OFFCURVE",
"181 178 OFFCURVE",
"268 178 CURVE SMOOTH",
"295 178 OFFCURVE",
"310 164 OFFCURVE",
"310 144 CURVE SMOOTH",
"310 92 OFFCURVE",
"210 1 OFFCURVE",
"123 1 CURVE SMOOTH",
"57 1 OFFCURVE",
"23 34 OFFCURVE",
"23 82 CURVE SMOOTH",
"23 168 OFFCURVE",
"139 269 OFFCURVE",
"245 269 CURVE SMOOTH",
"284 269 OFFCURVE",
"314 252 OFFCURVE",
"314 244 CURVE SMOOTH",
"314 239 OFFCURVE",
"311 239 OFFCURVE",
"307 239 CURVE SMOOTH",
"271 239 OFFCURVE",
"231 284 OFFCURVE",
"231 329 CURVE SMOOTH",
"231 388 OFFCURVE",
"328 521 OFFCURVE",
"447 521 CURVE SMOOTH",
"517 521 OFFCURVE",
"550 491 OFFCURVE",
"550 451 CURVE SMOOTH",
"550 374 OFFCURVE",
"405 317 OFFCURVE",
"292 317 CURVE SMOOTH",
"89 317 OFFCURVE",
"63 418 OFFCURVE",
"55 431 CURVE",
"48 437 OFFCURVE",
"43 435 OFFCURVE",
"47 425 CURVE SMOOTH",
"55 403 OFFCURVE",
"96 305 OFFCURVE",
"308 305 CURVE SMOOTH",
"454 305 OFFCURVE",
"564 378 OFFCURVE",
"564 447 CURVE SMOOTH",
"564 499 OFFCURVE",
"521 531 OFFCURVE",
"436 531 CURVE SMOOTH",
"310 531 OFFCURVE",
"197 445 OFFCURVE",
"197 335 CURVE SMOOTH",
"197 279 OFFCURVE",
"254 230 OFFCURVE",
"306 230 CURVE SMOOTH",
"315 230 OFFCURVE",
"323 233 OFFCURVE",
"323 242 CURVE SMOOTH",
"323 274 OFFCURVE",
"244 283 OFFCURVE",
"210 283 CURVE SMOOTH",
"92 283 OFFCURVE",
"-19 199 OFFCURVE",
"-19 98 CURVE SMOOTH",
"-19 20 OFFCURVE",
"57 -10 OFFCURVE",
"131 -10 CURVE SMOOTH",
"260 -10 OFFCURVE",
"327 74 OFFCURVE",
"327 127 CURVE SMOOTH",
"327 158 OFFCURVE",
"307 187 OFFCURVE",
"267 187 CURVE SMOOTH",
"170 187 OFFCURVE",
"97 77 OFFCURVE",
"97 -10 CURVE SMOOTH",
"97 -78 OFFCURVE",
"115 -107 OFFCURVE",
"127 -115 CURVE"
);
},
{
closed = 1;
nodes = (
"567 545 LINE",
"577 541 OFFCURVE",
"585 547 OFFCURVE",
"579 552 CURVE SMOOTH",
"570 560 OFFCURVE",
"563 587 OFFCURVE",
"563 611 CURVE SMOOTH",
"563 633 OFFCURVE",
"570 653 OFFCURVE",
"574 664 CURVE SMOOTH",
"576 670 OFFCURVE",
"572 676 OFFCURVE",
"563 666 CURVE SMOOTH",
"529 628 OFFCURVE",
"446 569 OFFCURVE",
"429 552 CURVE SMOOTH",
"423 546 OFFCURVE",
"422 538 OFFCURVE",
"436 547 CURVE SMOOTH",
"455 559 OFFCURVE",
"526 609 OFFCURVE",
"533 614 CURVE",
"533 599 OFFCURVE",
"549 552 OFFCURVE",
"567 545 CURVE"
);
}
);
width = 563;
},
{
background = {
paths = (
{
closed = 1;
nodes = (
"63 427 OFFCURVE",
"89 326 OFFCURVE",
"292 326 CURVE SMOOTH",
"405 326 OFFCURVE",
"550 383 OFFCURVE",
"550 460 CURVE SMOOTH",
"550 500 OFFCURVE",
"517 530 OFFCURVE",
"447 530 CURVE SMOOTH",
"328 530 OFFCURVE",
"231 397 OFFCURVE",
"231 338 CURVE SMOOTH",
"231 293 OFFCURVE",
"271 248 OFFCURVE",
"307 248 CURVE SMOOTH",
"311 248 OFFCURVE",
"314 248 OFFCURVE",
"314 253 CURVE SMOOTH",
"314 261 OFFCURVE",
"284 278 OFFCURVE",
"245 278 CURVE SMOOTH",
"139 278 OFFCURVE",
"23 177 OFFCURVE",
"23 91 CURVE SMOOTH",
"23 43 OFFCURVE",
"57 10 OFFCURVE",
"123 10 CURVE SMOOTH",
"210 10 OFFCURVE",
"310 101 OFFCURVE",
"310 153 CURVE SMOOTH",
"310 173 OFFCURVE",
"295 187 OFFCURVE",
"268 187 CURVE SMOOTH",
"181 187 OFFCURVE",
"105 82 OFFCURVE",
"107 -8 CURVE SMOOTH",
"108 -50 OFFCURVE",
"117 -84 OFFCURVE",
"133 -101 CURVE SMOOTH",
"136 -105 OFFCURVE",
"135 -112 OFFCURVE",
"127 -106 CURVE SMOOTH",
"115 -98 OFFCURVE",
"97 -69 OFFCURVE",
"97 -1 CURVE SMOOTH",
"97 86 OFFCURVE",
"170 196 OFFCURVE",
"267 196 CURVE SMOOTH",
"307 196 OFFCURVE",
"327 167 OFFCURVE",
"327 136 CURVE SMOOTH",
"327 83 OFFCURVE",
"260 -1 OFFCURVE",
"131 -1 CURVE SMOOTH",
"57 -1 OFFCURVE",
"-19 29 OFFCURVE",
"-19 107 CURVE SMOOTH",
"-19 208 OFFCURVE",
"92 292 OFFCURVE",
"210 292 CURVE SMOOTH",
"244 292 OFFCURVE",
"323 283 OFFCURVE",
"323 251 CURVE SMOOTH",
"323 242 OFFCURVE",
"315 239 OFFCURVE",
"306 239 CURVE SMOOTH",
"254 239 OFFCURVE",
"197 288 OFFCURVE",
"197 344 CURVE SMOOTH",
"197 454 OFFCURVE",
"310 540 OFFCURVE",
"436 540 CURVE SMOOTH",
"521 540 OFFCURVE",
"564 508 OFFCURVE",
"564 456 CURVE SMOOTH",
"564 387 OFFCURVE",
"454 314 OFFCURVE",
"308 314 CURVE SMOOTH",
"96 314 OFFCURVE",
"55 412 OFFCURVE",
"47 434 CURVE SMOOTH",
"43 444 OFFCURVE",
"48 446 OFFCURVE",
"55 440 CURVE"
);
},
{
closed = 1;
nodes = (
"423 555 OFFCURVE",
"422 547 OFFCURVE",
"436 556 CURVE SMOOTH",
"455 568 OFFCURVE",
"526 618 OFFCURVE",
"533 623 CURVE",
"533 608 OFFCURVE",
"549 561 OFFCURVE",
"567 554 CURVE SMOOTH",
"577 550 OFFCURVE",
"585 556 OFFCURVE",
"579 561 CURVE SMOOTH",
"570 569 OFFCURVE",
"563 596 OFFCURVE",
"563 620 CURVE SMOOTH",
"563 642 OFFCURVE",
"570 662 OFFCURVE",
"574 673 CURVE SMOOTH",
"576 679 OFFCURVE",
"572 685 OFFCURVE",
"563 675 CURVE SMOOTH",
"529 637 OFFCURVE",
"446 578 OFFCURVE",
"429 561 CURVE SMOOTH"
);
}
);
};
layerId = "A92E3ADA-722A-4108-B621-F991B1803EEA";
paths = (
{
closed = 1;
nodes = (
"127 -115 LINE",
"135 -121 OFFCURVE",
"136 -114 OFFCURVE",
"133 -110 CURVE SMOOTH",
"117 -93 OFFCURVE",
"108 -59 OFFCURVE",
"107 -17 CURVE SMOOTH",
"105 73 OFFCURVE",
"181 178 OFFCURVE",
"268 178 CURVE SMOOTH",
"301 178 OFFCURVE",
"315 154 OFFCURVE",
"315 127 CURVE SMOOTH",
"315 79 OFFCURVE",
"254 0 OFFCURVE",
"131 0 CURVE SMOOTH",
"61 0 OFFCURVE",
"-6 28 OFFCURVE",
"-6 98 CURVE SMOOTH",
"-6 192 OFFCURVE",
"98 274 OFFCURVE",
"210 274 CURVE SMOOTH",
"253 274 OFFCURVE",
"314 257 OFFCURVE",
"314 244 CURVE SMOOTH",
"314 239 OFFCURVE",
"310 239 OFFCURVE",
"306 239 CURVE SMOOTH",
"260 239 OFFCURVE",
"209 287 OFFCURVE",
"209 335 CURVE SMOOTH",
"209 439 OFFCURVE",
"317 521 OFFCURVE",
"436 521 CURVE SMOOTH",
"514 521 OFFCURVE",
"553 493 OFFCURVE",
"553 447 CURVE SMOOTH",
"553 382 OFFCURVE",
"438 314 OFFCURVE",
"308 314 CURVE SMOOTH",
"105 314 OFFCURVE",
"64 411 OFFCURVE",
"55 431 CURVE SMOOTH",
"51 439 OFFCURVE",
"43 435 OFFCURVE",
"47 425 CURVE SMOOTH",
"55 403 OFFCURVE",
"96 305 OFFCURVE",
"308 305 CURVE SMOOTH",
"454 305 OFFCURVE",
"564 378 OFFCURVE",
"564 447 CURVE SMOOTH",
"564 499 OFFCURVE",
"521 531 OFFCURVE",
"436 531 CURVE SMOOTH",
"310 531 OFFCURVE",
"197 445 OFFCURVE",
"197 335 CURVE SMOOTH",
"197 279 OFFCURVE",
"254 230 OFFCURVE",
"306 230 CURVE SMOOTH",
"315 230 OFFCURVE",
"323 233 OFFCURVE",
"323 242 CURVE SMOOTH",
"323 265 OFFCURVE",
"260 283 OFFCURVE",
"210 283 CURVE SMOOTH",
"92 283 OFFCURVE",
"-19 199 OFFCURVE",
"-19 98 CURVE SMOOTH",
"-19 20 OFFCURVE",
"57 -10 OFFCURVE",
"131 -10 CURVE SMOOTH",
"260 -10 OFFCURVE",
"327 74 OFFCURVE",
"327 127 CURVE SMOOTH",
"327 158 OFFCURVE",
"307 187 OFFCURVE",
"267 187 CURVE SMOOTH",
"170 187 OFFCURVE",
"97 77 OFFCURVE",
"97 -10 CURVE SMOOTH",
"97 -78 OFFCURVE",
"115 -107 OFFCURVE",
"127 -115 CURVE"
);
},
{
closed = 1;
nodes = (
"436 547 LINE",
"457 560 OFFCURVE",
"530 615 OFFCURVE",
"558 645 CURVE",
"549 625 OFFCURVE",
"549 561 OFFCURVE",
"570 549 CURVE SMOOTH",
"580 543 OFFCURVE",
"585 547 OFFCURVE",
"579 552 CURVE SMOOTH",
"570 560 OFFCURVE",
"563 587 OFFCURVE",
"563 611 CURVE SMOOTH",
"563 633 OFFCURVE",
"570 653 OFFCURVE",
"574 664 CURVE SMOOTH",
"576 670 OFFCURVE",
"572 676 OFFCURVE",
"563 666 CURVE SMOOTH",
"519 617 OFFCURVE",
"446 569 OFFCURVE",
"429 552 CURVE SMOOTH",
"423 546 OFFCURVE",
"420 537 OFFCURVE",
"436 547 CURVE"
);
}
);
width = 563;
}
);
note = Ecircumflex;
unicode = 00CA;
},
{
glyphname = Edieresis;
lastChange = "2020-12-18 19:02:38 +0000";
layers = (
{
background = {
paths = (
{
closed = 1;
nodes = (
"107 -50 OFFCURVE",
"107 -10 QCURVE SMOOTH",
"107 -5 LINE SMOOTH",
"107 -2 OFFCURVE",
"107 1 QCURVE",
"121 0 LINE SMOOTH",
"206 -5 OFFCURVE",
"266 41 QCURVE SMOOTH",
"293 62 OFFCURVE",
"326 113 OFFCURVE",
"326 164 OFFCURVE",
"290 196 OFFCURVE",
"266 196 QCURVE SMOOTH",
"204 196 OFFCURVE",
"153 138 QCURVE SMOOTH",
"104 82 OFFCURVE",
"96 12 QCURVE",
"59 17 OFFCURVE",
"22 59 OFFCURVE",
"20 110 OFFCURVE",
"29 130 QCURVE SMOOTH",
"48 171 OFFCURVE",
"85 209 QCURVE SMOOTH",
"147 273 OFFCURVE",
"226 277 QCURVE",
"261 239 OFFCURVE",
"303 239 QCURVE SMOOTH",
"321 239 OFFCURVE",
"321 251 QCURVE SMOOTH",
"321 263 OFFCURVE",
"282 285 OFFCURVE",
"244 289 QCURVE",
"236 303 OFFCURVE",
"232 318 QCURVE",
"261 314 OFFCURVE",
"295 314 QCURVE SMOOTH",
"404 314 OFFCURVE",
"483 356 QCURVE SMOOTH",
"519 375 OFFCURVE",
"563 427 OFFCURVE",
"563 457 QCURVE SMOOTH",
"563 496 OFFCURVE",
"493 540 OFFCURVE",
"431 540 QCURVE SMOOTH",
"404 540 OFFCURVE",
"376 534 QCURVE SMOOTH",
"285 514 OFFCURVE",
"233 447 QCURVE SMOOTH",
"197 401 OFFCURVE",
"197 343 QCURVE SMOOTH",
"197 340 OFFCURVE",
"197 336 OFFCURVE",
"197 334 QCURVE",
"88 355 OFFCURVE",
"56 434 QCURVE SMOOTH",
"52 444 OFFCURVE",
"44 444 OFFCURVE",
"44 434 OFFCURVE",
"46 430 QCURVE",
"63 392 OFFCURVE",
"139 337 OFFCURVE",
"199 324 QCURVE",
"204 305 OFFCURVE",
"214 290 QCURVE",
"212 290 LINE SMOOTH",
"179 290 OFFCURVE",
"149 284 QCURVE SMOOTH",
"55 265 OFFCURVE",
"10 195 QCURVE SMOOTH",
"-20 149 OFFCURVE",
"-19 102 QCURVE SMOOTH",
"-18 62 OFFCURVE",
"13 35 QCURVE SMOOTH",
"45 8 OFFCURVE",
"96 2 QCURVE",
"96 -10 LINE SMOOTH",
"96 -36 OFFCURVE",
"103 -61 QCURVE SMOOTH",
"116 -108 OFFCURVE",
"128 -108 QCURVE SMOOTH",
"133 -108 OFFCURVE",
"133 -103 OFFCURVE",
"125 -95 OFFCURVE",
"120 -83 QCURVE",
"120 -83 LINE"
);
},
{
closed = 1;
nodes = (
"230 334 LINE SMOOTH",
"230 373 OFFCURVE",
"263 420 QCURVE SMOOTH",
"278 441 OFFCURVE",
"318 481 OFFCURVE",
"366 512 OFFCURVE",
"419 530 OFFCURVE",
"492 530 OFFCURVE",
"521 513 QCURVE SMOOTH",
"549 496 OFFCURVE",
"549 468 QCURVE SMOOTH",
"549 427 OFFCURVE",
"506 391 QCURVE SMOOTH",
"488 376 OFFCURVE",
"436 351 OFFCURVE",
"377 334 OFFCURVE",
"316 325 OFFCURVE",
"252 325 OFFCURVE",
"230 328 QCURVE",
"230 328 LINE"
);
},
{
closed = 1;
nodes = (
"277 278 OFFCURVE",
"296 267 QCURVE SMOOTH",
"303 263 OFFCURVE",
"313 255 OFFCURVE",
"313 247 OFFCURVE",
"307 247 QCURVE SMOOTH",
"279 247 OFFCURVE",
"253 277 QCURVE",
"253 277 LINE"
);
},
{
closed = 1;
nodes = (
"114 85 OFFCURVE",
"167 138 QCURVE SMOOTH",
"190 161 OFFCURVE",
"243 186 OFFCURVE",
"284 186 OFFCURVE",
"308 169 OFFCURVE",
"308 153 QCURVE SMOOTH",
"309 126 OFFCURVE",
"279 92 QCURVE SMOOTH",
"265 76 OFFCURVE",
"228 47 OFFCURVE",
"187 24 OFFCURVE",
"144 10 OFFCURVE",
"116 10 OFFCURVE",
"108 10 QCURVE",
"108 10 LINE"
);
},
{
closed = 1;
nodes = (
"558 610 OFFCURVE",
"552 597 OFFCURVE",
"552 580 OFFCURVE",
"565 566 OFFCURVE",
"583 566 OFFCURVE",
"596 572 OFFCURVE",
"607 582 OFFCURVE",
"614 595 OFFCURVE",
"614 613 OFFCURVE",
"601 626 OFFCURVE",
"575 626 OFFCURVE",
"563 615 QCURVE",
"563 615 LINE"
);
},
{
closed = 1;
nodes = (
"443 610 OFFCURVE",
"437 597 OFFCURVE",
"437 580 OFFCURVE",
"449 566 OFFCURVE",
"467 566 OFFCURVE",
"481 572 OFFCURVE",
"492 582 OFFCURVE",
"499 595 OFFCURVE",
"499 613 OFFCURVE",
"486 626 OFFCURVE",
"460 626 OFFCURVE",
"449 615 QCURVE",
"449 615 LINE"
);
}
);
};
layerId = "A6F4F1CF-B738-4D99-83C7-A0DEF7C73335";
paths = (
{
closed = 1;
nodes = (
"127 -115 LINE",
"135 -121 OFFCURVE",
"136 -114 OFFCURVE",
"133 -110 CURVE SMOOTH",
"117 -93 OFFCURVE",
"108 -59 OFFCURVE",
"107 -17 CURVE SMOOTH",
"105 73 OFFCURVE",
"181 178 OFFCURVE",
"268 178 CURVE SMOOTH",
"295 178 OFFCURVE",
"310 164 OFFCURVE",
"310 144 CURVE SMOOTH",
"310 92 OFFCURVE",
"210 1 OFFCURVE",
"123 1 CURVE SMOOTH",
"57 1 OFFCURVE",
"23 34 OFFCURVE",
"23 82 CURVE SMOOTH",
"23 168 OFFCURVE",
"139 269 OFFCURVE",
"245 269 CURVE SMOOTH",
"284 269 OFFCURVE",
"314 252 OFFCURVE",
"314 244 CURVE SMOOTH",
"314 239 OFFCURVE",
"311 239 OFFCURVE",
"307 239 CURVE SMOOTH",
"271 239 OFFCURVE",
"231 284 OFFCURVE",
"231 329 CURVE SMOOTH",
"231 388 OFFCURVE",
"328 521 OFFCURVE",
"447 521 CURVE SMOOTH",
"517 521 OFFCURVE",
"550 491 OFFCURVE",
"550 451 CURVE SMOOTH",
"550 374 OFFCURVE",
"405 317 OFFCURVE",
"292 317 CURVE SMOOTH",
"89 317 OFFCURVE",
"63 418 OFFCURVE",
"55 431 CURVE",
"48 437 OFFCURVE",
"43 435 OFFCURVE",
"47 425 CURVE SMOOTH",
"55 403 OFFCURVE",
"96 305 OFFCURVE",
"308 305 CURVE SMOOTH",
"454 305 OFFCURVE",
"564 378 OFFCURVE",
"564 447 CURVE SMOOTH",
"564 499 OFFCURVE",
"521 531 OFFCURVE",
"436 531 CURVE SMOOTH",
"310 531 OFFCURVE",
"197 445 OFFCURVE",
"197 335 CURVE SMOOTH",
"197 279 OFFCURVE",
"254 230 OFFCURVE",
"306 230 CURVE SMOOTH",
"315 230 OFFCURVE",
"323 233 OFFCURVE",
"323 242 CURVE SMOOTH",
"323 274 OFFCURVE",
"244 283 OFFCURVE",
"210 283 CURVE SMOOTH",
"92 283 OFFCURVE",
"-19 199 OFFCURVE",
"-19 98 CURVE SMOOTH",
"-19 20 OFFCURVE",
"57 -10 OFFCURVE",
"131 -10 CURVE SMOOTH",
"260 -10 OFFCURVE",
"327 74 OFFCURVE",
"327 127 CURVE SMOOTH",
"327 158 OFFCURVE",
"307 187 OFFCURVE",
"267 187 CURVE SMOOTH",
"170 187 OFFCURVE",
"97 77 OFFCURVE",
"97 -10 CURVE SMOOTH",
"97 -78 OFFCURVE",
"115 -107 OFFCURVE",
"127 -115 CURVE"
);
},
{
closed = 1;
nodes = (
"487 569 LINE",
"497.744 579.744 OFFCURVE",
"504.75 597.808 OFFCURVE",
"492.5 611 CURVE SMOOTH",
"488.167 615.667 OFFCURVE",
"481.667 618 OFFCURVE",
"473 618 CURVE SMOOTH",
"464.333 618 OFFCURVE",
"456.333 614 OFFCURVE",
"449 606 CURVE",
"437.915 597.132 OFFCURVE",
"431.55 577.87 OFFCURVE",
"443.5 565 CURVE SMOOTH",
"452.167 555.667 OFFCURVE",
"471 553 OFFCURVE",
"487 569 CURVE"
);
},
{
closed = 1;
nodes = (
"603 569 LINE",
"613.744 579.744 OFFCURVE",
"620.75 597.808 OFFCURVE",
"608.5 611 CURVE SMOOTH",
"599.833 620.333 OFFCURVE",
"580.333 620.667 OFFCURVE",
"563 606 CURVE SMOOTH",
"552.585 597.668 OFFCURVE",
"546.962 577.425 OFFCURVE",
"558.5 565 CURVE SMOOTH",
"567.167 555.667 OFFCURVE",
"587 553 OFFCURVE",
"603 569 CURVE"
);
}
);
width = 447;
},
{
background = {
paths = (
{
closed = 1;
nodes = (
"63 427 OFFCURVE",
"89 326 OFFCURVE",
"292 326 CURVE SMOOTH",
"405 326 OFFCURVE",
"550 383 OFFCURVE",
"550 460 CURVE SMOOTH",
"550 500 OFFCURVE",
"517 530 OFFCURVE",
"447 530 CURVE SMOOTH",
"328 530 OFFCURVE",
"231 397 OFFCURVE",
"231 338 CURVE SMOOTH",
"231 293 OFFCURVE",
"271 248 OFFCURVE",
"307 248 CURVE SMOOTH",
"311 248 OFFCURVE",
"314 248 OFFCURVE",
"314 253 CURVE SMOOTH",
"314 261 OFFCURVE",
"284 278 OFFCURVE",
"245 278 CURVE SMOOTH",
"139 278 OFFCURVE",
"23 177 OFFCURVE",
"23 91 CURVE SMOOTH",
"23 43 OFFCURVE",
"57 10 OFFCURVE",
"123 10 CURVE SMOOTH",
"210 10 OFFCURVE",
"310 101 OFFCURVE",
"310 153 CURVE SMOOTH",
"310 173 OFFCURVE",
"295 187 OFFCURVE",
"268 187 CURVE SMOOTH",
"181 187 OFFCURVE",
"105 82 OFFCURVE",
"107 -8 CURVE SMOOTH",
"108 -50 OFFCURVE",
"117 -84 OFFCURVE",
"133 -101 CURVE SMOOTH",
"136 -105 OFFCURVE",
"135 -112 OFFCURVE",
"127 -106 CURVE SMOOTH",
"115 -98 OFFCURVE",
"97 -69 OFFCURVE",
"97 -1 CURVE SMOOTH",
"97 86 OFFCURVE",
"170 196 OFFCURVE",
"267 196 CURVE SMOOTH",
"307 196 OFFCURVE",
"327 167 OFFCURVE",
"327 136 CURVE SMOOTH",
"327 83 OFFCURVE",
"260 -1 OFFCURVE",
"131 -1 CURVE SMOOTH",
"57 -1 OFFCURVE",
"-19 29 OFFCURVE",
"-19 107 CURVE SMOOTH",
"-19 208 OFFCURVE",
"92 292 OFFCURVE",
"210 292 CURVE SMOOTH",
"244 292 OFFCURVE",
"323 283 OFFCURVE",
"323 251 CURVE SMOOTH",
"323 242 OFFCURVE",
"315 239 OFFCURVE",
"306 239 CURVE SMOOTH",
"254 239 OFFCURVE",
"197 288 OFFCURVE",
"197 344 CURVE SMOOTH",
"197 454 OFFCURVE",
"310 540 OFFCURVE",
"436 540 CURVE SMOOTH",
"521 540 OFFCURVE",
"564 508 OFFCURVE",
"564 456 CURVE SMOOTH",
"564 387 OFFCURVE",
"454 314 OFFCURVE",
"308 314 CURVE SMOOTH",
"96 314 OFFCURVE",
"55 412 OFFCURVE",
"47 434 CURVE SMOOTH",
"43 444 OFFCURVE",
"48 446 OFFCURVE",
"55 440 CURVE"
);
},
{
closed = 1;
nodes = (
"608 583 OFFCURVE",
"615 596 OFFCURVE",
"615 613 OFFCURVE",
"602 627 OFFCURVE",
"576 626 OFFCURVE",
"563 615 QCURVE SMOOTH",
"558 611 OFFCURVE",
"552 598 OFFCURVE",
"552 581 OFFCURVE",
"565 567 OFFCURVE",
"591 566 OFFCURVE",
"603 578 QCURVE SMOOTH"
);
},
{
closed = 1;
nodes = (
"492 583 OFFCURVE",
"499 596 OFFCURVE",
"499 613 OFFCURVE",
"486 627 OFFCURVE",
"460 627 OFFCURVE",
"449 615 QCURVE",
"444 611 OFFCURVE",
"437 598 OFFCURVE",
"437 581 OFFCURVE",
"450 567 OFFCURVE",
"475 566 OFFCURVE",
"487 578 QCURVE SMOOTH"
);
}
);
};
layerId = "A92E3ADA-722A-4108-B621-F991B1803EEA";
paths = (
{
closed = 1;
nodes = (
"127 -115 LINE",
"135 -121 OFFCURVE",
"136 -114 OFFCURVE",
"133 -110 CURVE SMOOTH",
"117 -93 OFFCURVE",
"108 -59 OFFCURVE",
"107 -17 CURVE SMOOTH",
"105 73 OFFCURVE",
"181 178 OFFCURVE",
"268 178 CURVE SMOOTH",
"301 178 OFFCURVE",
"315 154 OFFCURVE",
"315 127 CURVE SMOOTH",
"315 79 OFFCURVE",
"254 0 OFFCURVE",
"131 0 CURVE SMOOTH",
"61 0 OFFCURVE",
"-6 28 OFFCURVE",
"-6 98 CURVE SMOOTH",
"-6 192 OFFCURVE",
"98 274 OFFCURVE",
"210 274 CURVE SMOOTH",
"253 274 OFFCURVE",
"314 257 OFFCURVE",
"314 244 CURVE SMOOTH",
"314 239 OFFCURVE",
"310 239 OFFCURVE",
"306 239 CURVE SMOOTH",
"260 239 OFFCURVE",
"209 287 OFFCURVE",
"209 335 CURVE SMOOTH",
"209 439 OFFCURVE",
"317 521 OFFCURVE",
"436 521 CURVE SMOOTH",
"514 521 OFFCURVE",
"553 493 OFFCURVE",
"553 447 CURVE SMOOTH",
"553 382 OFFCURVE",
"438 314 OFFCURVE",
"308 314 CURVE SMOOTH",
"105 314 OFFCURVE",
"64 411 OFFCURVE",
"55 431 CURVE SMOOTH",
"51 439 OFFCURVE",
"43 435 OFFCURVE",
"47 425 CURVE SMOOTH",
"55 403 OFFCURVE",
"96 305 OFFCURVE",
"308 305 CURVE SMOOTH",
"454 305 OFFCURVE",
"564 378 OFFCURVE",
"564 447 CURVE SMOOTH",
"564 499 OFFCURVE",
"521 531 OFFCURVE",
"436 531 CURVE SMOOTH",
"310 531 OFFCURVE",
"197 445 OFFCURVE",
"197 335 CURVE SMOOTH",
"197 279 OFFCURVE",
"254 230 OFFCURVE",
"306 230 CURVE SMOOTH",
"315 230 OFFCURVE",
"323 233 OFFCURVE",
"323 242 CURVE SMOOTH",
"323 265 OFFCURVE",
"260 283 OFFCURVE",
"210 283 CURVE SMOOTH",
"92 283 OFFCURVE",
"-19 199 OFFCURVE",
"-19 98 CURVE SMOOTH",
"-19 20 OFFCURVE",
"57 -10 OFFCURVE",
"131 -10 CURVE SMOOTH",
"260 -10 OFFCURVE",
"327 74 OFFCURVE",
"327 127 CURVE SMOOTH",
"327 158 OFFCURVE",
"307 187 OFFCURVE",
"267 187 CURVE SMOOTH",
"170 187 OFFCURVE",
"97 77 OFFCURVE",
"97 -10 CURVE SMOOTH",
"97 -78 OFFCURVE",
"115 -107 OFFCURVE",
"127 -115 CURVE"
);
},
{
closed = 1;
nodes = (
"487 569 LINE",
"497.744 579.744 OFFCURVE",
"504.75 597.808 OFFCURVE",
"492.5 611 CURVE SMOOTH",
"488.167 615.667 OFFCURVE",
"481.667 618 OFFCURVE",
"473 618 CURVE SMOOTH",
"464.333 618 OFFCURVE",
"456.333 614 OFFCURVE",
"449 606 CURVE",
"437.915 597.132 OFFCURVE",
"431.55 577.87 OFFCURVE",
"443.5 565 CURVE SMOOTH",
"452.167 555.667 OFFCURVE",
"471 553 OFFCURVE",
"487 569 CURVE"
);
},
{
closed = 1;
nodes = (
"603 569 LINE",
"613.744 579.744 OFFCURVE",
"620.75 597.808 OFFCURVE",
"608.5 611 CURVE SMOOTH",
"599.833 620.333 OFFCURVE",
"580.333 620.667 OFFCURVE",
"563 606 CURVE SMOOTH",
"552.585 597.668 OFFCURVE",
"546.962 577.425 OFFCURVE",
"558.5 565 CURVE SMOOTH",
"567.167 555.667 OFFCURVE",
"587 553 OFFCURVE",
"603 569 CURVE"
);
}
);
width = 447;
}
);
note = Edieresis;
unicode = 00CB;
},
{
glyphname = Egrave;
lastChange = "2020-12-18 19:02:38 +0000";
layers = (
{
background = {
paths = (
{
closed = 1;
nodes = (
"530 569 OFFCURVE",
"528 570 QCURVE SMOOTH",
"520 577 LINE",
"493 592 OFFCURVE",
"476 616 QCURVE SMOOTH",
"467 629 OFFCURVE",
"462 654 QCURVE SMOOTH",
"457 681 OFFCURVE",
"424 681 OFFCURVE",
"423 642 OFFCURVE",
"449 616 QCURVE SMOOTH",
"460 605 OFFCURVE",
"489 580 OFFCURVE",
"522 563 OFFCURVE",
"526 563 QCURVE SMOOTH",
"530 563 OFFCURVE",
"530 567 QCURVE",
"530 567 LINE"
);
},
{
closed = 1;
nodes = (
"107 -50 OFFCURVE",
"107 -10 QCURVE SMOOTH",
"107 -5 LINE SMOOTH",
"107 -2 OFFCURVE",
"107 1 QCURVE",
"121 0 LINE SMOOTH",
"206 -6 OFFCURVE",
"266 41 QCURVE SMOOTH",
"293 62 OFFCURVE",
"326 113 OFFCURVE",
"326 164 OFFCURVE",
"290 196 OFFCURVE",
"266 196 QCURVE SMOOTH",
"204 196 OFFCURVE",
"153 138 QCURVE SMOOTH",
"104 82 OFFCURVE",
"96 12 QCURVE",
"59 17 OFFCURVE",
"22 59 OFFCURVE",
"20 110 OFFCURVE",
"29 130 QCURVE SMOOTH",
"48 171 OFFCURVE",
"85 209 QCURVE SMOOTH",
"147 273 OFFCURVE",
"226 277 QCURVE",
"261 239 OFFCURVE",
"303 239 QCURVE SMOOTH",
"321 239 OFFCURVE",
"321 251 QCURVE SMOOTH",
"321 263 OFFCURVE",
"282 285 OFFCURVE",
"244 289 QCURVE",
"236 303 OFFCURVE",
"232 318 QCURVE",
"261 314 OFFCURVE",
"295 314 QCURVE SMOOTH",
"404 314 OFFCURVE",
"483 356 QCURVE SMOOTH",
"519 375 OFFCURVE",
"563 427 OFFCURVE",
"563 457 QCURVE SMOOTH",
"563 496 OFFCURVE",
"493 540 OFFCURVE",
"431 540 QCURVE SMOOTH",
"404 540 OFFCURVE",
"376 534 QCURVE SMOOTH",
"285 514 OFFCURVE",
"233 447 QCURVE SMOOTH",
"197 401 OFFCURVE",
"197 343 QCURVE SMOOTH",
"197 340 OFFCURVE",
"197 336 OFFCURVE",
"197 334 QCURVE",
"88 355 OFFCURVE",
"56 434 QCURVE SMOOTH",
"52 444 OFFCURVE",
"44 444 OFFCURVE",
"44 434 OFFCURVE",
"46 430 QCURVE",
"63 392 OFFCURVE",
"139 337 OFFCURVE",
"199 324 QCURVE",
"204 305 OFFCURVE",
"214 290 QCURVE",
"212 290 LINE SMOOTH",
"179 290 OFFCURVE",
"149 284 QCURVE SMOOTH",
"55 265 OFFCURVE",
"10 195 QCURVE SMOOTH",
"-20 149 OFFCURVE",
"-19 102 QCURVE SMOOTH",
"-18 62 OFFCURVE",
"13 35 QCURVE SMOOTH",
"45 8 OFFCURVE",
"96 2 QCURVE",
"96 -10 LINE SMOOTH",
"96 -36 OFFCURVE",
"103 -61 QCURVE SMOOTH",
"116 -108 OFFCURVE",
"128 -108 QCURVE SMOOTH",
"133 -108 OFFCURVE",
"133 -103 OFFCURVE",
"125 -95 OFFCURVE",
"120 -83 QCURVE",
"120 -83 LINE"
);
},
{
closed = 1;
nodes = (
"230 334 LINE SMOOTH",
"230 373 OFFCURVE",
"263 420 QCURVE SMOOTH",
"278 441 OFFCURVE",
"318 481 OFFCURVE",
"366 512 OFFCURVE",
"419 530 OFFCURVE",
"492 530 OFFCURVE",
"521 513 QCURVE SMOOTH",
"549 496 OFFCURVE",
"549 468 QCURVE SMOOTH",
"549 427 OFFCURVE",
"506 391 QCURVE SMOOTH",
"488 376 OFFCURVE",
"436 351 OFFCURVE",
"377 334 OFFCURVE",
"316 325 OFFCURVE",
"252 325 OFFCURVE",
"230 328 QCURVE",
"230 328 LINE"
);
},
{
closed = 1;
nodes = (
"277 278 OFFCURVE",
"296 267 QCURVE SMOOTH",
"303 263 OFFCURVE",
"313 255 OFFCURVE",
"313 247 OFFCURVE",
"307 247 QCURVE SMOOTH",
"279 247 OFFCURVE",
"253 277 QCURVE",
"253 277 LINE"
);
},
{
closed = 1;
nodes = (
"114 85 OFFCURVE",
"167 138 QCURVE SMOOTH",
"190 161 OFFCURVE",
"243 186 OFFCURVE",
"284 186 OFFCURVE",
"308 169 OFFCURVE",
"308 153 QCURVE SMOOTH",
"308 126 OFFCURVE",
"279 92 QCURVE SMOOTH",
"265 76 OFFCURVE",
"228 47 OFFCURVE",
"187 24 OFFCURVE",
"144 10 OFFCURVE",
"116 10 OFFCURVE",
"108 10 QCURVE",
"108 10 LINE"
);
}
);
};
layerId = "A6F4F1CF-B738-4D99-83C7-A0DEF7C73335";
paths = (
{
closed = 1;
nodes = (
"127 -115 LINE",
"135 -121 OFFCURVE",
"136 -114 OFFCURVE",
"133 -110 CURVE SMOOTH",
"117 -93 OFFCURVE",
"108 -59 OFFCURVE",
"107 -17 CURVE SMOOTH",
"105 73 OFFCURVE",
"181 178 OFFCURVE",
"268 178 CURVE SMOOTH",
"295 178 OFFCURVE",
"310 164 OFFCURVE",
"310 144 CURVE SMOOTH",
"310 92 OFFCURVE",
"210 1 OFFCURVE",
"123 1 CURVE SMOOTH",
"57 1 OFFCURVE",
"23 34 OFFCURVE",
"23 82 CURVE SMOOTH",
"23 168 OFFCURVE",
"139 269 OFFCURVE",
"245 269 CURVE SMOOTH",
"284 269 OFFCURVE",
"314 252 OFFCURVE",
"314 244 CURVE SMOOTH",
"314 239 OFFCURVE",
"311 239 OFFCURVE",
"307 239 CURVE SMOOTH",
"271 239 OFFCURVE",
"231 284 OFFCURVE",
"231 329 CURVE SMOOTH",
"231 388 OFFCURVE",
"328 521 OFFCURVE",
"447 521 CURVE SMOOTH",
"517 521 OFFCURVE",
"550 491 OFFCURVE",
"550 451 CURVE SMOOTH",
"550 374 OFFCURVE",
"405 317 OFFCURVE",
"292 317 CURVE SMOOTH",
"89 317 OFFCURVE",
"63 418 OFFCURVE",
"55 431 CURVE",
"48 437 OFFCURVE",
"43 435 OFFCURVE",
"47 425 CURVE SMOOTH",
"55 403 OFFCURVE",
"96 305 OFFCURVE",
"308 305 CURVE SMOOTH",
"454 305 OFFCURVE",
"564 378 OFFCURVE",
"564 447 CURVE SMOOTH",
"564 499 OFFCURVE",
"521 531 OFFCURVE",
"436 531 CURVE SMOOTH",
"310 531 OFFCURVE",
"197 445 OFFCURVE",
"197 335 CURVE SMOOTH",
"197 279 OFFCURVE",
"254 230 OFFCURVE",
"306 230 CURVE SMOOTH",
"315 230 OFFCURVE",
"323 233 OFFCURVE",
"323 242 CURVE SMOOTH",
"323 274 OFFCURVE",
"244 283 OFFCURVE",
"210 283 CURVE SMOOTH",
"92 283 OFFCURVE",
"-19 199 OFFCURVE",
"-19 98 CURVE SMOOTH",
"-19 20 OFFCURVE",
"57 -10 OFFCURVE",
"131 -10 CURVE SMOOTH",
"260 -10 OFFCURVE",
"327 74 OFFCURVE",
"327 127 CURVE SMOOTH",
"327 158 OFFCURVE",
"307 187 OFFCURVE",
"267 187 CURVE SMOOTH",
"170 187 OFFCURVE",
"97 77 OFFCURVE",
"97 -10 CURVE SMOOTH",
"97 -78 OFFCURVE",
"115 -107 OFFCURVE",
"127 -115 CURVE"
);
},
{
closed = 1;
nodes = (
"522 554 LINE",
"530 551 OFFCURVE",
"535 558 OFFCURVE",
"524 564 CURVE SMOOTH",
"491 582 OFFCURVE",
"470 602 OFFCURVE",
"461 647 CURVE SMOOTH",
"458 662 OFFCURVE",
"454 673 OFFCURVE",
"437 673 CURVE SMOOTH",
"427 673 OFFCURVE",
"422 660 OFFCURVE",
"422 653 CURVE SMOOTH",
"422 616 OFFCURVE",
"497 563 OFFCURVE",
"522 554 CURVE"
);
}
);
width = 447;
},
{
background = {
paths = (
{
closed = 1;
nodes = (
"63 427 OFFCURVE",
"89 326 OFFCURVE",
"292 326 CURVE SMOOTH",
"405 326 OFFCURVE",
"550 383 OFFCURVE",
"550 460 CURVE SMOOTH",
"550 500 OFFCURVE",
"517 530 OFFCURVE",
"447 530 CURVE SMOOTH",
"328 530 OFFCURVE",
"231 397 OFFCURVE",
"231 338 CURVE SMOOTH",
"231 293 OFFCURVE",
"271 248 OFFCURVE",
"307 248 CURVE SMOOTH",
"311 248 OFFCURVE",
"314 248 OFFCURVE",
"314 253 CURVE SMOOTH",
"314 261 OFFCURVE",
"284 278 OFFCURVE",
"245 278 CURVE SMOOTH",
"139 278 OFFCURVE",
"23 177 OFFCURVE",
"23 91 CURVE SMOOTH",
"23 43 OFFCURVE",
"57 10 OFFCURVE",
"123 10 CURVE SMOOTH",
"210 10 OFFCURVE",
"310 101 OFFCURVE",
"310 153 CURVE SMOOTH",
"310 173 OFFCURVE",
"295 187 OFFCURVE",
"268 187 CURVE SMOOTH",
"181 187 OFFCURVE",
"105 82 OFFCURVE",
"107 -8 CURVE SMOOTH",
"108 -50 OFFCURVE",
"117 -84 OFFCURVE",
"133 -101 CURVE SMOOTH",
"136 -105 OFFCURVE",
"135 -112 OFFCURVE",
"127 -106 CURVE SMOOTH",
"115 -98 OFFCURVE",
"97 -69 OFFCURVE",
"97 -1 CURVE SMOOTH",
"97 86 OFFCURVE",
"170 196 OFFCURVE",
"267 196 CURVE SMOOTH",
"307 196 OFFCURVE",
"327 167 OFFCURVE",
"327 136 CURVE SMOOTH",
"327 83 OFFCURVE",
"260 -1 OFFCURVE",
"131 -1 CURVE SMOOTH",
"57 -1 OFFCURVE",
"-19 29 OFFCURVE",
"-19 107 CURVE SMOOTH",
"-19 208 OFFCURVE",
"92 292 OFFCURVE",
"210 292 CURVE SMOOTH",
"244 292 OFFCURVE",
"323 283 OFFCURVE",
"323 251 CURVE SMOOTH",
"323 242 OFFCURVE",
"315 239 OFFCURVE",
"306 239 CURVE SMOOTH",
"254 239 OFFCURVE",
"197 288 OFFCURVE",
"197 344 CURVE SMOOTH",
"197 454 OFFCURVE",
"310 540 OFFCURVE",
"436 540 CURVE SMOOTH",
"521 540 OFFCURVE",
"564 508 OFFCURVE",
"564 456 CURVE SMOOTH",
"564 387 OFFCURVE",
"454 314 OFFCURVE",
"308 314 CURVE SMOOTH",
"96 314 OFFCURVE",
"55 412 OFFCURVE",
"47 434 CURVE SMOOTH",
"43 444 OFFCURVE",
"48 446 OFFCURVE",
"55 440 CURVE"
);
},
{
closed = 1;
nodes = (
"422 625 OFFCURVE",
"497 572 OFFCURVE",
"522 563 CURVE SMOOTH",
"530 560 OFFCURVE",
"535 567 OFFCURVE",
"524 573 CURVE SMOOTH",
"491 591 OFFCURVE",
"470 611 OFFCURVE",
"461 656 CURVE SMOOTH",
"458 671 OFFCURVE",
"454 682 OFFCURVE",
"437 682 CURVE SMOOTH",
"427 682 OFFCURVE",
"422 669 OFFCURVE",
"422 662 CURVE SMOOTH"
);
}
);
};
layerId = "A92E3ADA-722A-4108-B621-F991B1803EEA";
paths = (
{
closed = 1;
nodes = (
"127 -115 LINE",
"135 -121 OFFCURVE",
"136 -114 OFFCURVE",
"133 -110 CURVE SMOOTH",
"117 -93 OFFCURVE",
"108 -59 OFFCURVE",
"107 -17 CURVE SMOOTH",
"105 73 OFFCURVE",
"181 178 OFFCURVE",
"268 178 CURVE SMOOTH",
"301 178 OFFCURVE",
"315 154 OFFCURVE",
"315 127 CURVE SMOOTH",
"315 79 OFFCURVE",
"254 0 OFFCURVE",
"131 0 CURVE SMOOTH",
"61 0 OFFCURVE",
"-6 28 OFFCURVE",
"-6 98 CURVE SMOOTH",
"-6 192 OFFCURVE",
"98 274 OFFCURVE",
"210 274 CURVE SMOOTH",
"253 274 OFFCURVE",
"314 257 OFFCURVE",
"314 244 CURVE SMOOTH",
"314 239 OFFCURVE",
"310 239 OFFCURVE",
"306 239 CURVE SMOOTH",
"260 239 OFFCURVE",
"209 287 OFFCURVE",
"209 335 CURVE SMOOTH",
"209 439 OFFCURVE",
"317 521 OFFCURVE",
"436 521 CURVE SMOOTH",
"514 521 OFFCURVE",
"553 493 OFFCURVE",
"553 447 CURVE SMOOTH",
"553 382 OFFCURVE",
"438 314 OFFCURVE",
"308 314 CURVE SMOOTH",
"105 314 OFFCURVE",
"64 411 OFFCURVE",
"55 431 CURVE SMOOTH",
"51 439 OFFCURVE",
"43 435 OFFCURVE",
"47 425 CURVE SMOOTH",
"55 403 OFFCURVE",
"96 305 OFFCURVE",
"308 305 CURVE SMOOTH",
"454 305 OFFCURVE",
"564 378 OFFCURVE",
"564 447 CURVE SMOOTH",
"564 499 OFFCURVE",
"521 531 OFFCURVE",
"436 531 CURVE SMOOTH",
"310 531 OFFCURVE",
"197 445 OFFCURVE",
"197 335 CURVE SMOOTH",
"197 279 OFFCURVE",
"254 230 OFFCURVE",
"306 230 CURVE SMOOTH",
"315 230 OFFCURVE",
"323 233 OFFCURVE",
"323 242 CURVE SMOOTH",
"323 265 OFFCURVE",
"260 283 OFFCURVE",
"210 283 CURVE SMOOTH",
"92 283 OFFCURVE",
"-19 199 OFFCURVE",
"-19 98 CURVE SMOOTH",
"-19 20 OFFCURVE",
"57 -10 OFFCURVE",
"131 -10 CURVE SMOOTH",
"260 -10 OFFCURVE",
"327 74 OFFCURVE",
"327 127 CURVE SMOOTH",
"327 158 OFFCURVE",
"307 187 OFFCURVE",
"267 187 CURVE SMOOTH",
"170 187 OFFCURVE",
"97 77 OFFCURVE",
"97 -10 CURVE SMOOTH",
"97 -78 OFFCURVE",
"115 -107 OFFCURVE",
"127 -115 CURVE"
);
},
{
closed = 1;
nodes = (
"521 554 LINE",
"529 551 OFFCURVE",
"534 558 OFFCURVE",
"523 564 CURVE SMOOTH",
"490 582 OFFCURVE",
"459 602 OFFCURVE",
"453 647 CURVE SMOOTH",
"451 662 OFFCURVE",
"446 673 OFFCURVE",
"436 673 CURVE SMOOTH",
"429 673 OFFCURVE",
"427 662 OFFCURVE",
"427 655 CURVE SMOOTH",
"427 618 OFFCURVE",
"496 563 OFFCURVE",
"521 554 CURVE"
);
}
);
width = 447;
}
);
note = Egrave;
unicode = 00C8;
},
{
glyphname = F;
lastChange = "2020-12-18 19:02:38 +0000";
layers = (
{
background = {
paths = (
{
closed = 1;
nodes = (
"220 523 OFFCURVE",
"266 568 QCURVE SMOOTH",
"288 589 OFFCURVE",
"347 625 OFFCURVE",
"416 652 OFFCURVE",
"492 668 OFFCURVE",
"572 668 OFFCURVE",
"699 652 QCURVE SMOOTH",
"764 644 OFFCURVE",
"806 644 QCURVE SMOOTH",
"983 644 OFFCURVE",
"1063 773 QCURVE",
"1068 778 OFFCURVE",
"1068 783 QCURVE SMOOTH",
"1068 786 OFFCURVE",
"1058 786 OFFCURVE",
"1052 778 QCURVE SMOOTH",
"1028 737 OFFCURVE",
"985 714 QCURVE SMOOTH",
"962 702 OFFCURVE",
"904 689 OFFCURVE",
"835 689 OFFCURVE",
"738 700 QCURVE SMOOTH",
"689 706 OFFCURVE",
"653 706 QCURVE SMOOTH",
"543 706 OFFCURVE",
"472 690 QCURVE SMOOTH",
"353 662 OFFCURVE",
"278 599 QCURVE SMOOTH",
"243 570 OFFCURVE",
"206 506 OFFCURVE",
"206 442 OFFCURVE",
"251 406 OFFCURVE",
"338 406 OFFCURVE",
"388 435 QCURVE SMOOTH",
"412 449 OFFCURVE",
"454 487 OFFCURVE",
"485 531 OFFCURVE",
"503 579 OFFCURVE",
"503 615 OFFCURVE",
"498 615 QCURVE SMOOTH",
"495 615 OFFCURVE",
"493 598 QCURVE SMOOTH",
"492 587 OFFCURVE",
"459 527 OFFCURVE",
"415 489 QCURVE SMOOTH",
"341 425 OFFCURVE",
"273 425 QCURVE SMOOTH",
"220 425 OFFCURVE",
"220 480 QCURVE",
"220 480 LINE"
);
},
{
closed = 1;
nodes = (
"-50 103 OFFCURVE",
"-50 72 QCURVE SMOOTH",
"-50 43 OFFCURVE",
"-14 20 QCURVE SMOOTH",
"21 -1 OFFCURVE",
"66 -1 QCURVE SMOOTH",
"183 -1 OFFCURVE",
"276 69 QCURVE SMOOTH",
"327 107 OFFCURVE",
"445 250 OFFCURVE",
"492 334 QCURVE",
"556 348 LINE SMOOTH",
"588 355 OFFCURVE",
"608 361 QCURVE",
"595 342 OFFCURVE",
"560 266 OFFCURVE",
"560 255 QCURVE SMOOTH",
"560 248 OFFCURVE",
"566 248 QCURVE SMOOTH",
"569 248 OFFCURVE",
"572 251 OFFCURVE",
"584 280 OFFCURVE",
"599 302 QCURVE SMOOTH",
"647 373 OFFCURVE",
"705 400 QCURVE",
"701 401 OFFCURVE",
"649 407 OFFCURVE",
"629 407 QCURVE",
"623 394 OFFCURVE",
"612 387 QCURVE",
"577 375 OFFCURVE",
"507 357 QCURVE",
"570 454 OFFCURVE",
"638 516 QCURVE SMOOTH",
"672 547 OFFCURVE",
"736 588 OFFCURVE",
"778 600 OFFCURVE",
"786 602 OFFCURVE",
"786 609 OFFCURVE",
"774 609 QCURVE SMOOTH",
"713 609 OFFCURVE",
"621 544 QCURVE SMOOTH",
"511 467 OFFCURVE",
"428 338 QCURVE",
"427 337 OFFCURVE",
"426 337 QCURVE",
"314 314 OFFCURVE",
"230 267 QCURVE SMOOTH",
"149 221 OFFCURVE",
"130 176 QCURVE",
"126 172 OFFCURVE",
"126 166 QCURVE SMOOTH",
"126 163 OFFCURVE",
"133 163 OFFCURVE",
"143 180 QCURVE SMOOTH",
"150 193 OFFCURVE",
"172 212 QCURVE SMOOTH",
"247 280 OFFCURVE",
"416 317 QCURVE",
"415 316 OFFCURVE",
"413 313 QCURVE SMOOTH",
"341 191 OFFCURVE",
"276 121 QCURVE SMOOTH",
"246 88 OFFCURVE",
"190 45 OFFCURVE",
"139 21 OFFCURVE",
"92 12 OFFCURVE",
"27 12 OFFCURVE",
"-1 28 QCURVE SMOOTH",
"-30 44 OFFCURVE",
"-30 68 QCURVE SMOOTH",
"-30 70 LINE",
"-22 65 OFFCURVE",
"5 65 OFFCURVE",
"22 80 OFFCURVE",
"22 102 OFFCURVE",
"5 113 OFFCURVE",
"-11 113 OFFCURVE",
"-20 111 QCURVE",
"-20 111 LINE"
);
}
);
};
layerId = "A6F4F1CF-B738-4D99-83C7-A0DEF7C73335";
paths = (
{
closed = 1;
nodes = (
"43 -9 LINE",
"184 -9 OFFCURVE",
"282 106 OFFCURVE",
"347 213 CURVE SMOOTH",
"426 344 OFFCURVE",
"515 440 OFFCURVE",
"582 450 CURVE SMOOTH",
"598 453 OFFCURVE",
"598 460 OFFCURVE",
"582 459 CURVE SMOOTH",
"500 456 OFFCURVE",
"377 351 OFFCURVE",
"305 229 CURVE SMOOTH",
"232 106 OFFCURVE",
"149 0 OFFCURVE",
"40 0 CURVE SMOOTH",
"8 0 OFFCURVE",
"-35 13 OFFCURVE",
"-35 46 CURVE",
"-35 46 OFFCURVE",
"-28 41 OFFCURVE",
"-16 41 CURVE SMOOTH",
"-6 41 OFFCURVE",
"5 49 OFFCURVE",
"5 59 CURVE SMOOTH",
"5 72 OFFCURVE",
"-3 78 OFFCURVE",
"-15 78 CURVE SMOOTH",
"-35 78 OFFCURVE",
"-50 67 OFFCURVE",
"-50 46 CURVE SMOOTH",
"-50 29 OFFCURVE",
"-27 -9 OFFCURVE",
"43 -9 CURVE"
);
},
{
closed = 1;
nodes = (
"88 125 LINE",
"82 114 OFFCURVE",
"93 119 OFFCURVE",
"97 126 CURVE SMOOTH",
"160 229 OFFCURVE",
"410 249 OFFCURVE",
"456 269 CURVE",
"444 255 OFFCURVE",
"422 207 OFFCURVE",
"420 192 CURVE SMOOTH",
"418 178 OFFCURVE",
"428 180 OFFCURVE",
"430 188 CURVE SMOOTH",
"437 213 OFFCURVE",
"490 284 OFFCURVE",
"531 299 CURVE",
"515 302 OFFCURVE",
"483 304 OFFCURVE",
"472 304 CURVE",
"472 304 OFFCURVE",
"471 300 OFFCURVE",
"468 296 CURVE SMOOTH",
"465 292 OFFCURVE",
"459 289 OFFCURVE",
"445 284 CURVE SMOOTH",
"367 254 OFFCURVE",
"144 235 OFFCURVE",
"88 125 CURVE"
);
},
{
closed = 1;
nodes = (
"215 303 LINE",
"295 303 OFFCURVE",
"382 394 OFFCURVE",
"375 458 CURVE SMOOTH",
"374 465 OFFCURVE",
"369 469 OFFCURVE",
"369 456 CURVE SMOOTH",
"369 420 OFFCURVE",
"280 318 OFFCURVE",
"202 318 CURVE SMOOTH",
"163 318 OFFCURVE",
"158 343 OFFCURVE",
"158 360 CURVE SMOOTH",
"158 434 OFFCURVE",
"293 505 OFFCURVE",
"385 505 CURVE SMOOTH",
"441 505 OFFCURVE",
"564 486 OFFCURVE",
"611 486 CURVE SMOOTH",
"756 486 OFFCURVE",
"800 576 OFFCURVE",
"808 587 CURVE SMOOTH",
"814 596 OFFCURVE",
"805 601 OFFCURVE",
"798 589 CURVE",
"797 588 OFFCURVE",
"767 522 OFFCURVE",
"662 522 CURVE SMOOTH",
"595 522 OFFCURVE",
"535 535 OFFCURVE",
"495 535 CURVE SMOOTH",
"233 535 OFFCURVE",
"147 417 OFFCURVE",
"147 356 CURVE SMOOTH",
"147 311 OFFCURVE",
"187 303 OFFCURVE",
"215 303 CURVE"
);
}
);
width = 540;
},
{
background = {
paths = (
{
closed = 1;
nodes = (
"184 0 OFFCURVE",
"282 115 OFFCURVE",
"347 222 CURVE SMOOTH",
"426 353 OFFCURVE",
"515 449 OFFCURVE",
"582 459 CURVE SMOOTH",
"598 462 OFFCURVE",
"598 469 OFFCURVE",
"582 468 CURVE SMOOTH",
"500 465 OFFCURVE",
"377 360 OFFCURVE",
"305 238 CURVE SMOOTH",
"232 115 OFFCURVE",
"149 9 OFFCURVE",
"40 9 CURVE SMOOTH",
"8 9 OFFCURVE",
"-35 22 OFFCURVE",
"-35 55 CURVE",
"-35 55 OFFCURVE",
"-28 50 OFFCURVE",
"-16 50 CURVE SMOOTH",
"-6 50 OFFCURVE",
"5 58 OFFCURVE",
"5 68 CURVE SMOOTH",
"5 81 OFFCURVE",
"-3 87 OFFCURVE",
"-15 87 CURVE SMOOTH",
"-35 87 OFFCURVE",
"-50 76 OFFCURVE",
"-50 55 CURVE SMOOTH",
"-50 38 OFFCURVE",
"-27 0 OFFCURVE",
"43 0 CURVE SMOOTH"
);
},
{
closed = 1;
nodes = (
"82 123 OFFCURVE",
"93 128 OFFCURVE",
"97 135 CURVE SMOOTH",
"160 238 OFFCURVE",
"410 258 OFFCURVE",
"456 278 CURVE",
"444 264 OFFCURVE",
"422 216 OFFCURVE",
"420 201 CURVE SMOOTH",
"418 187 OFFCURVE",
"428 189 OFFCURVE",
"430 197 CURVE SMOOTH",
"437 222 OFFCURVE",
"490 293 OFFCURVE",
"531 308 CURVE",
"515 311 OFFCURVE",
"483 313 OFFCURVE",
"472 313 CURVE",
"472 313 OFFCURVE",
"471 309 OFFCURVE",
"468 305 CURVE SMOOTH",
"465 301 OFFCURVE",
"459 298 OFFCURVE",
"445 293 CURVE SMOOTH",
"367 263 OFFCURVE",
"144 244 OFFCURVE",
"88 134 CURVE SMOOTH"
);
},
{
closed = 1;
nodes = (
"295 312 OFFCURVE",
"382 403 OFFCURVE",
"375 467 CURVE SMOOTH",
"374 474 OFFCURVE",
"369 478 OFFCURVE",
"369 465 CURVE SMOOTH",
"369 429 OFFCURVE",
"280 327 OFFCURVE",
"202 327 CURVE SMOOTH",
"163 327 OFFCURVE",
"158 352 OFFCURVE",
"158 369 CURVE SMOOTH",
"158 443 OFFCURVE",
"293 514 OFFCURVE",
"385 514 CURVE SMOOTH",
"441 514 OFFCURVE",
"564 495 OFFCURVE",
"611 495 CURVE SMOOTH",
"756 495 OFFCURVE",
"800 585 OFFCURVE",
"808 596 CURVE SMOOTH",
"814 605 OFFCURVE",
"805 610 OFFCURVE",
"798 598 CURVE SMOOTH",
"797 597 OFFCURVE",
"767 531 OFFCURVE",
"662 531 CURVE SMOOTH",
"595 531 OFFCURVE",
"535 544 OFFCURVE",
"495 544 CURVE SMOOTH",
"233 544 OFFCURVE",
"147 426 OFFCURVE",
"147 365 CURVE SMOOTH",
"147 320 OFFCURVE",
"187 312 OFFCURVE",
"215 312 CURVE SMOOTH"
);
}
);
};
layerId = "A92E3ADA-722A-4108-B621-F991B1803EEA";
paths = (
{
closed = 1;
nodes = (
"43 -9 LINE",
"172 -9 OFFCURVE",
"266 109 OFFCURVE",
"333 219 CURVE SMOOTH",
"411 348 OFFCURVE",
"509 439 OFFCURVE",
"582 450 CURVE SMOOTH",
"598 453 OFFCURVE",
"598 460 OFFCURVE",
"582 459 CURVE SMOOTH",
"515 457 OFFCURVE",
"395 352 OFFCURVE",
"318 221 CURVE SMOOTH",
"245 98 OFFCURVE",
"152 -1 OFFCURVE",
"43 -1 CURVE SMOOTH",
"11 -1 OFFCURVE",
"-35 13 OFFCURVE",
"-35 46 CURVE",
"-35 46 OFFCURVE",
"-28 41 OFFCURVE",
"-16 41 CURVE SMOOTH",
"-6 41 OFFCURVE",
"5 49 OFFCURVE",
"5 59 CURVE SMOOTH",
"5 72 OFFCURVE",
"-3 78 OFFCURVE",
"-15 78 CURVE SMOOTH",
"-35 78 OFFCURVE",
"-50 67 OFFCURVE",
"-50 46 CURVE SMOOTH",
"-50 29 OFFCURVE",
"-27 -9 OFFCURVE",
"43 -9 CURVE"
);
},
{
closed = 1;
nodes = (
"88 125 LINE",
"82 114 OFFCURVE",
"93 119 OFFCURVE",
"97 126 CURVE SMOOTH",
"160 235 OFFCURVE",
"403 246 OFFCURVE",
"461 277 CURVE",
"449 263 OFFCURVE",
"422 207 OFFCURVE",
"420 192 CURVE SMOOTH",
"418 178 OFFCURVE",
"427 181 OFFCURVE",
"429 189 CURVE SMOOTH",
"436 216 OFFCURVE",
"473 292 OFFCURVE",
"497 303 CURVE",
"490 304 OFFCURVE",
"477 304 OFFCURVE",
"472 304 CURVE",
"472 304 OFFCURVE",
"471 300 OFFCURVE",
"468 296 CURVE SMOOTH",
"465 292 OFFCURVE",
"459 289 OFFCURVE",
"445 284 CURVE SMOOTH",
"367 254 OFFCURVE",
"144 235 OFFCURVE",
"88 125 CURVE"
);
},
{
closed = 1;
nodes = (
"215 303 LINE",
"295 303 OFFCURVE",
"382 394 OFFCURVE",
"375 458 CURVE SMOOTH",
"374 465 OFFCURVE",
"368 469 OFFCURVE",
"368 456 CURVE SMOOTH",
"368 401 OFFCURVE",
"286 312 OFFCURVE",
"215 312 CURVE SMOOTH",
"194 312 OFFCURVE",
"158 319 OFFCURVE",
"158 356 CURVE SMOOTH",
"158 416 OFFCURVE",
"262 516 OFFCURVE",
"445 516 CURVE SMOOTH",
"511 516 OFFCURVE",
"574 497 OFFCURVE",
"634 497 CURVE SMOOTH",
"743 497 OFFCURVE",
"786 552 OFFCURVE",
"808 587 CURVE SMOOTH",
"814 596 OFFCURVE",
"805 601 OFFCURVE",
"798 589 CURVE SMOOTH",
"777 554 OFFCURVE",
"734 507 OFFCURVE",
"634 507 CURVE SMOOTH",
"583 507 OFFCURVE",
"526 527 OFFCURVE",
"445 527 CURVE SMOOTH",
"254 527 OFFCURVE",
"147 419 OFFCURVE",
"147 356 CURVE SMOOTH",
"147 311 OFFCURVE",
"187 303 OFFCURVE",
"215 303 CURVE"
);
}
);
width = 540;
}
);
note = F;
unicode = 0046;
},
{
glyphname = G;
lastChange = "2020-12-18 19:02:38 +0000";
layers = (
{
background = {
paths = (
{
closed = 1;
nodes = (
"453 371 OFFCURVE",
"409 335 QCURVE SMOOTH",
"328 268 OFFCURVE",
"269 242 QCURVE SMOOTH",
"242 230 OFFCURVE",
"200 215 OFFCURVE",
"166 214 OFFCURVE",
"159 221 QCURVE SMOOTH",
"156 224 OFFCURVE",
"153 232 OFFCURVE",
"153 251 OFFCURVE",
"165 275 QCURVE",
"226 286 OFFCURVE",
"286 313 QCURVE SMOOTH",
"395 362 OFFCURVE",
"459 420 QCURVE SMOOTH",
"491 449 OFFCURVE",
"526 499 OFFCURVE",
"526 538 OFFCURVE",
"506 555 OFFCURVE",
"480 555 QCURVE SMOOTH",
"419 555 OFFCURVE",
"339 510 QCURVE SMOOTH",
"261 466 OFFCURVE",
"202 404 QCURVE SMOOTH",
"139 337 OFFCURVE",
"124 277 QCURVE",
"112 276 OFFCURVE",
"71 275 OFFCURVE",
"52 281 QCURVE SMOOTH",
"42 284 OFFCURVE",
"23 291 OFFCURVE",
"9 298 OFFCURVE",
"4 298 OFFCURVE",
"4 292 OFFCURVE",
"14 287 QCURVE",
"47 268 OFFCURVE",
"89 268 QCURVE SMOOTH",
"108 268 OFFCURVE",
"123 269 QCURVE",
"121 256 OFFCURVE",
"121 249 QCURVE SMOOTH",
"121 225 OFFCURVE",
"139 212 QCURVE SMOOTH",
"149 205 OFFCURVE",
"177 205 QCURVE SMOOTH",
"245 205 OFFCURVE",
"356 284 QCURVE",
"344 271 OFFCURVE",
"306 228 QCURVE SMOOTH",
"292 212 OFFCURVE",
"266 178 QCURVE SMOOTH",
"196 88 OFFCURVE",
"144 46 QCURVE SMOOTH",
"119 26 OFFCURVE",
"70 10 OFFCURVE",
"29 10 OFFCURVE",
"13 13 QCURVE SMOOTH",
"-34 22 OFFCURVE",
"-34 52 QCURVE SMOOTH",
"-34 55 LINE",
"-28 51 OFFCURVE",
"-7 51 OFFCURVE",
"6 62 OFFCURVE",
"6 79 OFFCURVE",
"-7 88 OFFCURVE",
"-19 88 OFFCURVE",
"-26 85 QCURVE SMOOTH",
"-48 76 OFFCURVE",
"-49 55 QCURVE SMOOTH",
"-50 32 OFFCURVE",
"6 0 OFFCURVE",
"44 0 QCURVE SMOOTH",
"203 0 OFFCURVE",
"346 212 QCURVE SMOOTH",
"388 274 LINE SMOOTH",
"406 300 OFFCURVE",
"436 335 OFFCURVE",
"459 355 OFFCURVE",
"476 363 OFFCURVE",
"476 366 QCURVE SMOOTH",
"476 371 OFFCURVE",
"467 371 QCURVE",
"467 371 LINE"
);
},
{
closed = 1;
nodes = (
"517 500 OFFCURVE",
"453 443 QCURVE SMOOTH",
"423 416 OFFCURVE",
"340 358 OFFCURVE",
"223 298 OFFCURVE",
"170 285 QCURVE",
"180 304 OFFCURVE",
"196 325 QCURVE SMOOTH",
"246 391 OFFCURVE",
"313 452 QCURVE SMOOTH",
"418 548 OFFCURVE",
"487 546 QCURVE SMOOTH",
"517 545 OFFCURVE",
"517 525 QCURVE",
"517 525 LINE"
);
}
);
};
layerId = "A6F4F1CF-B738-4D99-83C7-A0DEF7C73335";
paths = (
{
closed = 1;
nodes = (
"47 -9 LINE",
"274 -9 OFFCURVE",
"377 302 OFFCURVE",
"471 353 CURVE SMOOTH",
"482 359 OFFCURVE",
"473 364 OFFCURVE",
"459 360 CURVE SMOOTH",
"435 354 OFFCURVE",
"280 206 OFFCURVE",
"181 206 CURVE SMOOTH",
"162 206 OFFCURVE",
"152 214 OFFCURVE",
"152 232 CURVE SMOOTH",
"152 286 OFFCURVE",
"362 537 OFFCURVE",
"485 537 CURVE SMOOTH",
"500 537 OFFCURVE",
"517 531 OFFCURVE",
"517 516 CURVE SMOOTH",
"517 462 OFFCURVE",
"269 267 OFFCURVE",
"99 267 CURVE SMOOTH",
"46 267 OFFCURVE",
"17 283 OFFCURVE",
"12 287 CURVE SMOOTH",
"6 291 OFFCURVE",
"-2 288 OFFCURVE",
"8 281 CURVE SMOOTH",
"14 276 OFFCURVE",
"45 259 OFFCURVE",
"99 259 CURVE SMOOTH",
"271 259 OFFCURVE",
"526 422 OFFCURVE",
"526 510 CURVE SMOOTH",
"526 533 OFFCURVE",
"516 547 OFFCURVE",
"479 547 CURVE SMOOTH",
"353 547 OFFCURVE",
"121 370 OFFCURVE",
"121 239 CURVE SMOOTH",
"121 202 OFFCURVE",
"136 196 OFFCURVE",
"177 196 CURVE SMOOTH",
"257 196 OFFCURVE",
"378 288 OFFCURVE",
"403 312 CURVE SMOOTH",
"409 318 OFFCURVE",
"397 311 OFFCURVE",
"382 300 CURVE SMOOTH",
"290 235 OFFCURVE",
"180 1 OFFCURVE",
"49 1 CURVE SMOOTH",
"-28 1 OFFCURVE",
"-34 30 OFFCURVE",
"-34 47 CURVE",
"-34 47 OFFCURVE",
"-27 42 OFFCURVE",
"-15 42 CURVE SMOOTH",
"-4 42 OFFCURVE",
"6 50 OFFCURVE",
"6 62 CURVE SMOOTH",
"6 71 OFFCURVE",
"-2 79 OFFCURVE",
"-14 79 CURVE SMOOTH",
"-26 79 OFFCURVE",
"-49 67 OFFCURVE",
"-49 46 CURVE SMOOTH",
"-49 13 OFFCURVE",
"-4 -9 OFFCURVE",
"47 -9 CURVE"
);
}
);
width = 449;
},
{
background = {
paths = (
{
closed = 1;
nodes = (
"17 292 OFFCURVE",
"46 276 OFFCURVE",
"99 276 CURVE SMOOTH",
"269 276 OFFCURVE",
"517 471 OFFCURVE",
"517 525 CURVE SMOOTH",
"517 540 OFFCURVE",
"500 546 OFFCURVE",
"485 546 CURVE SMOOTH",
"362 546 OFFCURVE",
"152 295 OFFCURVE",
"152 241 CURVE SMOOTH",
"152 223 OFFCURVE",
"162 215 OFFCURVE",
"181 215 CURVE SMOOTH",
"280 215 OFFCURVE",
"435 363 OFFCURVE",
"459 369 CURVE SMOOTH",
"473 373 OFFCURVE",
"482 368 OFFCURVE",
"471 362 CURVE SMOOTH",
"377 311 OFFCURVE",
"274 0 OFFCURVE",
"47 0 CURVE SMOOTH",
"-4 0 OFFCURVE",
"-49 22 OFFCURVE",
"-49 55 CURVE SMOOTH",
"-49 76 OFFCURVE",
"-26 88 OFFCURVE",
"-14 88 CURVE SMOOTH",
"-2 88 OFFCURVE",
"6 80 OFFCURVE",
"6 71 CURVE SMOOTH",
"6 59 OFFCURVE",
"-4 51 OFFCURVE",
"-15 51 CURVE SMOOTH",
"-27 51 OFFCURVE",
"-34 56 OFFCURVE",
"-34 56 CURVE",
"-34 39 OFFCURVE",
"-28 10 OFFCURVE",
"49 10 CURVE SMOOTH",
"180 10 OFFCURVE",
"290 244 OFFCURVE",
"382 309 CURVE SMOOTH",
"397 320 OFFCURVE",
"409 327 OFFCURVE",
"403 321 CURVE SMOOTH",
"378 297 OFFCURVE",
"257 205 OFFCURVE",
"177 205 CURVE SMOOTH",
"136 205 OFFCURVE",
"121 211 OFFCURVE",
"121 248 CURVE SMOOTH",
"121 379 OFFCURVE",
"353 556 OFFCURVE",
"479 556 CURVE SMOOTH",
"516 556 OFFCURVE",
"526 542 OFFCURVE",
"526 519 CURVE SMOOTH",
"526 431 OFFCURVE",
"271 268 OFFCURVE",
"99 268 CURVE SMOOTH",
"45 268 OFFCURVE",
"14 285 OFFCURVE",
"8 290 CURVE SMOOTH",
"-2 297 OFFCURVE",
"6 300 OFFCURVE",
"12 296 CURVE SMOOTH"
);
}
);
};
layerId = "A92E3ADA-722A-4108-B621-F991B1803EEA";
paths = (
{
closed = 1;
nodes = (
"47 -9 LINE",
"235 -9 OFFCURVE",
"333 290 OFFCURVE",
"471 353 CURVE SMOOTH",
"482 358 OFFCURVE",
"473 364 OFFCURVE",
"459 360 CURVE SMOOTH",
"435 354 OFFCURVE",
"280 206 OFFCURVE",
"181 206 CURVE SMOOTH",
"152 206 OFFCURVE",
"142 212 OFFCURVE",
"142 239 CURVE SMOOTH",
"142 357 OFFCURVE",
"373 538 OFFCURVE",
"479 538 CURVE SMOOTH",
"505 538 OFFCURVE",
"517 529 OFFCURVE",
"517 510 CURVE SMOOTH",
"517 452 OFFCURVE",
"274 267 OFFCURVE",
"99 267 CURVE SMOOTH",
"46 267 OFFCURVE",
"17 283 OFFCURVE",
"12 287 CURVE SMOOTH",
"6 291 OFFCURVE",
"-2 288 OFFCURVE",
"8 281 CURVE SMOOTH",
"14 276 OFFCURVE",
"45 259 OFFCURVE",
"99 259 CURVE SMOOTH",
"281 259 OFFCURVE",
"526 442 OFFCURVE",
"526 510 CURVE SMOOTH",
"526 533 OFFCURVE",
"516 547 OFFCURVE",
"479 547 CURVE SMOOTH",
"370 547 OFFCURVE",
"130 366 OFFCURVE",
"130 239 CURVE SMOOTH",
"130 206 OFFCURVE",
"142 196 OFFCURVE",
"177 196 CURVE SMOOTH",
"257 196 OFFCURVE",
"379 288 OFFCURVE",
"404 312 CURVE SMOOTH",
"410 318 OFFCURVE",
"402 311 OFFCURVE",
"387 300 CURVE SMOOTH",
"326 258 OFFCURVE",
"204 0 OFFCURVE",
"47 0 CURVE SMOOTH",
"-24 0 OFFCURVE",
"-34 30 OFFCURVE",
"-34 47 CURVE",
"-34 47 OFFCURVE",
"-27 42 OFFCURVE",
"-15 42 CURVE SMOOTH",
"-4 42 OFFCURVE",
"6 50 OFFCURVE",
"6 62 CURVE SMOOTH",
"6 71 OFFCURVE",
"-2 79 OFFCURVE",
"-14 79 CURVE SMOOTH",
"-26 79 OFFCURVE",
"-45 67 OFFCURVE",
"-45 46 CURVE SMOOTH",
"-45 13 OFFCURVE",
"-17 -9 OFFCURVE",
"47 -9 CURVE"
);
}
);
width = 449;
}
);
note = G;
unicode = 0047;
},
{
glyphname = H;
lastChange = "2020-12-18 19:02:38 +0000";
layers = (
{
background = {
paths = (
{
closed = 1;
nodes = (
"-60 84 OFFCURVE",
"-80 84 QCURVE SMOOTH",
"-85 84 OFFCURVE",
"-92 82 QCURVE SMOOTH",
"-114 74 OFFCURVE",
"-115 52 QCURVE SMOOTH",
"-116 30 OFFCURVE",
"-94 15 QCURVE SMOOTH",
"-73 1 OFFCURVE",
"-42 0 QCURVE SMOOTH",
"14 -2 OFFCURVE",
"61 27 QCURVE SMOOTH",
"85 41 OFFCURVE",
"155 93 OFFCURVE",
"209 154 QCURVE SMOOTH",
"266 219 LINE",
"342 238 LINE SMOOTH",
"380 248 OFFCURVE",
"416 258 QCURVE",
"364 191 OFFCURVE",
"339 136 QCURVE SMOOTH",
"327 111 OFFCURVE",
"318 68 OFFCURVE",
"318 41 OFFCURVE",
"322 32 QCURVE SMOOTH",
"337 1 OFFCURVE",
"368 0 QCURVE SMOOTH",
"411 -1 OFFCURVE",
"455 36 QCURVE SMOOTH",
"475 53 OFFCURVE",
"510 92 OFFCURVE",
"533 134 OFFCURVE",
"546 172 OFFCURVE",
"543 197 OFFCURVE",
"540 197 QCURVE SMOOTH",
"534 197 OFFCURVE",
"531 185 QCURVE SMOOTH",
"511 108 OFFCURVE",
"460 58 QCURVE SMOOTH",
"438 35 OFFCURVE",
"392 10 OFFCURVE",
"353 10 OFFCURVE",
"339 26 OFFCURVE",
"339 58 OFFCURVE",
"350 82 QCURVE SMOOTH",
"383 157 OFFCURVE",
"483 277 QCURVE",
"577 308 OFFCURVE",
"660 358 QCURVE SMOOTH",
"697 380 OFFCURVE",
"756 425 OFFCURVE",
"796 467 OFFCURVE",
"817 503 OFFCURVE",
"817 528 OFFCURVE",
"800 543 OFFCURVE",
"783 543 QCURVE SMOOTH",
"734 543 OFFCURVE",
"633 468 QCURVE SMOOTH",
"528 393 OFFCURVE",
"445 293 QCURVE SMOOTH",
"425 269 LINE",
"277 232 LINE",
"319 286 LINE",
"373 361 LINE",
"433 439 LINE SMOOTH",
"467 483 OFFCURVE",
"504 512 QCURVE",
"523 526 LINE SMOOTH",
"527 528 OFFCURVE",
"531 531 OFFCURVE",
"537 535 OFFCURVE",
"540 536 OFFCURVE",
"540 540 OFFCURVE",
"533 540 OFFCURVE",
"530 538 QCURVE SMOOTH",
"519 533 LINE SMOOTH",
"511 529 OFFCURVE",
"477 506 OFFCURVE",
"388 430 QCURVE SMOOTH",
"356 403 OFFCURVE",
"320 383 QCURVE SMOOTH",
"303 374 OFFCURVE",
"270 365 OFFCURVE",
"240 365 OFFCURVE",
"230 372 QCURVE SMOOTH",
"226 374 OFFCURVE",
"222 382 OFFCURVE",
"222 389 OFFCURVE",
"229 398 OFFCURVE",
"241 405 QCURVE SMOOTH",
"275 426 OFFCURVE",
"291 452 QCURVE SMOOTH",
"300 467 OFFCURVE",
"300 491 QCURVE SMOOTH",
"300 511 OFFCURVE",
"266 535 OFFCURVE",
"233 535 QCURVE SMOOTH",
"166 535 OFFCURVE",
"118 492 QCURVE",
"111 485 OFFCURVE",
"111 482 QCURVE SMOOTH",
"111 479 OFFCURVE",
"119 479 OFFCURVE",
"125 485 QCURVE SMOOTH",
"172 526 OFFCURVE",
"232 526 QCURVE SMOOTH",
"260 526 OFFCURVE",
"283 512 OFFCURVE",
"283 500 QCURVE SMOOTH",
"283 498 OFFCURVE",
"280 490 OFFCURVE",
"261 475 QCURVE SMOOTH",
"231 450 OFFCURVE",
"219 431 QCURVE SMOOTH",
"213 421 OFFCURVE",
"208 402 OFFCURVE",
"208 374 OFFCURVE",
"233 355 OFFCURVE",
"253 355 QCURVE SMOOTH",
"295 355 OFFCURVE",
"363 397 QCURVE",
"331 364 OFFCURVE",
"331 364 QCURVE",
"313 343 OFFCURVE",
"256 275 QCURVE SMOOTH",
"233 247 OFFCURVE",
"210 215 QCURVE",
"171 203 OFFCURVE",
"93 174 OFFCURVE",
"50 144 QCURVE SMOOTH",
"37 135 OFFCURVE",
"17 114 OFFCURVE",
"10 101 OFFCURVE",
"9 98 OFFCURVE",
"8 94 OFFCURVE",
"13 94 OFFCURVE",
"15 97 QCURVE SMOOTH",
"43 154 OFFCURVE",
"159 189 QCURVE SMOOTH",
"179 195 LINE SMOOTH",
"189 198 OFFCURVE",
"200 202 QCURVE",
"128 116 LINE SMOOTH",
"91 73 OFFCURVE",
"55 46 QCURVE SMOOTH",
"6 10 OFFCURVE",
"-45 10 QCURVE SMOOTH",
"-67 10 OFFCURVE",
"-100 32 OFFCURVE",
"-100 48 QCURVE SMOOTH",
"-100 51 LINE",
"-94 48 OFFCURVE",
"-73 48 OFFCURVE",
"-60 58 OFFCURVE",
"-60 66 QCURVE",
"-60 66 LINE"
);
},
{
closed = 1;
nodes = (
"548 352 LINE SMOOTH",
"575 382 OFFCURVE",
"630 436 OFFCURVE",
"683 482 OFFCURVE",
"730 516 OFFCURVE",
"770 535 OFFCURVE",
"803 535 OFFCURVE",
"803 522 QCURVE SMOOTH",
"804 511 OFFCURVE",
"793 495 QCURVE SMOOTH",
"770 462 OFFCURVE",
"714 415 QCURVE SMOOTH",
"620 336 OFFCURVE",
"495 291 QCURVE",
"495 291 LINE"
);
}
);
};
layerId = "A6F4F1CF-B738-4D99-83C7-A0DEF7C73335";
paths = (
{
closed = 1;
nodes = (
"370 -9 LINE",
"449 -9 OFFCURVE",
"542 108 OFFCURVE",
"545 168 CURVE SMOOTH",
"546 190 OFFCURVE",
"535 193 OFFCURVE",
"533 182 CURVE SMOOTH",
"520 109 OFFCURVE",
"438 1 OFFCURVE",
"373 1 CURVE SMOOTH",
"356 1 OFFCURVE",
"339 3 OFFCURVE",
"339 32 CURVE SMOOTH",
"339 128 OFFCURVE",
"677 526 OFFCURVE",
"787 526 CURVE SMOOTH",
"799 526 OFFCURVE",
"803 522 OFFCURVE",
"803 512 CURVE SMOOTH",
"803 496 OFFCURVE",
"707 328 OFFCURVE",
"375 248 CURVE SMOOTH",
"221 211 OFFCURVE",
"44 169 OFFCURVE",
"11 94 CURVE SMOOTH",
"6 83 OFFCURVE",
"13 82 OFFCURVE",
"16 89 CURVE SMOOTH",
"53 168 OFFCURVE",
"227 202 OFFCURVE",
"380 239 CURVE SMOOTH",
"707 318 OFFCURVE",
"817 466 OFFCURVE",
"817 507 CURVE SMOOTH",
"817 525 OFFCURVE",
"805 535 OFFCURVE",
"783 535 CURVE SMOOTH",
"677 535 OFFCURVE",
"318 220 OFFCURVE",
"318 43 CURVE SMOOTH",
"318 6 OFFCURVE",
"348 -9 OFFCURVE",
"370 -9 CURVE"
);
},
{
closed = 1;
nodes = (
"-34 -9 LINE",
"179 -9 OFFCURVE",
"403 454 OFFCURVE",
"535 525 CURVE SMOOTH",
"545 531 OFFCURVE",
"539 533 OFFCURVE",
"533 531 CURVE SMOOTH",
"471 513 OFFCURVE",
"350 356 OFFCURVE",
"257 356 CURVE SMOOTH",
"234 356 OFFCURVE",
"222 366 OFFCURVE",
"222 376 CURVE SMOOTH",
"222 399 OFFCURVE",
"300 408 OFFCURVE",
"300 481 CURVE SMOOTH",
"300 524 OFFCURVE",
"249 526 OFFCURVE",
"231 526 CURVE SMOOTH",
"169 526 OFFCURVE",
"123 491 OFFCURVE",
"113 479 CURVE SMOOTH",
"108 473 OFFCURVE",
"115 466 OFFCURVE",
"123 474 CURVE SMOOTH",
"139 492 OFFCURVE",
"179 517 OFFCURVE",
"231 517 CURVE SMOOTH",
"259 517 OFFCURVE",
"283 511 OFFCURVE",
"283 492 CURVE SMOOTH",
"283 469 OFFCURVE",
"208 446 OFFCURVE",
"208 384 CURVE SMOOTH",
"208 360 OFFCURVE",
"224 346 OFFCURVE",
"253 346 CURVE SMOOTH",
"328 346 OFFCURVE",
"449 450 OFFCURVE",
"453 457 CURVE SMOOTH",
"456 463 OFFCURVE",
"444 460 OFFCURVE",
"434 452 CURVE SMOOTH",
"375 408 OFFCURVE",
"303 326 OFFCURVE",
"247 255 CURVE SMOOTH",
"154 138 OFFCURVE",
"64 2 OFFCURVE",
"-43 2 CURVE SMOOTH",
"-92 2 OFFCURVE",
"-99 29 OFFCURVE",
"-99 43 CURVE",
"-99 43 OFFCURVE",
"-93 39 OFFCURVE",
"-80 39 CURVE SMOOTH",
"-73 39 OFFCURVE",
"-60 43 OFFCURVE",
"-60 59 CURVE SMOOTH",
"-60 69 OFFCURVE",
"-66 75 OFFCURVE",
"-80 75 CURVE SMOOTH",
"-101 75 OFFCURVE",
"-115 60 OFFCURVE",
"-115 43 CURVE SMOOTH",
"-115 9 OFFCURVE",
"-82 -9 OFFCURVE",
"-34 -9 CURVE"
);
}
);
width = 639;
},
{
background = {
paths = (
{
closed = 1;
nodes = (
"449 0 OFFCURVE",
"542 117 OFFCURVE",
"545 177 CURVE SMOOTH",
"546 199 OFFCURVE",
"535 202 OFFCURVE",
"533 191 CURVE SMOOTH",
"520 118 OFFCURVE",
"438 10 OFFCURVE",
"373 10 CURVE SMOOTH",
"356 10 OFFCURVE",
"339 12 OFFCURVE",
"339 41 CURVE SMOOTH",
"339 137 OFFCURVE",
"677 535 OFFCURVE",
"787 535 CURVE SMOOTH",
"799 535 OFFCURVE",
"803 531 OFFCURVE",
"803 521 CURVE SMOOTH",
"803 505 OFFCURVE",
"707 337 OFFCURVE",
"375 257 CURVE SMOOTH",
"221 220 OFFCURVE",
"44 178 OFFCURVE",
"11 103 CURVE SMOOTH",
"6 92 OFFCURVE",
"13 91 OFFCURVE",
"16 98 CURVE SMOOTH",
"53 177 OFFCURVE",
"227 211 OFFCURVE",
"380 248 CURVE SMOOTH",
"707 327 OFFCURVE",
"817 475 OFFCURVE",
"817 516 CURVE SMOOTH",
"817 534 OFFCURVE",
"805 544 OFFCURVE",
"783 544 CURVE SMOOTH",
"677 544 OFFCURVE",
"318 229 OFFCURVE",
"318 52 CURVE SMOOTH",
"318 15 OFFCURVE",
"348 0 OFFCURVE",
"370 0 CURVE SMOOTH"
);
},
{
closed = 1;
nodes = (
"179 0 OFFCURVE",
"403 463 OFFCURVE",
"535 534 CURVE SMOOTH",
"545 540 OFFCURVE",
"539 542 OFFCURVE",
"533 540 CURVE SMOOTH",
"471 522 OFFCURVE",
"350 365 OFFCURVE",
"257 365 CURVE SMOOTH",
"234 365 OFFCURVE",
"222 375 OFFCURVE",
"222 385 CURVE SMOOTH",
"222 408 OFFCURVE",
"300 417 OFFCURVE",
"300 490 CURVE SMOOTH",
"300 533 OFFCURVE",
"249 535 OFFCURVE",
"231 535 CURVE SMOOTH",
"169 535 OFFCURVE",
"123 500 OFFCURVE",
"113 488 CURVE SMOOTH",
"108 482 OFFCURVE",
"115 475 OFFCURVE",
"123 483 CURVE SMOOTH",
"139 501 OFFCURVE",
"179 526 OFFCURVE",
"231 526 CURVE SMOOTH",
"259 526 OFFCURVE",
"283 520 OFFCURVE",
"283 501 CURVE SMOOTH",
"283 478 OFFCURVE",
"208 455 OFFCURVE",
"208 393 CURVE SMOOTH",
"208 369 OFFCURVE",
"224 355 OFFCURVE",
"253 355 CURVE SMOOTH",
"328 355 OFFCURVE",
"449 459 OFFCURVE",
"453 466 CURVE SMOOTH",
"456 472 OFFCURVE",
"444 469 OFFCURVE",
"434 461 CURVE SMOOTH",
"375 417 OFFCURVE",
"303 335 OFFCURVE",
"247 264 CURVE SMOOTH",
"154 147 OFFCURVE",
"64 11 OFFCURVE",
"-43 11 CURVE SMOOTH",
"-92 11 OFFCURVE",
"-99 38 OFFCURVE",
"-99 52 CURVE",
"-99 52 OFFCURVE",
"-93 48 OFFCURVE",
"-80 48 CURVE SMOOTH",
"-73 48 OFFCURVE",
"-60 52 OFFCURVE",
"-60 68 CURVE SMOOTH",
"-60 78 OFFCURVE",
"-66 84 OFFCURVE",
"-80 84 CURVE SMOOTH",
"-101 84 OFFCURVE",
"-115 69 OFFCURVE",
"-115 52 CURVE SMOOTH",
"-115 18 OFFCURVE",
"-82 0 OFFCURVE",
"-34 0 CURVE SMOOTH"
);
}
);
};
layerId = "A92E3ADA-722A-4108-B621-F991B1803EEA";
paths = (
{
closed = 1;
nodes = (
"370 -9 LINE",
"453 -9 OFFCURVE",
"533 108 OFFCURVE",
"541 168 CURVE SMOOTH",
"544 190 OFFCURVE",
"535 193 OFFCURVE",
"533 182 CURVE SMOOTH",
"520 110 OFFCURVE",
"440 1 OFFCURVE",
"370 1 CURVE SMOOTH",
"353 1 OFFCURVE",
"329 17 OFFCURVE",
"329 43 CURVE SMOOTH",
"329 157 OFFCURVE",
"676 526 OFFCURVE",
"783 526 CURVE SMOOTH",
"798 526 OFFCURVE",
"807 520 OFFCURVE",
"807 507 CURVE SMOOTH",
"807 491 OFFCURVE",
"707 328 OFFCURVE",
"375 248 CURVE SMOOTH",
"221 211 OFFCURVE",
"50 180 OFFCURVE",
"11 94 CURVE SMOOTH",
"6 83 OFFCURVE",
"13 82 OFFCURVE",
"16 89 CURVE SMOOTH",
"53 168 OFFCURVE",
"227 202 OFFCURVE",
"380 239 CURVE SMOOTH",
"696 315 OFFCURVE",
"817 471 OFFCURVE",
"817 507 CURVE SMOOTH",
"817 525 OFFCURVE",
"805 535 OFFCURVE",
"783 535 CURVE SMOOTH",
"659 535 OFFCURVE",
"318 161 OFFCURVE",
"318 43 CURVE SMOOTH",
"318 6 OFFCURVE",
"348 -9 OFFCURVE",
"370 -9 CURVE"
);
},
{
closed = 1;
nodes = (
"-34 -9 LINE",
"154 -9 OFFCURVE",
"371 441 OFFCURVE",
"535 525 CURVE SMOOTH",
"545 530 OFFCURVE",
"539 533 OFFCURVE",
"533 531 CURVE SMOOTH",
"471 513 OFFCURVE",
"356 356 OFFCURVE",
"257 356 CURVE SMOOTH",
"232 356 OFFCURVE",
"221 363 OFFCURVE",
"221 376 CURVE SMOOTH",
"221 424 OFFCURVE",
"295 433 OFFCURVE",
"295 483 CURVE SMOOTH",
"295 514 OFFCURVE",
"275 527 OFFCURVE",
"231 527 CURVE SMOOTH",
"169 527 OFFCURVE",
"123 491 OFFCURVE",
"113 479 CURVE SMOOTH",
"108 473 OFFCURVE",
"115 466 OFFCURVE",
"123 474 CURVE SMOOTH",
"139 492 OFFCURVE",
"179 517 OFFCURVE",
"231 517 CURVE SMOOTH",
"270 517 OFFCURVE",
"284 509 OFFCURVE",
"284 483 CURVE SMOOTH",
"284 442 OFFCURVE",
"211 429 OFFCURVE",
"211 376 CURVE SMOOTH",
"211 356 OFFCURVE",
"231 346 OFFCURVE",
"253 346 CURVE SMOOTH",
"333 346 OFFCURVE",
"445 453 OFFCURVE",
"449 460 CURVE SMOOTH",
"452 466 OFFCURVE",
"443 461 OFFCURVE",
"434 452 CURVE SMOOTH",
"388 408 OFFCURVE",
"315 319 OFFCURVE",
"260 249 CURVE SMOOTH",
"167 132 OFFCURVE",
"64 0 OFFCURVE",
"-35 0 CURVE SMOOTH",
"-79 0 OFFCURVE",
"-99 29 OFFCURVE",
"-99 43 CURVE",
"-99 43 OFFCURVE",
"-93 39 OFFCURVE",
"-80 39 CURVE SMOOTH",
"-73 39 OFFCURVE",
"-60 43 OFFCURVE",
"-60 59 CURVE SMOOTH",
"-60 69 OFFCURVE",
"-66 75 OFFCURVE",
"-80 75 CURVE SMOOTH",
"-99 75 OFFCURVE",
"-112 61 OFFCURVE",
"-112 45 CURVE SMOOTH",
"-112 13 OFFCURVE",
"-79 -9 OFFCURVE",
"-34 -9 CURVE"
);
}
);
width = 639;
}
);
note = H;
unicode = 0048;
},
{
glyphname = I;
lastChange = "2020-12-18 19:02:38 +0000";
layers = (
{
background = {
paths = (
{
closed = 1;
nodes = (
"406 211 OFFCURVE",
"344 175 QCURVE SMOOTH",
"284 141 OFFCURVE",
"230 141 QCURVE SMOOTH",
"227 141 LINE",
"277 191 OFFCURVE",
"324 259 QCURVE SMOOTH",
"461 458 OFFCURVE",
"575 507 QCURVE",
"592 514 LINE SMOOTH",
"601 518 OFFCURVE",
"611 520 QCURVE",
"621 520 OFFCURVE",
"644 519 OFFCURVE",
"671 521 OFFCURVE",
"671 527 QCURVE SMOOTH",
"671 533 OFFCURVE",
"657 533 QCURVE",
"618 530 LINE",
"551 535 LINE",
"438 535 OFFCURVE",
"336 489 QCURVE SMOOTH",
"240 446 OFFCURVE",
"181 376 QCURVE SMOOTH",
"122 305 OFFCURVE",
"122 234 QCURVE SMOOTH",
"122 164 OFFCURVE",
"174 140 QCURVE",
"113 66 OFFCURVE",
"66 37 QCURVE SMOOTH",
"42 22 OFFCURVE",
"-3 9 OFFCURVE",
"-57 9 OFFCURVE",
"-95 35 OFFCURVE",
"-95 54 QCURVE SMOOTH",
"-95 56 LINE",
"-88 52 OFFCURVE",
"-75 54 QCURVE SMOOTH",
"-68 55 OFFCURVE",
"-52 71 OFFCURVE",
"-59 82 QCURVE SMOOTH",
"-68 97 OFFCURVE",
"-90 87 QCURVE SMOOTH",
"-112 77 OFFCURVE",
"-111 54 QCURVE SMOOTH",
"-110 30 OFFCURVE",
"-86 15 QCURVE SMOOTH",
"-76 9 OFFCURVE",
"-44 -1 OFFCURVE",
"2 -1 OFFCURVE",
"31 8 QCURVE SMOOTH",
"120 36 OFFCURVE",
"217 130 QCURVE",
"225 130 LINE SMOOTH",
"287 130 OFFCURVE",
"351 164 QCURVE SMOOTH",
"381 180 OFFCURVE",
"434 229 OFFCURVE",
"473 287 OFFCURVE",
"496 354 OFFCURVE",
"496 410 OFFCURVE",
"487 410 OFFCURVE",
"487 363 OFFCURVE",
"464 297 OFFCURVE",
"444 267 QCURVE",
"444 267 LINE"
);
},
{
closed = 1;
nodes = (
"520 508 OFFCURVE",
"440 444 QCURVE SMOOTH",
"343 368 OFFCURVE",
"241 227 QCURVE SMOOTH",
"220 198 OFFCURVE",
"181 147 QCURVE",
"141 165 OFFCURVE",
"141 224 QCURVE SMOOTH",
"141 268 OFFCURVE",
"183 322 QCURVE SMOOTH",
"203 348 OFFCURVE",
"255 397 OFFCURVE",
"317 443 OFFCURVE",
"386 481 OFFCURVE",
"455 510 OFFCURVE",
"522 525 OFFCURVE",
"572 525 OFFCURVE",
"592 522 QCURVE",
"592 522 LINE"
);
}
);
};
layerId = "A6F4F1CF-B738-4D99-83C7-A0DEF7C73335";
paths = (
{
closed = 1;
nodes = (
"-21 -10 LINE",
"74 -10 OFFCURVE",
"212 98 OFFCURVE",
"301 217 CURVE SMOOTH",
"404 355 OFFCURVE",
"486 486 OFFCURVE",
"638 514 CURVE SMOOTH",
"644 515 OFFCURVE",
"650 521 OFFCURVE",
"636 521 CURVE SMOOTH",
"612 521 OFFCURVE",
"573 526 OFFCURVE",
"541 526 CURVE SMOOTH",
"332 526 OFFCURVE",
"122 379 OFFCURVE",
"122 222 CURVE SMOOTH",
"122 155 OFFCURVE",
"165 122 OFFCURVE",
"230 122 CURVE SMOOTH",
"371 122 OFFCURVE",
"507 262 OFFCURVE",
"495 390 CURVE SMOOTH",
"493 407 OFFCURVE",
"486 405 OFFCURVE",
"487 387 CURVE SMOOTH",
"495 273 OFFCURVE",
"359 132 OFFCURVE",
"228 132 CURVE SMOOTH",
"158 132 OFFCURVE",
"141 168 OFFCURVE",
"141 211 CURVE SMOOTH",
"141 338 OFFCURVE",
"396 516 OFFCURVE",
"545 516 CURVE SMOOTH",
"564 516 OFFCURVE",
"633 511 OFFCURVE",
"650 511 CURVE SMOOTH",
"678 511 OFFCURVE",
"678 524 OFFCURVE",
"655 524 CURVE SMOOTH",
"511 524 OFFCURVE",
"370 392 OFFCURVE",
"265 250 CURVE SMOOTH",
"168 118 OFFCURVE",
"86 0 OFFCURVE",
"-30 0 CURVE SMOOTH",
"-76 0 OFFCURVE",
"-95 28 OFFCURVE",
"-95 47 CURVE",
"-95 47 OFFCURVE",
"-88 43 OFFCURVE",
"-79 44 CURVE SMOOTH",
"-69 45 OFFCURVE",
"-56 54 OFFCURVE",
"-56 62 CURVE SMOOTH",
"-56 70 OFFCURVE",
"-60 82 OFFCURVE",
"-77 82 CURVE SMOOTH",
"-90 82 OFFCURVE",
"-112 68 OFFCURVE",
"-112 48 CURVE SMOOTH",
"-112 10 OFFCURVE",
"-68 -10 OFFCURVE",
"-21 -10 CURVE"
);
}
);
width = 459;
},
{
background = {
paths = (
{
closed = 1;
nodes = (
"-60 91 OFFCURVE",
"-56 79 OFFCURVE",
"-56 71 CURVE SMOOTH",
"-56 63 OFFCURVE",
"-69 54 OFFCURVE",
"-79 53 CURVE SMOOTH",
"-88 52 OFFCURVE",
"-95 56 OFFCURVE",
"-95 56 CURVE",
"-95 37 OFFCURVE",
"-76 9 OFFCURVE",
"-30 9 CURVE SMOOTH",
"86 9 OFFCURVE",
"168 127 OFFCURVE",
"265 259 CURVE SMOOTH",
"370 401 OFFCURVE",
"511 533 OFFCURVE",
"655 533 CURVE SMOOTH",
"678 533 OFFCURVE",
"678 520 OFFCURVE",
"650 520 CURVE SMOOTH",
"633 520 OFFCURVE",
"564 525 OFFCURVE",
"545 525 CURVE SMOOTH",
"396 525 OFFCURVE",
"141 347 OFFCURVE",
"141 220 CURVE SMOOTH",
"141 177 OFFCURVE",
"158 141 OFFCURVE",
"228 141 CURVE SMOOTH",
"359 141 OFFCURVE",
"495 282 OFFCURVE",
"487 396 CURVE SMOOTH",
"486 414 OFFCURVE",
"493 416 OFFCURVE",
"495 399 CURVE SMOOTH",
"507 271 OFFCURVE",
"371 131 OFFCURVE",
"230 131 CURVE SMOOTH",
"165 131 OFFCURVE",
"122 164 OFFCURVE",
"122 231 CURVE SMOOTH",
"122 388 OFFCURVE",
"332 535 OFFCURVE",
"541 535 CURVE SMOOTH",
"573 535 OFFCURVE",
"612 530 OFFCURVE",
"636 530 CURVE SMOOTH",
"650 530 OFFCURVE",
"644 524 OFFCURVE",
"638 523 CURVE SMOOTH",
"486 495 OFFCURVE",
"404 364 OFFCURVE",
"301 226 CURVE SMOOTH",
"212 107 OFFCURVE",
"74 -1 OFFCURVE",
"-21 -1 CURVE SMOOTH",
"-68 -1 OFFCURVE",
"-112 19 OFFCURVE",
"-112 57 CURVE SMOOTH",
"-112 77 OFFCURVE",
"-90 91 OFFCURVE",
"-77 91 CURVE SMOOTH"
);
}
);
};
layerId = "A92E3ADA-722A-4108-B621-F991B1803EEA";
paths = (
{
closed = 1;
nodes = (
"-21 -10 LINE",
"104 -10 OFFCURVE",
"202 125 OFFCURVE",
"293 242 CURVE SMOOTH",
"400 380 OFFCURVE",
"486 486 OFFCURVE",
"638 514 CURVE SMOOTH",
"644 515 OFFCURVE",
"650 521 OFFCURVE",
"636 521 CURVE SMOOTH",
"612 521 OFFCURVE",
"573 526 OFFCURVE",
"541 526 CURVE SMOOTH",
"325 526 OFFCURVE",
"122 355 OFFCURVE",
"122 222 CURVE SMOOTH",
"122 164 OFFCURVE",
"150 122 OFFCURVE",
"230 122 CURVE SMOOTH",
"371 122 OFFCURVE",
"507 262 OFFCURVE",
"495 390 CURVE SMOOTH",
"493 407 OFFCURVE",
"486 405 OFFCURVE",
"487 387 CURVE SMOOTH",
"495 272 OFFCURVE",
"364 132 OFFCURVE",
"228 132 CURVE SMOOTH",
"156 132 OFFCURVE",
"136 176 OFFCURVE",
"136 222 CURVE SMOOTH",
"136 353 OFFCURVE",
"337 517 OFFCURVE",
"541 517 CURVE SMOOTH",
"560 517 OFFCURVE",
"633 511 OFFCURVE",
"650 511 CURVE SMOOTH",
"678 511 OFFCURVE",
"678 524 OFFCURVE",
"655 524 CURVE SMOOTH",
"511 524 OFFCURVE",
"391 390 OFFCURVE",
"283 250 CURVE SMOOTH",
"189 128 OFFCURVE",
"86 0 OFFCURVE",
"-21 0 CURVE SMOOTH",
"-67 0 OFFCURVE",
"-95 28 OFFCURVE",
"-95 47 CURVE",
"-95 47 OFFCURVE",
"-88 43 OFFCURVE",
"-79 44 CURVE SMOOTH",
"-69 45 OFFCURVE",
"-56 54 OFFCURVE",
"-56 62 CURVE SMOOTH",
"-56 70 OFFCURVE",
"-60 82 OFFCURVE",
"-77 82 CURVE SMOOTH",
"-90 82 OFFCURVE",
"-111 68 OFFCURVE",
"-111 48 CURVE SMOOTH",
"-111 11 OFFCURVE",
"-61 -10 OFFCURVE",
"-21 -10 CURVE"
);
}
);
width = 459;
}
);
note = I;
unicode = 0049;
},
{
glyphname = IJ;
lastChange = "2020-12-18 19:02:38 +0000";
layers = (
{
background = {
paths = (
{
closed = 1;
nodes = (
"565 39 LINE",
"584 61 OFFCURVE",
"631 124 QCURVE",
"635 124 LINE SMOOTH",
"698 124 OFFCURVE",
"762 167 QCURVE SMOOTH",
"792 187 OFFCURVE",
"844 239 OFFCURVE",
"883 300 OFFCURVE",
"905 365 OFFCURVE",
"905 414 OFFCURVE",
"897 414 OFFCURVE",
"897 402 QCURVE SMOOTH",
"897 348 OFFCURVE",
"854 284 QCURVE SMOOTH",
"812 222 OFFCURVE",
"754 179 QCURVE SMOOTH",
"692 133 OFFCURVE",
"639 134 QCURVE",
"729 257 LINE",
"806 374 OFFCURVE",
"954 511 OFFCURVE",
"1021 527 QCURVE",
"1045 527 LINE SMOOTH",
"1081 527 OFFCURVE",
"1081 535 QCURVE SMOOTH",
"1081 541 OFFCURVE",
"1066 541 QCURVE",
"1027 537 LINE",
"956 543 LINE",
"848 544 OFFCURVE",
"747 498 QCURVE SMOOTH",
"701 477 OFFCURVE",
"620 417 OFFCURVE",
"561 347 OFFCURVE",
"529 268 OFFCURVE",
"529 196 OFFCURVE",
"560 150 OFFCURVE",
"583 137 QCURVE",
"498 21 LINE",
"398 -8 OFFCURVE",
"312 -54 QCURVE SMOOTH",
"271 -76 OFFCURVE",
"206 -126 OFFCURVE",
"160 -176 OFFCURVE",
"135 -224 OFFCURVE",
"134 -260 OFFCURVE",
"146 -273 QCURVE SMOOTH",
"153 -281 OFFCURVE",
"171 -281 QCURVE SMOOTH",
"216 -281 OFFCURVE",
"267 -254 QCURVE SMOOTH",
"374 -197 OFFCURVE",
"552 23 QCURVE",
"633 46 LINE SMOOTH",
"647 50 OFFCURVE",
"659 54 QCURVE SMOOTH",
"681 62 LINE SMOOTH",
"691 66 OFFCURVE",
"723 79 QCURVE SMOOTH",
"735 84 OFFCURVE",
"735 89 QCURVE SMOOTH",
"735 91 OFFCURVE",
"731 93 OFFCURVE",
"724 89 OFFCURVE",
"665 66 OFFCURVE",
"611 51 QCURVE",
"611 51 LINE"
);
},
{
closed = 1;
nodes = (
"406 215 OFFCURVE",
"344 179 QCURVE SMOOTH",
"284 144 OFFCURVE",
"230 144 QCURVE SMOOTH",
"227 144 LINE",
"277 195 OFFCURVE",
"324 263 QCURVE SMOOTH",
"461 462 OFFCURVE",
"575 512 QCURVE",
"592 518 LINE SMOOTH",
"601 521 OFFCURVE",
"611 524 QCURVE",
"621 524 OFFCURVE",
"644 524 OFFCURVE",
"671 525 OFFCURVE",
"671 531 QCURVE SMOOTH",
"671 537 OFFCURVE",
"657 537 QCURVE",
"618 534 LINE",
"551 540 LINE",
"438 540 OFFCURVE",
"336 494 QCURVE SMOOTH",
"241 451 OFFCURVE",
"181 381 QCURVE SMOOTH",
"121 311 OFFCURVE",
"122 237 QCURVE SMOOTH",
"123 167 OFFCURVE",
"174 144 QCURVE",
"113 70 OFFCURVE",
"66 41 QCURVE SMOOTH",
"42 26 OFFCURVE",
"-3 13 OFFCURVE",
"-57 13 OFFCURVE",
"-95 39 OFFCURVE",
"-95 57 QCURVE SMOOTH",
"-95 60 LINE",
"-88 55 OFFCURVE",
"-75 57 QCURVE SMOOTH",
"-68 58 OFFCURVE",
"-53 75 OFFCURVE",
"-59 86 QCURVE SMOOTH",
"-67 101 OFFCURVE",
"-90 91 QCURVE SMOOTH",
"-112 81 OFFCURVE",
"-111 58 QCURVE SMOOTH",
"-110 34 OFFCURVE",
"-86 19 QCURVE SMOOTH",
"-76 13 OFFCURVE",
"-44 3 OFFCURVE",
"2 3 OFFCURVE",
"31 12 QCURVE SMOOTH",
"121 40 OFFCURVE",
"217 134 QCURVE",
"225 134 LINE SMOOTH",
"287 134 OFFCURVE",
"351 168 QCURVE SMOOTH",
"381 184 OFFCURVE",
"434 233 OFFCURVE",
"473 291 OFFCURVE",
"496 358 OFFCURVE",
"496 414 OFFCURVE",
"487 414 OFFCURVE",
"487 367 OFFCURVE",
"464 301 OFFCURVE",
"444 271 QCURVE",
"444 271 LINE"
);
},
{
closed = 1;
nodes = (
"931 514 OFFCURVE",
"843 442 QCURVE SMOOTH",
"735 354 OFFCURVE",
"637 214 QCURVE SMOOTH",
"590 147 LINE",
"550 171 OFFCURVE",
"550 221 QCURVE SMOOTH",
"550 269 OFFCURVE",
"592 326 QCURVE SMOOTH",
"612 353 OFFCURVE",
"665 404 OFFCURVE",
"727 450 OFFCURVE",
"796 489 OFFCURVE",
"864 517 OFFCURVE",
"931 533 OFFCURVE",
"981 533 OFFCURVE",
"1001 530 QCURVE",
"1001 530 LINE"
);
},
{
closed = 1;
nodes = (
"521 513 OFFCURVE",
"440 449 QCURVE SMOOTH",
"343 372 OFFCURVE",
"241 231 QCURVE SMOOTH",
"220 202 OFFCURVE",
"181 151 QCURVE",
"141 169 OFFCURVE",
"141 228 QCURVE SMOOTH",
"141 271 OFFCURVE",
"183 327 QCURVE SMOOTH",
"202 352 OFFCURVE",
"255 402 OFFCURVE",
"317 447 OFFCURVE",
"386 486 OFFCURVE",
"455 514 OFFCURVE",
"522 530 OFFCURVE",
"572 530 OFFCURVE",
"592 527 QCURVE",
"592 527 LINE"
);
},
{
closed = 1;
nodes = (
"194 -169 OFFCURVE",
"264 -117 QCURVE SMOOTH",
"379 -31 OFFCURVE",
"485 4 QCURVE",
"441 -53 OFFCURVE",
"397 -104 QCURVE SMOOTH",
"252 -272 OFFCURVE",
"171 -272 QCURVE SMOOTH",
"161 -272 OFFCURVE",
"147 -259 OFFCURVE",
"147 -233 OFFCURVE",
"163 -212 QCURVE",
"163 -212 LINE"
);
}
);
};
layerId = "A6F4F1CF-B738-4D99-83C7-A0DEF7C73335";
paths = (
{
closed = 1;
nodes = (
"174 -296 LINE",
"343 -296 OFFCURVE",
"616 98 OFFCURVE",
"705 217 CURVE SMOOTH",
"808 355 OFFCURVE",
"890 489 OFFCURVE",
"1042 514 CURVE SMOOTH",
"1048 515 OFFCURVE",
"1054 521 OFFCURVE",
"1040 521 CURVE SMOOTH",
"1016 521 OFFCURVE",
"977 526 OFFCURVE",
"945 526 CURVE SMOOTH",
"736 526 OFFCURVE",
"526 379 OFFCURVE",
"526 222 CURVE SMOOTH",
"526 155 OFFCURVE",
"569 122 OFFCURVE",
"634 122 CURVE SMOOTH",
"775 122 OFFCURVE",
"914 262 OFFCURVE",
"899 390 CURVE SMOOTH",
"897 407 OFFCURVE",
"890 405 OFFCURVE",
"891 387 CURVE SMOOTH",
"897 273 OFFCURVE",
"763 132 OFFCURVE",
"632 132 CURVE SMOOTH",
"562 132 OFFCURVE",
"545 168 OFFCURVE",
"545 211 CURVE SMOOTH",
"545 338 OFFCURVE",
"800 516 OFFCURVE",
"949 516 CURVE SMOOTH",
"968 516 OFFCURVE",
"1037 511 OFFCURVE",
"1054 511 CURVE SMOOTH",
"1082 511 OFFCURVE",
"1082 524 OFFCURVE",
"1059 524 CURVE SMOOTH",
"915 524 OFFCURVE",
"774 392 OFFCURVE",
"669 250 CURVE SMOOTH",
"572 118 OFFCURVE",
"303 -285 OFFCURVE",
"169 -285 CURVE SMOOTH",
"156 -285 OFFCURVE",
"142 -280 OFFCURVE",
"142 -261 CURVE SMOOTH",
"142 -206 OFFCURVE",
"321 -71 OFFCURVE",
"441 -24 CURVE SMOOTH",
"517 6 OFFCURVE",
"662 38 OFFCURVE",
"727 70 CURVE SMOOTH",
"741 77 OFFCURVE",
"734 89 OFFCURVE",
"719 81 CURVE SMOOTH",
"667 53 OFFCURVE",
"559 28 OFFCURVE",
"454 -4 CURVE SMOOTH",
"294 -53 OFFCURVE",
"130 -170 OFFCURVE",
"130 -257 CURVE SMOOTH",
"130 -280 OFFCURVE",
"139 -296 OFFCURVE",
"174 -296 CURVE"
);
},
{
closed = 1;
nodes = (
"-21 -10 LINE",
"74 -10 OFFCURVE",
"212 98 OFFCURVE",
"301 217 CURVE SMOOTH",
"404 355 OFFCURVE",
"486 486 OFFCURVE",
"638 514 CURVE SMOOTH",
"644 515 OFFCURVE",
"650 521 OFFCURVE",
"636 521 CURVE SMOOTH",
"612 521 OFFCURVE",
"573 526 OFFCURVE",
"541 526 CURVE SMOOTH",
"332 526 OFFCURVE",
"122 379 OFFCURVE",
"122 222 CURVE SMOOTH",
"122 155 OFFCURVE",
"165 122 OFFCURVE",
"230 122 CURVE SMOOTH",
"371 122 OFFCURVE",
"507 262 OFFCURVE",
"495 390 CURVE SMOOTH",
"493 407 OFFCURVE",
"486 405 OFFCURVE",
"487 387 CURVE SMOOTH",
"495 273 OFFCURVE",
"359 132 OFFCURVE",
"228 132 CURVE SMOOTH",
"158 132 OFFCURVE",
"141 168 OFFCURVE",
"141 211 CURVE SMOOTH",
"141 338 OFFCURVE",
"396 516 OFFCURVE",
"545 516 CURVE SMOOTH",
"564 516 OFFCURVE",
"633 511 OFFCURVE",
"650 511 CURVE SMOOTH",
"678 511 OFFCURVE",
"678 524 OFFCURVE",
"655 524 CURVE SMOOTH",
"511 524 OFFCURVE",
"370 392 OFFCURVE",
"265 250 CURVE SMOOTH",
"168 118 OFFCURVE",
"86 0 OFFCURVE",
"-30 0 CURVE SMOOTH",
"-76 0 OFFCURVE",
"-95 28 OFFCURVE",
"-95 47 CURVE",
"-95 47 OFFCURVE",
"-88 43 OFFCURVE",
"-79 44 CURVE SMOOTH",
"-69 45 OFFCURVE",
"-56 54 OFFCURVE",
"-56 62 CURVE SMOOTH",
"-56 70 OFFCURVE",
"-60 82 OFFCURVE",
"-77 82 CURVE SMOOTH",
"-90 82 OFFCURVE",
"-112 68 OFFCURVE",
"-112 48 CURVE SMOOTH",
"-112 10 OFFCURVE",
"-68 -10 OFFCURVE",
"-21 -10 CURVE"
);
}
);
width = 875;
},
{
background = {
paths = (
{
closed = 1;
nodes = (
"-60 91 OFFCURVE",
"-56 79 OFFCURVE",
"-56 71 CURVE SMOOTH",
"-56 63 OFFCURVE",
"-69 54 OFFCURVE",
"-79 53 CURVE SMOOTH",
"-88 52 OFFCURVE",
"-95 56 OFFCURVE",
"-95 56 CURVE",
"-95 37 OFFCURVE",
"-76 9 OFFCURVE",
"-30 9 CURVE SMOOTH",
"86 9 OFFCURVE",
"168 127 OFFCURVE",
"265 259 CURVE SMOOTH",
"370 401 OFFCURVE",
"511 533 OFFCURVE",
"655 533 CURVE SMOOTH",
"678 533 OFFCURVE",
"678 520 OFFCURVE",
"650 520 CURVE SMOOTH",
"633 520 OFFCURVE",
"564 525 OFFCURVE",
"545 525 CURVE SMOOTH",
"396 525 OFFCURVE",
"141 347 OFFCURVE",
"141 220 CURVE SMOOTH",
"141 177 OFFCURVE",
"158 141 OFFCURVE",
"228 141 CURVE SMOOTH",
"359 141 OFFCURVE",
"495 282 OFFCURVE",
"487 396 CURVE SMOOTH",
"486 414 OFFCURVE",
"493 416 OFFCURVE",
"495 399 CURVE SMOOTH",
"507 271 OFFCURVE",
"371 131 OFFCURVE",
"230 131 CURVE SMOOTH",
"165 131 OFFCURVE",
"122 164 OFFCURVE",
"122 231 CURVE SMOOTH",
"122 388 OFFCURVE",
"332 535 OFFCURVE",
"541 535 CURVE SMOOTH",
"573 535 OFFCURVE",
"612 530 OFFCURVE",
"636 530 CURVE SMOOTH",
"650 530 OFFCURVE",
"644 524 OFFCURVE",
"638 523 CURVE SMOOTH",
"486 495 OFFCURVE",
"404 364 OFFCURVE",
"301 226 CURVE SMOOTH",
"212 107 OFFCURVE",
"74 -1 OFFCURVE",
"-21 -1 CURVE SMOOTH",
"-68 -1 OFFCURVE",
"-112 19 OFFCURVE",
"-112 57 CURVE SMOOTH",
"-112 77 OFFCURVE",
"-90 91 OFFCURVE",
"-77 91 CURVE SMOOTH"
);
},
{
closed = 1;
nodes = (
"734 98 OFFCURVE",
"741 86 OFFCURVE",
"727 79 CURVE SMOOTH",
"662 47 OFFCURVE",
"517 15 OFFCURVE",
"441 -15 CURVE SMOOTH",
"321 -62 OFFCURVE",
"142 -197 OFFCURVE",
"142 -252 CURVE SMOOTH",
"142 -271 OFFCURVE",
"156 -276 OFFCURVE",
"169 -276 CURVE SMOOTH",
"303 -276 OFFCURVE",
"572 127 OFFCURVE",
"669 259 CURVE SMOOTH",
"774 401 OFFCURVE",
"915 533 OFFCURVE",
"1059 533 CURVE SMOOTH",
"1082 533 OFFCURVE",
"1082 520 OFFCURVE",
"1054 520 CURVE SMOOTH",
"1037 520 OFFCURVE",
"968 525 OFFCURVE",
"949 525 CURVE SMOOTH",
"800 525 OFFCURVE",
"545 347 OFFCURVE",
"545 220 CURVE SMOOTH",
"545 177 OFFCURVE",
"562 141 OFFCURVE",
"632 141 CURVE SMOOTH",
"763 141 OFFCURVE",
"897 282 OFFCURVE",
"891 396 CURVE SMOOTH",
"890 414 OFFCURVE",
"897 416 OFFCURVE",
"899 399 CURVE SMOOTH",
"914 271 OFFCURVE",
"775 131 OFFCURVE",
"634 131 CURVE SMOOTH",
"569 131 OFFCURVE",
"526 164 OFFCURVE",
"526 231 CURVE SMOOTH",
"526 388 OFFCURVE",
"736 535 OFFCURVE",
"945 535 CURVE SMOOTH",
"977 535 OFFCURVE",
"1016 530 OFFCURVE",
"1040 530 CURVE SMOOTH",
"1054 530 OFFCURVE",
"1048 524 OFFCURVE",
"1042 523 CURVE SMOOTH",
"890 498 OFFCURVE",
"808 364 OFFCURVE",
"705 226 CURVE SMOOTH",
"616 107 OFFCURVE",
"343 -287 OFFCURVE",
"174 -287 CURVE SMOOTH",
"139 -287 OFFCURVE",
"130 -271 OFFCURVE",
"130 -248 CURVE SMOOTH",
"130 -161 OFFCURVE",
"294 -44 OFFCURVE",
"454 5 CURVE SMOOTH",
"559 37 OFFCURVE",
"667 62 OFFCURVE",
"719 90 CURVE SMOOTH"
);
}
);
};
layerId = "A92E3ADA-722A-4108-B621-F991B1803EEA";
paths = (
{
closed = 1;
nodes = (
"176 -296 LINE",
"339 -296 OFFCURVE",
"609 115 OFFCURVE",
"698 234 CURVE SMOOTH",
"801 372 OFFCURVE",
"892 489 OFFCURVE",
"1044 514 CURVE SMOOTH",
"1050 515 OFFCURVE",
"1056 521 OFFCURVE",
"1042 521 CURVE SMOOTH",
"1018 521 OFFCURVE",
"979 526 OFFCURVE",
"947 526 CURVE SMOOTH",
"749 526 OFFCURVE",
"528 373 OFFCURVE",
"528 222 CURVE SMOOTH",
"528 155 OFFCURVE",
"571 122 OFFCURVE",
"636 122 CURVE SMOOTH",
"777 122 OFFCURVE",
"916 262 OFFCURVE",
"901 390 CURVE SMOOTH",
"899 407 OFFCURVE",
"892 405 OFFCURVE",
"893 387 CURVE SMOOTH",
"899 273 OFFCURVE",
"765 132 OFFCURVE",
"634 132 CURVE SMOOTH",
"564 132 OFFCURVE",
"542 179 OFFCURVE",
"542 222 CURVE SMOOTH",
"542 365 OFFCURVE",
"765 517 OFFCURVE",
"947 517 CURVE SMOOTH",
"966 517 OFFCURVE",
"1039 511 OFFCURVE",
"1056 511 CURVE SMOOTH",
"1084 511 OFFCURVE",
"1084 524 OFFCURVE",
"1061 524 CURVE SMOOTH",
"921 524 OFFCURVE",
"790 382 OFFCURVE",
"685 240 CURVE SMOOTH",
"588 108 OFFCURVE",
"323 -285 OFFCURVE",
"176 -285 CURVE SMOOTH",
"152 -285 OFFCURVE",
"144 -275 OFFCURVE",
"144 -257 CURVE SMOOTH",
"144 -184 OFFCURVE",
"314 -63 OFFCURVE",
"456 -16 CURVE SMOOTH",
"532 9 OFFCURVE",
"662 38 OFFCURVE",
"729 70 CURVE SMOOTH",
"739 75 OFFCURVE",
"740 92 OFFCURVE",
"719 81 CURVE SMOOTH",
"667 53 OFFCURVE",
"561 28 OFFCURVE",
"456 -4 CURVE SMOOTH",
"294 -53 OFFCURVE",
"132 -183 OFFCURVE",
"132 -257 CURVE SMOOTH",
"132 -280 OFFCURVE",
"141 -296 OFFCURVE",
"176 -296 CURVE"
);
},
{
closed = 1;
nodes = (
"-21 -10 LINE",
"104 -10 OFFCURVE",
"202 125 OFFCURVE",
"293 242 CURVE SMOOTH",
"400 380 OFFCURVE",
"486 486 OFFCURVE",
"638 514 CURVE SMOOTH",
"644 515 OFFCURVE",
"650 521 OFFCURVE",
"636 521 CURVE SMOOTH",
"612 521 OFFCURVE",
"573 526 OFFCURVE",
"541 526 CURVE SMOOTH",
"325 526 OFFCURVE",
"122 355 OFFCURVE",
"122 222 CURVE SMOOTH",
"122 164 OFFCURVE",
"150 122 OFFCURVE",
"230 122 CURVE SMOOTH",
"371 122 OFFCURVE",
"507 262 OFFCURVE",
"495 390 CURVE SMOOTH",
"493 407 OFFCURVE",
"486 405 OFFCURVE",
"487 387 CURVE SMOOTH",
"495 272 OFFCURVE",
"364 132 OFFCURVE",
"228 132 CURVE SMOOTH",
"156 132 OFFCURVE",
"136 176 OFFCURVE",
"136 222 CURVE SMOOTH",
"136 353 OFFCURVE",
"337 517 OFFCURVE",
"541 517 CURVE SMOOTH",
"560 517 OFFCURVE",
"633 511 OFFCURVE",
"650 511 CURVE SMOOTH",
"678 511 OFFCURVE",
"678 524 OFFCURVE",
"655 524 CURVE SMOOTH",
"511 524 OFFCURVE",
"391 390 OFFCURVE",
"283 250 CURVE SMOOTH",
"189 128 OFFCURVE",
"86 0 OFFCURVE",
"-21 0 CURVE SMOOTH",
"-67 0 OFFCURVE",
"-95 28 OFFCURVE",
"-95 47 CURVE",
"-95 47 OFFCURVE",
"-88 43 OFFCURVE",
"-79 44 CURVE SMOOTH",
"-69 45 OFFCURVE",
"-56 54 OFFCURVE",
"-56 62 CURVE SMOOTH",
"-56 70 OFFCURVE",
"-60 82 OFFCURVE",
"-77 82 CURVE SMOOTH",
"-90 82 OFFCURVE",
"-111 68 OFFCURVE",
"-111 48 CURVE SMOOTH",
"-111 11 OFFCURVE",
"-61 -10 OFFCURVE",
"-21 -10 CURVE"
);
}
);
width = 875;
}
);
note = IJ;
unicode = 0132;
},
{
glyphname = Iacute;
lastChange = "2020-12-18 19:02:38 +0000";
layers = (
{
background = {
paths = (
{
closed = 1;
nodes = (
"650 636 OFFCURVE",
"646 628 QCURVE SMOOTH",
"631 599 OFFCURVE",
"597 575 QCURVE SMOOTH",
"590 570 OFFCURVE",
"585 566 OFFCURVE",
"585 565 QCURVE SMOOTH",
"585 560 OFFCURVE",
"594 560 OFFCURVE",
"643 588 OFFCURVE",
"666 613 QCURVE SMOOTH",
"691 640 OFFCURVE",
"691 658 QCURVE SMOOTH",
"691 679 OFFCURVE",
"657 679 OFFCURVE",
"653 652 QCURVE",
"653 652 LINE"
);
},
{
closed = 1;
nodes = (
"405 210 OFFCURVE",
"343 174 QCURVE SMOOTH",
"283 140 OFFCURVE",
"229 140 QCURVE SMOOTH",
"226 140 LINE",
"276 190 OFFCURVE",
"323 258 QCURVE SMOOTH",
"460 456 OFFCURVE",
"574 506 QCURVE",
"591 513 LINE SMOOTH",
"600 517 OFFCURVE",
"610 519 QCURVE",
"620 519 OFFCURVE",
"643 518 OFFCURVE",
"670 520 OFFCURVE",
"670 526 QCURVE SMOOTH",
"670 532 OFFCURVE",
"656 532 QCURVE",
"617 529 LINE",
"550 534 LINE",
"437 534 OFFCURVE",
"335 488 QCURVE SMOOTH",
"240 445 OFFCURVE",
"180 375 QCURVE SMOOTH",
"120 305 OFFCURVE",
"121 233 QCURVE SMOOTH",
"122 163 OFFCURVE",
"173 139 QCURVE",
"112 65 OFFCURVE",
"65 36 QCURVE SMOOTH",
"41 21 OFFCURVE",
"-4 8 OFFCURVE",
"-58 8 OFFCURVE",
"-96 34 OFFCURVE",
"-96 53 QCURVE SMOOTH",
"-96 55 LINE",
"-89 51 OFFCURVE",
"-76 53 QCURVE SMOOTH",
"-69 54 OFFCURVE",
"-54 70 OFFCURVE",
"-60 81 QCURVE SMOOTH",
"-68 96 OFFCURVE",
"-91 86 QCURVE SMOOTH",
"-113 76 OFFCURVE",
"-112 53 QCURVE SMOOTH",
"-111 31 OFFCURVE",
"-87 14 QCURVE SMOOTH",
"-77 7 OFFCURVE",
"-45 -2 OFFCURVE",
"1 -2 OFFCURVE",
"30 7 QCURVE SMOOTH",
"120 35 OFFCURVE",
"216 129 QCURVE",
"224 129 LINE SMOOTH",
"286 129 OFFCURVE",
"350 163 QCURVE SMOOTH",
"380 179 OFFCURVE",
"433 228 OFFCURVE",
"472 286 OFFCURVE",
"495 353 OFFCURVE",
"495 409 OFFCURVE",
"486 409 OFFCURVE",
"486 362 OFFCURVE",
"463 296 OFFCURVE",
"443 266 QCURVE",
"443 266 LINE"
);
},
{
closed = 1;
nodes = (
"520 507 OFFCURVE",
"439 443 QCURVE SMOOTH",
"345 366 OFFCURVE",
"240 226 QCURVE SMOOTH",
"219 198 OFFCURVE",
"180 146 QCURVE",
"140 164 OFFCURVE",
"140 223 QCURVE SMOOTH",
"140 266 OFFCURVE",
"182 321 QCURVE SMOOTH",
"202 347 OFFCURVE",
"254 396 OFFCURVE",
"316 442 OFFCURVE",
"385 480 OFFCURVE",
"454 509 OFFCURVE",
"521 524 OFFCURVE",
"571 524 OFFCURVE",
"591 521 QCURVE",
"591 521 LINE"
);
}
);
};
layerId = "A6F4F1CF-B738-4D99-83C7-A0DEF7C73335";
paths = (
{
closed = 1;
nodes = (
"-21 -10 LINE",
"74 -10 OFFCURVE",
"212 98 OFFCURVE",
"301 217 CURVE SMOOTH",
"404 355 OFFCURVE",
"486 486 OFFCURVE",
"638 514 CURVE SMOOTH",
"644 515 OFFCURVE",
"650 521 OFFCURVE",
"636 521 CURVE SMOOTH",
"612 521 OFFCURVE",
"573 526 OFFCURVE",
"541 526 CURVE SMOOTH",
"332 526 OFFCURVE",
"122 379 OFFCURVE",
"122 222 CURVE SMOOTH",
"122 155 OFFCURVE",
"165 122 OFFCURVE",
"230 122 CURVE SMOOTH",
"371 122 OFFCURVE",
"507 262 OFFCURVE",
"495 390 CURVE SMOOTH",
"493 407 OFFCURVE",
"486 405 OFFCURVE",
"487 387 CURVE SMOOTH",
"495 273 OFFCURVE",
"359 132 OFFCURVE",
"228 132 CURVE SMOOTH",
"158 132 OFFCURVE",
"141 168 OFFCURVE",
"141 211 CURVE SMOOTH",
"141 338 OFFCURVE",
"396 516 OFFCURVE",
"545 516 CURVE SMOOTH",
"564 516 OFFCURVE",
"633 511 OFFCURVE",
"650 511 CURVE SMOOTH",
"678 511 OFFCURVE",
"678 524 OFFCURVE",
"655 524 CURVE SMOOTH",
"511 524 OFFCURVE",
"370 392 OFFCURVE",
"265 250 CURVE SMOOTH",
"168 118 OFFCURVE",
"86 0 OFFCURVE",
"-30 0 CURVE SMOOTH",
"-76 0 OFFCURVE",
"-95 28 OFFCURVE",
"-95 47 CURVE",
"-95 47 OFFCURVE",
"-88 43 OFFCURVE",
"-79 44 CURVE SMOOTH",
"-69 45 OFFCURVE",
"-56 54 OFFCURVE",
"-56 62 CURVE SMOOTH",
"-56 70 OFFCURVE",
"-60 82 OFFCURVE",
"-77 82 CURVE SMOOTH",
"-90 82 OFFCURVE",
"-112 68 OFFCURVE",
"-112 48 CURVE SMOOTH",
"-112 10 OFFCURVE",
"-68 -10 OFFCURVE",
"-21 -10 CURVE"
);
},
{
closed = 1;
nodes = (
"594 552 LINE",
"638 577 OFFCURVE",
"691 620 OFFCURVE",
"691 645 CURVE SMOOTH",
"691 662 OFFCURVE",
"684 668 OFFCURVE",
"675 668 CURVE SMOOTH",
"662 668 OFFCURVE",
"656 658 OFFCURVE",
"653 641 CURVE SMOOTH",
"649 616 OFFCURVE",
"631 583 OFFCURVE",
"590 560 CURVE SMOOTH",
"581 555 OFFCURVE",
"585 547 OFFCURVE",
"594 552 CURVE"
);
}
);
width = 459;
},
{
background = {
paths = (
{
closed = 1;
nodes = (
"-60 91 OFFCURVE",
"-56 79 OFFCURVE",
"-56 71 CURVE SMOOTH",
"-56 63 OFFCURVE",
"-69 54 OFFCURVE",
"-79 53 CURVE SMOOTH",
"-88 52 OFFCURVE",
"-95 56 OFFCURVE",
"-95 56 CURVE",
"-95 37 OFFCURVE",
"-76 9 OFFCURVE",
"-30 9 CURVE SMOOTH",
"86 9 OFFCURVE",
"168 127 OFFCURVE",
"265 259 CURVE SMOOTH",
"370 401 OFFCURVE",
"511 533 OFFCURVE",
"655 533 CURVE SMOOTH",
"678 533 OFFCURVE",
"678 520 OFFCURVE",
"650 520 CURVE SMOOTH",
"633 520 OFFCURVE",
"564 525 OFFCURVE",
"545 525 CURVE SMOOTH",
"396 525 OFFCURVE",
"141 347 OFFCURVE",
"141 220 CURVE SMOOTH",
"141 177 OFFCURVE",
"158 141 OFFCURVE",
"228 141 CURVE SMOOTH",
"359 141 OFFCURVE",
"495 282 OFFCURVE",
"487 396 CURVE SMOOTH",
"486 414 OFFCURVE",
"493 416 OFFCURVE",
"495 399 CURVE SMOOTH",
"507 271 OFFCURVE",
"371 131 OFFCURVE",
"230 131 CURVE SMOOTH",
"165 131 OFFCURVE",
"122 164 OFFCURVE",
"122 231 CURVE SMOOTH",
"122 388 OFFCURVE",
"332 535 OFFCURVE",
"541 535 CURVE SMOOTH",
"573 535 OFFCURVE",
"612 530 OFFCURVE",
"636 530 CURVE SMOOTH",
"650 530 OFFCURVE",
"644 524 OFFCURVE",
"638 523 CURVE SMOOTH",
"486 495 OFFCURVE",
"404 364 OFFCURVE",
"301 226 CURVE SMOOTH",
"212 107 OFFCURVE",
"74 -1 OFFCURVE",
"-21 -1 CURVE SMOOTH",
"-68 -1 OFFCURVE",
"-112 19 OFFCURVE",
"-112 57 CURVE SMOOTH",
"-112 77 OFFCURVE",
"-90 91 OFFCURVE",
"-77 91 CURVE SMOOTH"
);
},
{
closed = 1;
nodes = (
"581 564 OFFCURVE",
"585 556 OFFCURVE",
"594 561 CURVE SMOOTH",
"638 586 OFFCURVE",
"691 629 OFFCURVE",
"691 654 CURVE SMOOTH",
"691 671 OFFCURVE",
"684 677 OFFCURVE",
"675 677 CURVE SMOOTH",
"662 677 OFFCURVE",
"656 667 OFFCURVE",
"653 650 CURVE SMOOTH",
"649 625 OFFCURVE",
"631 592 OFFCURVE",
"590 569 CURVE SMOOTH"
);
}
);
};
layerId = "A92E3ADA-722A-4108-B621-F991B1803EEA";
paths = (
{
closed = 1;
nodes = (
"-21 -10 LINE",
"104 -10 OFFCURVE",
"202 125 OFFCURVE",
"293 242 CURVE SMOOTH",
"400 380 OFFCURVE",
"486 486 OFFCURVE",
"638 514 CURVE SMOOTH",
"644 515 OFFCURVE",
"650 521 OFFCURVE",
"636 521 CURVE SMOOTH",
"612 521 OFFCURVE",
"573 526 OFFCURVE",
"541 526 CURVE SMOOTH",
"325 526 OFFCURVE",
"122 355 OFFCURVE",
"122 222 CURVE SMOOTH",
"122 164 OFFCURVE",
"150 122 OFFCURVE",
"230 122 CURVE SMOOTH",
"371 122 OFFCURVE",
"507 262 OFFCURVE",
"495 390 CURVE SMOOTH",
"493 407 OFFCURVE",
"486 405 OFFCURVE",
"487 387 CURVE SMOOTH",
"495 272 OFFCURVE",
"364 132 OFFCURVE",
"228 132 CURVE SMOOTH",
"156 132 OFFCURVE",
"136 176 OFFCURVE",
"136 222 CURVE SMOOTH",
"136 353 OFFCURVE",
"337 517 OFFCURVE",
"541 517 CURVE SMOOTH",
"560 517 OFFCURVE",
"633 511 OFFCURVE",
"650 511 CURVE SMOOTH",
"678 511 OFFCURVE",
"678 524 OFFCURVE",
"655 524 CURVE SMOOTH",
"511 524 OFFCURVE",
"391 390 OFFCURVE",
"283 250 CURVE SMOOTH",
"189 128 OFFCURVE",
"86 0 OFFCURVE",
"-21 0 CURVE SMOOTH",
"-67 0 OFFCURVE",
"-95 28 OFFCURVE",
"-95 47 CURVE",
"-95 47 OFFCURVE",
"-88 43 OFFCURVE",
"-79 44 CURVE SMOOTH",
"-69 45 OFFCURVE",
"-56 54 OFFCURVE",
"-56 62 CURVE SMOOTH",
"-56 70 OFFCURVE",
"-60 82 OFFCURVE",
"-77 82 CURVE SMOOTH",
"-90 82 OFFCURVE",
"-111 68 OFFCURVE",
"-111 48 CURVE SMOOTH",
"-111 11 OFFCURVE",
"-61 -10 OFFCURVE",
"-21 -10 CURVE"
);
},
{
closed = 1;
nodes = (
"594 552 LINE",
"638 577 OFFCURVE",
"685 624 OFFCURVE",
"685 649 CURVE SMOOTH",
"685 666 OFFCURVE",
"681 668 OFFCURVE",
"675 668 CURVE SMOOTH",
"665 668 OFFCURVE",
"661 653 OFFCURVE",
"658 636 CURVE SMOOTH",
"654 611 OFFCURVE",
"631 583 OFFCURVE",
"590 560 CURVE SMOOTH",
"581 555 OFFCURVE",
"585 547 OFFCURVE",
"594 552 CURVE"
);
}
);
width = 459;
}
);
note = Iacute;
unicode = 00CD;
},
{
glyphname = Icircumflex;
lastChange = "2020-12-18 19:02:38 +0000";
layers = (
{
background = {
paths = (
{
closed = 1;
nodes = (
"576 602 OFFCURVE",
"603 622 QCURVE",
"605 606 LINE SMOOTH",
"606 595 OFFCURVE",
"615 579 QCURVE SMOOTH",
"631 551 OFFCURVE",
"643 551 QCURVE SMOOTH",
"646 551 OFFCURVE",
"650 556 OFFCURVE",
"650 559 OFFCURVE",
"648 560 QCURVE SMOOTH",
"628 570 OFFCURVE",
"632 618 QCURVE SMOOTH",
"634 643 OFFCURVE",
"641 665 QCURVE SMOOTH",
"643 671 OFFCURVE",
"643 676 QCURVE SMOOTH",
"643 679 OFFCURVE",
"640 679 QCURVE SMOOTH",
"635 679 OFFCURVE",
"618 660 QCURVE",
"592 634 OFFCURVE",
"566 614 QCURVE SMOOTH",
"516 576 LINE SMOOTH",
"493 559 OFFCURVE",
"493 553 QCURVE SMOOTH",
"493 552 OFFCURVE",
"501 552 OFFCURVE",
"516 562 QCURVE SMOOTH",
"554 586 LINE",
"554 586 LINE"
);
},
{
closed = 1;
nodes = (
"405 210 OFFCURVE",
"343 174 QCURVE SMOOTH",
"283 140 OFFCURVE",
"229 140 QCURVE SMOOTH",
"226 140 LINE",
"276 190 OFFCURVE",
"323 258 QCURVE SMOOTH",
"460 456 OFFCURVE",
"574 506 QCURVE",
"591 513 LINE SMOOTH",
"600 517 OFFCURVE",
"610 519 QCURVE",
"620 519 OFFCURVE",
"643 518 OFFCURVE",
"670 520 OFFCURVE",
"670 526 QCURVE SMOOTH",
"670 532 OFFCURVE",
"656 532 QCURVE",
"617 529 LINE",
"550 534 LINE",
"437 534 OFFCURVE",
"335 488 QCURVE SMOOTH",
"240 445 OFFCURVE",
"180 375 QCURVE SMOOTH",
"120 305 OFFCURVE",
"121 233 QCURVE SMOOTH",
"122 163 OFFCURVE",
"173 139 QCURVE",
"112 65 OFFCURVE",
"65 36 QCURVE SMOOTH",
"41 21 OFFCURVE",
"-4 8 OFFCURVE",
"-58 8 OFFCURVE",
"-96 34 OFFCURVE",
"-96 53 QCURVE SMOOTH",
"-96 55 LINE",
"-89 51 OFFCURVE",
"-76 53 QCURVE SMOOTH",
"-69 54 OFFCURVE",
"-54 70 OFFCURVE",
"-60 81 QCURVE SMOOTH",
"-68 96 OFFCURVE",
"-91 86 QCURVE SMOOTH",
"-113 76 OFFCURVE",
"-112 53 QCURVE SMOOTH",
"-111 31 OFFCURVE",
"-87 14 QCURVE SMOOTH",
"-77 7 OFFCURVE",
"-45 -2 OFFCURVE",
"1 -2 OFFCURVE",
"30 7 QCURVE SMOOTH",
"120 35 OFFCURVE",
"216 129 QCURVE",
"224 129 LINE SMOOTH",
"286 129 OFFCURVE",
"350 163 QCURVE SMOOTH",
"380 179 OFFCURVE",
"433 228 OFFCURVE",
"472 286 OFFCURVE",
"495 353 OFFCURVE",
"495 409 OFFCURVE",
"486 409 OFFCURVE",
"486 362 OFFCURVE",
"463 296 OFFCURVE",
"443 266 QCURVE",
"443 266 LINE"
);
},
{
closed = 1;
nodes = (
"520 507 OFFCURVE",
"439 443 QCURVE SMOOTH",
"345 366 OFFCURVE",
"240 226 QCURVE SMOOTH",
"219 198 OFFCURVE",
"180 146 QCURVE",
"140 164 OFFCURVE",
"140 223 QCURVE SMOOTH",
"140 266 OFFCURVE",
"182 321 QCURVE SMOOTH",
"202 347 OFFCURVE",
"254 396 OFFCURVE",
"316 442 OFFCURVE",
"385 480 OFFCURVE",
"454 509 OFFCURVE",
"521 524 OFFCURVE",
"571 524 OFFCURVE",
"591 521 QCURVE",
"591 521 LINE"
);
}
);
};
layerId = "A6F4F1CF-B738-4D99-83C7-A0DEF7C73335";
paths = (
{
closed = 1;
nodes = (
"-21 -10 LINE",
"74 -10 OFFCURVE",
"212 98 OFFCURVE",
"301 217 CURVE SMOOTH",
"404 355 OFFCURVE",
"486 486 OFFCURVE",
"638 514 CURVE SMOOTH",
"644 515 OFFCURVE",
"650 521 OFFCURVE",
"636 521 CURVE SMOOTH",
"612 521 OFFCURVE",
"573 526 OFFCURVE",
"541 526 CURVE SMOOTH",
"332 526 OFFCURVE",
"122 379 OFFCURVE",
"122 222 CURVE SMOOTH",
"122 155 OFFCURVE",
"165 122 OFFCURVE",
"230 122 CURVE SMOOTH",
"371 122 OFFCURVE",
"507 262 OFFCURVE",
"495 390 CURVE SMOOTH",
"493 407 OFFCURVE",
"486 405 OFFCURVE",
"487 387 CURVE SMOOTH",
"495 273 OFFCURVE",
"359 132 OFFCURVE",
"228 132 CURVE SMOOTH",
"158 132 OFFCURVE",
"141 168 OFFCURVE",
"141 211 CURVE SMOOTH",
"141 338 OFFCURVE",
"396 516 OFFCURVE",
"545 516 CURVE SMOOTH",
"564 516 OFFCURVE",
"633 511 OFFCURVE",
"650 511 CURVE SMOOTH",
"678 511 OFFCURVE",
"678 524 OFFCURVE",
"655 524 CURVE SMOOTH",
"511 524 OFFCURVE",
"370 392 OFFCURVE",
"265 250 CURVE SMOOTH",
"168 118 OFFCURVE",
"86 0 OFFCURVE",
"-30 0 CURVE SMOOTH",
"-76 0 OFFCURVE",
"-95 28 OFFCURVE",
"-95 47 CURVE",
"-95 47 OFFCURVE",
"-88 43 OFFCURVE",
"-79 44 CURVE SMOOTH",
"-69 45 OFFCURVE",
"-56 54 OFFCURVE",
"-56 62 CURVE SMOOTH",
"-56 70 OFFCURVE",
"-60 82 OFFCURVE",
"-77 82 CURVE SMOOTH",
"-90 82 OFFCURVE",
"-112 68 OFFCURVE",
"-112 48 CURVE SMOOTH",
"-112 10 OFFCURVE",
"-68 -10 OFFCURVE",
"-21 -10 CURVE"
);
},
{
closed = 1;
nodes = (
"637 544 LINE",
"647 540 OFFCURVE",
"655 546 OFFCURVE",
"649 551 CURVE SMOOTH",
"640 559 OFFCURVE",
"633 586 OFFCURVE",
"633 610 CURVE SMOOTH",
"633 632 OFFCURVE",
"640 652 OFFCURVE",
"644 663 CURVE SMOOTH",
"646 669 OFFCURVE",
"642 675 OFFCURVE",
"633 665 CURVE SMOOTH",
"599 627 OFFCURVE",
"516 568 OFFCURVE",
"499 551 CURVE SMOOTH",
"493 545 OFFCURVE",
"492 537 OFFCURVE",
"506 546 CURVE SMOOTH",
"525 558 OFFCURVE",
"596 608 OFFCURVE",
"603 613 CURVE",
"603 598 OFFCURVE",
"619 551 OFFCURVE",
"637 544 CURVE"
);
}
);
width = 459;
},
{
background = {
paths = (
{
closed = 1;
nodes = (
"-60 91 OFFCURVE",
"-56 79 OFFCURVE",
"-56 71 CURVE SMOOTH",
"-56 63 OFFCURVE",
"-69 54 OFFCURVE",
"-79 53 CURVE SMOOTH",
"-88 52 OFFCURVE",
"-95 56 OFFCURVE",
"-95 56 CURVE",
"-95 37 OFFCURVE",
"-76 9 OFFCURVE",
"-30 9 CURVE SMOOTH",
"86 9 OFFCURVE",
"168 127 OFFCURVE",
"265 259 CURVE SMOOTH",
"370 401 OFFCURVE",
"511 533 OFFCURVE",
"655 533 CURVE SMOOTH",
"678 533 OFFCURVE",
"678 520 OFFCURVE",
"650 520 CURVE SMOOTH",
"633 520 OFFCURVE",
"564 525 OFFCURVE",
"545 525 CURVE SMOOTH",
"396 525 OFFCURVE",
"141 347 OFFCURVE",
"141 220 CURVE SMOOTH",
"141 177 OFFCURVE",
"158 141 OFFCURVE",
"228 141 CURVE SMOOTH",
"359 141 OFFCURVE",
"495 282 OFFCURVE",
"487 396 CURVE SMOOTH",
"486 414 OFFCURVE",
"493 416 OFFCURVE",
"495 399 CURVE SMOOTH",
"507 271 OFFCURVE",
"371 131 OFFCURVE",
"230 131 CURVE SMOOTH",
"165 131 OFFCURVE",
"122 164 OFFCURVE",
"122 231 CURVE SMOOTH",
"122 388 OFFCURVE",
"332 535 OFFCURVE",
"541 535 CURVE SMOOTH",
"573 535 OFFCURVE",
"612 530 OFFCURVE",
"636 530 CURVE SMOOTH",
"650 530 OFFCURVE",
"644 524 OFFCURVE",
"638 523 CURVE SMOOTH",
"486 495 OFFCURVE",
"404 364 OFFCURVE",
"301 226 CURVE SMOOTH",
"212 107 OFFCURVE",
"74 -1 OFFCURVE",
"-21 -1 CURVE SMOOTH",
"-68 -1 OFFCURVE",
"-112 19 OFFCURVE",
"-112 57 CURVE SMOOTH",
"-112 77 OFFCURVE",
"-90 91 OFFCURVE",
"-77 91 CURVE SMOOTH"
);
},
{
closed = 1;
nodes = (
"493 554 OFFCURVE",
"492 546 OFFCURVE",
"506 555 CURVE SMOOTH",
"525 567 OFFCURVE",
"596 617 OFFCURVE",
"603 622 CURVE",
"603 607 OFFCURVE",
"619 560 OFFCURVE",
"637 553 CURVE SMOOTH",
"647 549 OFFCURVE",
"655 555 OFFCURVE",
"649 560 CURVE SMOOTH",
"640 568 OFFCURVE",
"633 595 OFFCURVE",
"633 619 CURVE SMOOTH",
"633 641 OFFCURVE",
"640 661 OFFCURVE",
"644 672 CURVE SMOOTH",
"646 678 OFFCURVE",
"642 684 OFFCURVE",
"633 674 CURVE SMOOTH",
"599 636 OFFCURVE",
"516 577 OFFCURVE",
"499 560 CURVE SMOOTH"
);
}
);
};
layerId = "A92E3ADA-722A-4108-B621-F991B1803EEA";
paths = (
{
closed = 1;
nodes = (
"-21 -10 LINE",
"104 -10 OFFCURVE",
"202 125 OFFCURVE",
"293 242 CURVE SMOOTH",
"400 380 OFFCURVE",
"486 486 OFFCURVE",
"638 514 CURVE SMOOTH",
"644 515 OFFCURVE",
"650 521 OFFCURVE",
"636 521 CURVE SMOOTH",
"612 521 OFFCURVE",
"573 526 OFFCURVE",
"541 526 CURVE SMOOTH",
"325 526 OFFCURVE",
"122 355 OFFCURVE",
"122 222 CURVE SMOOTH",
"122 164 OFFCURVE",
"150 122 OFFCURVE",
"230 122 CURVE SMOOTH",
"371 122 OFFCURVE",
"507 262 OFFCURVE",
"495 390 CURVE SMOOTH",
"493 407 OFFCURVE",
"486 405 OFFCURVE",
"487 387 CURVE SMOOTH",
"495 272 OFFCURVE",
"364 132 OFFCURVE",
"228 132 CURVE SMOOTH",
"156 132 OFFCURVE",
"136 176 OFFCURVE",
"136 222 CURVE SMOOTH",
"136 353 OFFCURVE",
"337 517 OFFCURVE",
"541 517 CURVE SMOOTH",
"560 517 OFFCURVE",
"633 511 OFFCURVE",
"650 511 CURVE SMOOTH",
"678 511 OFFCURVE",
"678 524 OFFCURVE",
"655 524 CURVE SMOOTH",
"511 524 OFFCURVE",
"391 390 OFFCURVE",
"283 250 CURVE SMOOTH",
"189 128 OFFCURVE",
"86 0 OFFCURVE",
"-21 0 CURVE SMOOTH",
"-67 0 OFFCURVE",
"-95 28 OFFCURVE",
"-95 47 CURVE",
"-95 47 OFFCURVE",
"-88 43 OFFCURVE",
"-79 44 CURVE SMOOTH",
"-69 45 OFFCURVE",
"-56 54 OFFCURVE",
"-56 62 CURVE SMOOTH",
"-56 70 OFFCURVE",
"-60 82 OFFCURVE",
"-77 82 CURVE SMOOTH",
"-90 82 OFFCURVE",
"-111 68 OFFCURVE",
"-111 48 CURVE SMOOTH",
"-111 11 OFFCURVE",
"-61 -10 OFFCURVE",
"-21 -10 CURVE"
);
},
{
closed = 1;
nodes = (
"505 544 LINE",
"526 557 OFFCURVE",
"599 612 OFFCURVE",
"627 642 CURVE",
"618 622 OFFCURVE",
"618 558 OFFCURVE",
"639 546 CURVE SMOOTH",
"649 540 OFFCURVE",
"654 544 OFFCURVE",
"648 549 CURVE SMOOTH",
"639 557 OFFCURVE",
"632 584 OFFCURVE",
"632 608 CURVE SMOOTH",
"632 630 OFFCURVE",
"639 650 OFFCURVE",
"643 661 CURVE SMOOTH",
"645 667 OFFCURVE",
"641 673 OFFCURVE",
"632 663 CURVE SMOOTH",
"588 614 OFFCURVE",
"515 566 OFFCURVE",
"498 549 CURVE SMOOTH",
"492 543 OFFCURVE",
"489 534 OFFCURVE",
"505 544 CURVE"
);
}
);
width = 459;
}
);
note = Icircumflex;
unicode = 00CE;
},
{
glyphname = Idieresis;
lastChange = "2020-12-18 19:02:38 +0000";
layers = (
{
background = {
paths = (
{
closed = 1;
nodes = (
"676 580 OFFCURVE",
"683 593 OFFCURVE",
"683 610 OFFCURVE",
"670 623 OFFCURVE",
"644 623 OFFCURVE",
"632 613 QCURVE SMOOTH",
"626 608 OFFCURVE",
"621 595 OFFCURVE",
"621 578 OFFCURVE",
"633 563 OFFCURVE",
"659 563 OFFCURVE",
"671 575 QCURVE",
"671 575 LINE"
);
},
{
closed = 1;
nodes = (
"512 607 OFFCURVE",
"506 595 OFFCURVE",
"506 578 OFFCURVE",
"519 563 OFFCURVE",
"536 563 OFFCURVE",
"550 570 OFFCURVE",
"561 580 OFFCURVE",
"567 593 OFFCURVE",
"567 610 OFFCURVE",
"555 623 OFFCURVE",
"529 623 OFFCURVE",
"517 613 QCURVE",
"517 613 LINE"
);
},
{
closed = 1;
nodes = (
"405 210 OFFCURVE",
"343 174 QCURVE SMOOTH",
"283 140 OFFCURVE",
"229 140 QCURVE SMOOTH",
"226 140 LINE",
"276 190 OFFCURVE",
"323 258 QCURVE SMOOTH",
"460 456 OFFCURVE",
"574 506 QCURVE",
"591 513 LINE SMOOTH",
"600 517 OFFCURVE",
"610 519 QCURVE",
"620 519 OFFCURVE",
"643 518 OFFCURVE",
"670 520 OFFCURVE",
"670 526 QCURVE SMOOTH",
"670 532 OFFCURVE",
"656 532 QCURVE",
"617 529 LINE",
"550 534 LINE",
"437 534 OFFCURVE",
"335 488 QCURVE SMOOTH",
"240 445 OFFCURVE",
"180 375 QCURVE SMOOTH",
"120 305 OFFCURVE",
"121 233 QCURVE SMOOTH",
"122 163 OFFCURVE",
"173 139 QCURVE",
"112 65 OFFCURVE",
"65 36 QCURVE SMOOTH",
"41 21 OFFCURVE",
"-4 8 OFFCURVE",
"-58 8 OFFCURVE",
"-96 34 OFFCURVE",
"-96 53 QCURVE SMOOTH",
"-96 55 LINE",
"-89 51 OFFCURVE",
"-76 53 QCURVE SMOOTH",
"-69 54 OFFCURVE",
"-54 70 OFFCURVE",
"-60 81 QCURVE SMOOTH",
"-68 96 OFFCURVE",
"-91 86 QCURVE SMOOTH",
"-113 76 OFFCURVE",
"-112 53 QCURVE SMOOTH",
"-111 31 OFFCURVE",
"-87 14 QCURVE SMOOTH",
"-77 7 OFFCURVE",
"-45 -2 OFFCURVE",
"1 -2 OFFCURVE",
"30 7 QCURVE SMOOTH",
"120 35 OFFCURVE",
"216 129 QCURVE",
"224 129 LINE SMOOTH",
"286 129 OFFCURVE",
"350 163 QCURVE SMOOTH",
"380 179 OFFCURVE",
"433 228 OFFCURVE",
"472 286 OFFCURVE",
"495 353 OFFCURVE",
"495 409 OFFCURVE",
"486 409 OFFCURVE",
"486 362 OFFCURVE",
"463 296 OFFCURVE",
"443 266 QCURVE",
"443 266 LINE"
);
},
{
closed = 1;
nodes = (
"520 507 OFFCURVE",
"439 443 QCURVE SMOOTH",
"345 366 OFFCURVE",
"240 226 QCURVE SMOOTH",
"219 198 OFFCURVE",
"180 146 QCURVE",
"140 164 OFFCURVE",
"140 223 QCURVE SMOOTH",
"140 266 OFFCURVE",
"182 321 QCURVE SMOOTH",
"202 347 OFFCURVE",
"254 396 OFFCURVE",
"316 442 OFFCURVE",
"385 480 OFFCURVE",
"454 509 OFFCURVE",
"521 524 OFFCURVE",
"571 524 OFFCURVE",
"591 521 QCURVE",
"591 521 LINE"
);
}
);
};
layerId = "A6F4F1CF-B738-4D99-83C7-A0DEF7C73335";
paths = (
{
closed = 1;
nodes = (
"-21 -10 LINE",
"74 -10 OFFCURVE",
"212 98 OFFCURVE",
"301 217 CURVE SMOOTH",
"404 355 OFFCURVE",
"486 486 OFFCURVE",
"638 514 CURVE SMOOTH",
"644 515 OFFCURVE",
"650 521 OFFCURVE",
"636 521 CURVE SMOOTH",
"612 521 OFFCURVE",
"573 526 OFFCURVE",
"541 526 CURVE SMOOTH",
"332 526 OFFCURVE",
"122 379 OFFCURVE",
"122 222 CURVE SMOOTH",
"122 155 OFFCURVE",
"165 122 OFFCURVE",
"230 122 CURVE SMOOTH",
"371 122 OFFCURVE",
"507 262 OFFCURVE",
"495 390 CURVE SMOOTH",
"493 407 OFFCURVE",
"486 405 OFFCURVE",
"487 387 CURVE SMOOTH",
"495 273 OFFCURVE",
"359 132 OFFCURVE",
"228 132 CURVE SMOOTH",
"158 132 OFFCURVE",
"141 168 OFFCURVE",
"141 211 CURVE SMOOTH",
"141 338 OFFCURVE",
"396 516 OFFCURVE",
"545 516 CURVE SMOOTH",
"564 516 OFFCURVE",
"633 511 OFFCURVE",
"650 511 CURVE SMOOTH",
"678 511 OFFCURVE",
"678 524 OFFCURVE",
"655 524 CURVE SMOOTH",
"511 524 OFFCURVE",
"370 392 OFFCURVE",
"265 250 CURVE SMOOTH",
"168 118 OFFCURVE",
"86 0 OFFCURVE",
"-30 0 CURVE SMOOTH",
"-76 0 OFFCURVE",
"-95 28 OFFCURVE",
"-95 47 CURVE",
"-95 47 OFFCURVE",
"-88 43 OFFCURVE",
"-79 44 CURVE SMOOTH",
"-69 45 OFFCURVE",
"-56 54 OFFCURVE",
"-56 62 CURVE SMOOTH",
"-56 70 OFFCURVE",
"-60 82 OFFCURVE",
"-77 82 CURVE SMOOTH",
"-90 82 OFFCURVE",
"-112 68 OFFCURVE",
"-112 48 CURVE SMOOTH",
"-112 10 OFFCURVE",
"-68 -10 OFFCURVE",
"-21 -10 CURVE"
);
},
{
closed = 1;
nodes = (
"555 566 LINE",
"565.744 576.744 OFFCURVE",
"572.75 594.808 OFFCURVE",
"560.5 608 CURVE SMOOTH",
"556.167 612.667 OFFCURVE",
"549.667 615 OFFCURVE",
"541 615 CURVE SMOOTH",
"532.333 615 OFFCURVE",
"524.333 611 OFFCURVE",
"517 603 CURVE",
"505.915 594.132 OFFCURVE",
"499.55 574.87 OFFCURVE",
"511.5 562 CURVE SMOOTH",
"520.167 552.667 OFFCURVE",
"539 550 OFFCURVE",
"555 566 CURVE"
);
},
{
closed = 1;
nodes = (
"671 566 LINE",
"681.744 576.744 OFFCURVE",
"688.75 594.808 OFFCURVE",
"676.5 608 CURVE SMOOTH",
"667.833 617.333 OFFCURVE",
"648.333 617.667 OFFCURVE",
"631 603 CURVE SMOOTH",
"620.585 594.668 OFFCURVE",
"614.962 574.425 OFFCURVE",
"626.5 562 CURVE SMOOTH",
"635.167 552.667 OFFCURVE",
"655 550 OFFCURVE",
"671 566 CURVE"
);
}
);
width = 459;
},
{
background = {
paths = (
{
closed = 1;
nodes = (
"-60 91 OFFCURVE",
"-56 79 OFFCURVE",
"-56 71 CURVE SMOOTH",
"-56 63 OFFCURVE",
"-69 54 OFFCURVE",
"-79 53 CURVE SMOOTH",
"-88 52 OFFCURVE",
"-95 56 OFFCURVE",
"-95 56 CURVE",
"-95 37 OFFCURVE",
"-76 9 OFFCURVE",
"-30 9 CURVE SMOOTH",
"86 9 OFFCURVE",
"168 127 OFFCURVE",
"265 259 CURVE SMOOTH",
"370 401 OFFCURVE",
"511 533 OFFCURVE",
"655 533 CURVE SMOOTH",
"678 533 OFFCURVE",
"678 520 OFFCURVE",
"650 520 CURVE SMOOTH",
"633 520 OFFCURVE",
"564 525 OFFCURVE",
"545 525 CURVE SMOOTH",
"396 525 OFFCURVE",
"141 347 OFFCURVE",
"141 220 CURVE SMOOTH",
"141 177 OFFCURVE",
"158 141 OFFCURVE",
"228 141 CURVE SMOOTH",
"359 141 OFFCURVE",
"495 282 OFFCURVE",
"487 396 CURVE SMOOTH",
"486 414 OFFCURVE",
"493 416 OFFCURVE",
"495 399 CURVE SMOOTH",
"507 271 OFFCURVE",
"371 131 OFFCURVE",
"230 131 CURVE SMOOTH",
"165 131 OFFCURVE",
"122 164 OFFCURVE",
"122 231 CURVE SMOOTH",
"122 388 OFFCURVE",
"332 535 OFFCURVE",
"541 535 CURVE SMOOTH",
"573 535 OFFCURVE",
"612 530 OFFCURVE",
"636 530 CURVE SMOOTH",
"650 530 OFFCURVE",
"644 524 OFFCURVE",
"638 523 CURVE SMOOTH",
"486 495 OFFCURVE",
"404 364 OFFCURVE",
"301 226 CURVE SMOOTH",
"212 107 OFFCURVE",
"74 -1 OFFCURVE",
"-21 -1 CURVE SMOOTH",
"-68 -1 OFFCURVE",
"-112 19 OFFCURVE",
"-112 57 CURVE SMOOTH",
"-112 77 OFFCURVE",
"-90 91 OFFCURVE",
"-77 91 CURVE SMOOTH"
);
},
{
closed = 1;
nodes = (
"676 580 OFFCURVE",
"683 593 OFFCURVE",
"683 610 OFFCURVE",
"670 624 OFFCURVE",
"644 623 OFFCURVE",
"631 612 QCURVE SMOOTH",
"626 608 OFFCURVE",
"620 595 OFFCURVE",
"620 578 OFFCURVE",
"633 564 OFFCURVE",
"659 563 OFFCURVE",
"671 575 QCURVE SMOOTH"
);
},
{
closed = 1;
nodes = (
"560 580 OFFCURVE",
"567 593 OFFCURVE",
"567 610 OFFCURVE",
"554 624 OFFCURVE",
"528 624 OFFCURVE",
"517 612 QCURVE",
"512 608 OFFCURVE",
"505 595 OFFCURVE",
"505 578 OFFCURVE",
"518 564 OFFCURVE",
"543 563 OFFCURVE",
"555 575 QCURVE SMOOTH"
);
}
);
};
layerId = "A92E3ADA-722A-4108-B621-F991B1803EEA";
paths = (
{
closed = 1;
nodes = (
"-21 -10 LINE",
"104 -10 OFFCURVE",
"202 125 OFFCURVE",
"293 242 CURVE SMOOTH",
"400 380 OFFCURVE",
"486 486 OFFCURVE",
"638 514 CURVE SMOOTH",
"644 515 OFFCURVE",
"650 521 OFFCURVE",
"636 521 CURVE SMOOTH",
"612 521 OFFCURVE",
"573 526 OFFCURVE",
"541 526 CURVE SMOOTH",
"325 526 OFFCURVE",
"122 355 OFFCURVE",
"122 222 CURVE SMOOTH",
"122 164 OFFCURVE",
"150 122 OFFCURVE",
"230 122 CURVE SMOOTH",
"371 122 OFFCURVE",
"507 262 OFFCURVE",
"495 390 CURVE SMOOTH",
"493 407 OFFCURVE",
"486 405 OFFCURVE",
"487 387 CURVE SMOOTH",
"495 272 OFFCURVE",
"364 132 OFFCURVE",
"228 132 CURVE SMOOTH",
"156 132 OFFCURVE",
"136 176 OFFCURVE",
"136 222 CURVE SMOOTH",
"136 353 OFFCURVE",
"337 517 OFFCURVE",
"541 517 CURVE SMOOTH",
"560 517 OFFCURVE",
"633 511 OFFCURVE",
"650 511 CURVE SMOOTH",
"678 511 OFFCURVE",
"678 524 OFFCURVE",
"655 524 CURVE SMOOTH",
"511 524 OFFCURVE",
"391 390 OFFCURVE",
"283 250 CURVE SMOOTH",
"189 128 OFFCURVE",
"86 0 OFFCURVE",
"-21 0 CURVE SMOOTH",
"-67 0 OFFCURVE",
"-95 28 OFFCURVE",
"-95 47 CURVE",
"-95 47 OFFCURVE",
"-88 43 OFFCURVE",
"-79 44 CURVE SMOOTH",
"-69 45 OFFCURVE",
"-56 54 OFFCURVE",
"-56 62 CURVE SMOOTH",
"-56 70 OFFCURVE",
"-60 82 OFFCURVE",
"-77 82 CURVE SMOOTH",
"-90 82 OFFCURVE",
"-111 68 OFFCURVE",
"-111 48 CURVE SMOOTH",
"-111 11 OFFCURVE",
"-61 -10 OFFCURVE",
"-21 -10 CURVE"
);
},
{
closed = 1;
nodes = (
"555 566 LINE",
"565.744 576.744 OFFCURVE",
"572.75 594.808 OFFCURVE",
"560.5 608 CURVE SMOOTH",
"556.167 612.667 OFFCURVE",
"549.667 615 OFFCURVE",
"541 615 CURVE SMOOTH",
"532.333 615 OFFCURVE",
"524.333 611 OFFCURVE",
"517 603 CURVE",
"505.915 594.132 OFFCURVE",
"499.55 574.87 OFFCURVE",
"511.5 562 CURVE SMOOTH",
"520.167 552.667 OFFCURVE",
"539 550 OFFCURVE",
"555 566 CURVE"
);
},
{
closed = 1;
nodes = (
"671 566 LINE",
"681.744 576.744 OFFCURVE",
"688.75 594.808 OFFCURVE",
"676.5 608 CURVE SMOOTH",
"667.833 617.333 OFFCURVE",
"648.333 617.667 OFFCURVE",
"631 603 CURVE SMOOTH",
"620.585 594.668 OFFCURVE",
"614.962 574.425 OFFCURVE",
"626.5 562 CURVE SMOOTH",
"635.167 552.667 OFFCURVE",
"655 550 OFFCURVE",
"671 566 CURVE"
);
}
);
width = 459;
}
);
note = Idieresis;
unicode = 00CF;
},
